<?xml version="1.0" encoding="utf-8"?>
<!-- Generator: Adobe Illustrator 15.0.0, SVG Export Plug-In . SVG Version: 6.00 Build 0)  -->
<!DOCTYPE svg PUBLIC "-//W3C//DTD SVG 1.1//EN" "http://www.w3.org/Graphics/SVG/1.1/DTD/svg11.dtd">
<svg version="1.1" id="Calque_1" xmlns="http://www.w3.org/2000/svg" xmlns:xlink="http://www.w3.org/1999/xlink" x="0px" y="0px"
	 width="170.08px" height="141.73px" viewBox="0 0 170.08 141.73" enable-background="new 0 0 170.08 141.73" xml:space="preserve">
<path fill="none" stroke="#060809" stroke-miterlimit="10" d="M25.623,17.417"/>
<path fill="none" stroke="#060809" stroke-miterlimit="10" d="M26.926,18.929"/>
<path fill="none" stroke="#060809" stroke-miterlimit="10" d="M31.172,13.834c-0.181,0.032-0.154,0.134-0.287,0.213
	c-0.089,0.053-0.266,0.098-0.343,0.158c-0.19,0.148-0.3,0.358-0.496,0.508c-0.42,0.322-0.708,0.509-1,0.959
	c-0.594,0.917-1.349,1.673-1.886,2.618c-0.627,1.103-1.612,1.988-2.481,2.895c-0.428,0.447-0.923,0.696-1.383,1.104
	c-0.7,0.621-1.086,1.462-1.741,2.116c-2.145,2.144-4.296,4.377-6.341,6.644c-1.538,1.702-2.694,3.521-4.051,5.288
	c-0.636,0.827-2.315,1.85-1.456,3.126c0.937,1.393,2.395,2.526,3.446,3.849c0.714,0.895,1.646,1.569,2.254,2.557
	c0.654,1.061,1.153,2.2,1.901,3.209c1.754,2.366,3.351,4.691,5.711,6.518c1.716,1.328,3.497,2.715,5.339,3.814
	c0.48,0.285,0.672,0.657,1.091,0.978c0.361,0.276,0.764,0.38,1.148,0.624c0.701,0.445,1.442,1.053,2.061,1.604
	c1.26,1.121,2.8,1.9,4.156,2.895c0.569,0.417,1.067,0.795,1.6,1.254c0.69,0.596,0.682,1.154,1.591,1.309
	c0.317,0.053,0.71-0.023,1.03-0.016c0.554,0.014,0.921,0.164,1.448,0.256c0.959,0.17,1.933-0.049,2.887,0.145
	c1.017,0.205,1.895,0.592,2.967,0.576c1.321-0.018,2.545,0.252,3.842,0.32c0.621,0.033,1.25-0.033,1.874-0.016
	c1.127,0.035,2.179,0.338,3.314,0.328c0.717-0.008,1.437-0.01,2.154,0c0.795,0.01,1.462-0.254,2.253-0.318
	c-0.308,0.025,0.608,0.01,0.47,0.008c0.043-0.066,0.098-0.121,0.163-0.164c-0.007-0.242-0.105-0.85-0.023-1.145
	c0.118-0.426,0.489-0.816,0.653-1.266c0.43-1.188,0.786-2.399,1.192-3.597c0.659-1.944,1.661-3.741,2.246-5.697
	c0.58-1.938,1.197-3.798,1.6-5.78c0.411-2.024,0.914-4.033,1.279-6.064c0.326-1.816,0.322-3.672,0.621-5.491
	c0.107-0.654,0.056-1.347,0.188-1.986c0.154-0.743,0.454-1.431,0.638-2.163c0.058-0.23-0.009-0.44,0.029-0.667
	c0.041-0.241,0.148-0.42,0.175-0.667c0.028-0.25,0.125-0.422,0.176-0.666c0.056-0.27-0.057-0.546,0.024-0.816
	c0.24,0.025,0.526,0.645,0.596,0.854c0.067,0.199,0.168,0.43,0.212,0.621c0.038,0.2-0.051,0.418-0.008,0.61
	c0.043,0.192,0.121,0.216,0.207,0.384c0.198,0.389,0.251,0.963,0.348,1.389c0.213,0.941,0.293,1.932,0.471,2.885
	c0.232,1.254,0.061,2.533,0.312,3.773c0.196,0.971,0.134,1.92,0.319,2.877c0.219,1.131,0.083,2.184,0.232,3.303
	c0.119,0.896,0.309,1.635,0.327,2.557c0.021,0.977,0.347,1.834,0.327,2.812c-0.014,0.637,0.096,0.995,0.25,1.578
	c0.239,0.9,0.139,1.682,0.48,2.598c0.477,1.283,0.586,2.527,0.854,3.824c0.16,0.771,0.549,1.482,0.674,2.273
	c0.045,0.297-0.008,0.567,0.054,0.868c0.044,0.213,0.218,0.398,0.256,0.705c0.075,0.602,0.094,1.029,0.241,1.609
	c0.178,0.705,0.002,1.246,0.473,1.891c0.822-0.418,1.813-0.287,2.797-0.287c0.837,0,3.173,0.375,3.531-0.299
	c0.197-0.367,0.188-1.176,0.297-1.602c0.248-0.959,0.387-1.936,0.568-2.909c0.436-2.324,0.916-4.619,1.287-6.963
	c0.203-1.285-0.08-2.582,0.145-3.862c0.172-0.989,0.119-1.899,0.23-2.878c0.156-1.356,0.666-2.551,0.656-3.92
	c-0.004-0.729,0.012-1.459,0.002-2.188c-0.01-0.678,0.225-1.035,0.336-1.666c0.09-0.52-0.041-1.145-0.025-1.675
	c0.021-0.721,0.461-1.378,0.318-2.09c-0.061,0.612,0.242,1.216,0.322,1.817c0.17,1.26,0.748,2.389,1.039,3.629
	c0.271,1.157,0.863,2.047,1.461,3.055c0.939,1.578,1.002,3.54,2.475,4.804c0.531,0.455,1.068,0.86,1.523,1.399
	c0.66,0.786,1.145,1.775,1.592,2.696c0.129,0.269,0.172,0.592,0.318,0.839c0.137,0.228,0.359,0.465,0.432,0.707
	c0.15,0.499,0.346,0.95,0.537,1.463c0.127,0.34,0.201,0.682,0.375,1.004c0.121,0.223,0.346,0.418,0.424,0.659
	c0.061,0.181-0.016,0.333,0.025,0.504c0.043,0.181,0.137,0.319,0.18,0.5c0.066,0.271,0.1,0.558,0.199,0.833
	c0.125,0.341,0.412,0.637,0.471,1c0.064,0.397-0.01,0.528,0.205,0.872c0.137,0.221,0.24,0.477,0.271,0.736
	c0.057,0.455,0.139,1.391,0.564,1.672c0.445,0.295,1.496-0.105,1.951-0.225c0.273-0.07,0.473-0.043,0.75-0.053
	c0.348-0.012,0.576,0.172,0.807,0.199c0.273,0.033,0.42-0.09,0.695-0.092c0.729-0.004,1.109,0.338,1.723-0.238
	c0.549-0.518,1.17-0.934,1.727-1.439c0.576-0.527,1.004-1.127,1.617-1.62c1.162-0.932,1.961-2.22,3.168-3.118
	c0.51-0.38,1.033-0.752,1.445-1.243c0.936-1.109,2.275-1.752,3.246-2.819c0.85-0.933,1.549-1.864,2.516-2.694
	c0.68-0.582,1.266-1.21,2.002-1.757c0.793-0.591,1.514-1.292,2.244-1.924c0.895-0.774,1.816-1.554,2.756-2.318
	c1.338-1.09,2.818-2.201,4.123-3.376c0.479-0.431,0.912-0.922,1.369-1.375c0.289-0.285,0.531-0.596,0.812-0.882
	c0.223-0.228,0.684-0.419,0.725-0.756c-0.408-0.123-0.686,0.007-1.043-0.231c-0.27-0.182-0.512-0.525-0.742-0.756
	c-0.516-0.516-1.152-0.852-1.674-1.329c-0.6-0.55-1.086-1.376-1.602-2.013c-1.127-1.396-2.254-2.802-3.213-4.322
	c-1.021-1.615-1.775-3.413-2.711-5.029c-0.389-0.674-0.783-1.349-1.199-2.003c-0.459-0.722-0.758-1.56-1.27-2.244
	c-0.484-0.644-0.848-1.187-1.209-1.923c-0.285-0.58-0.643-1.503-1.039-1.945c-0.564-0.625-0.875-0.058-1.191,0.648
	c-0.623,1.398-1.412,2.682-2.006,4.11c-1.123,2.697-2.691,4.978-4.557,7.203c-0.58,0.693-1.021,1.485-1.551,2.216
	c-0.469,0.648-1.02,1.152-1.469,1.817c-0.131,0.194-0.297,0.345-0.438,0.538c-0.271,0.375-0.246,0.814-0.562,1.169
	c-0.152,0.171-0.402,0.288-0.562,0.476c-0.379,0.449-0.732,0.912-1.119,1.368c-0.357,0.419-1.062,1.06-1.141,1.638
	c-0.078,0.561,0.645,0.691,1.01,1.125c0.324,0.385,0.506,0.811,0.869,1.188c0.703,0.733,1.555,1.444,1.994,2.382
	c0.232,0.496,0.244,0.852,0.586,1.303c0.414,0.545,0.801,1.111,1.166,1.691c0.381,0.603,0.947,0.976,1.305,1.591
	c0.395,0.679,0.639,1.116,1.184,1.69c1.939,2.045,3.887,4.101,6.156,5.756c0.703,0.512,1.268,1.129,1.996,1.619
	c0.754,0.506,1.488,1.047,2.197,1.611c0.818,0.646,1.525,1.63,2.137,2.475c1.096,1.514,2.375,2.493,3.918,3.528
	c0.459,0.307,0.795,0.76,1.254,1.047c0.707,0.441,1.049,0.084,1.609-0.391c1.984-1.68,3.654-3.66,5.764-5.233
	c1.193-0.893,2.248-2.047,3.518-2.805c1.449-0.866,2.855-2.117,4.086-3.277c1.002-0.945,2.1-1.809,2.965-2.893
	c0.742-0.93,1.309-1.984,2.205-2.789c0.879-0.785,1.533-1.628,2.334-2.483c0.439-0.469,0.604-0.919,0.951-1.388
	c0.395-0.529,0.969-0.812,1.385-1.338c0.301-0.381,0.467-0.84,0.775-1.218c0.287-0.352,0.707-0.596,0.984-0.954
	c0.445-0.574,1.166-1.464,1.23-2.195c-0.52-0.141-1.041,0.012-1.566-0.121c-0.551-0.139-1.08-0.428-1.6-0.658
	c-1.291-0.568-2.564-1.15-3.846-1.744c-0.646-0.3-1.273-0.658-1.918-0.97c-0.629-0.306-0.943-0.277-1.59-0.384
	c-0.598-0.098-0.963-0.336-1.6-0.339c-0.658-0.005-0.963-0.355-1.561-0.394c0.197-0.775,0.943-1.377,1.49-1.922
	c0.863-0.859,1.432-1.956,2.309-2.812c0.92-0.899,1.658-1.936,2.559-2.879c0.996-1.046,1.723-2.352,2.549-3.525
	c0.926-1.316,1.748-2.79,2.646-4.182c0.691-1.076,1.447-2.106,2.078-3.215c0.199-0.348,0.539-0.469,0.432-0.953
	c-0.121-0.539-1.092-0.761-1.551-0.882c-0.963-0.254-2.387-0.443-3.043-1.306c-1.051,0.357-2.027,2.355-2.793,3.166
	c-1.688,1.785-3.213,3.644-5.195,5.119c-1.764,1.312-3.246,3.272-4.318,5.2c-0.969,1.743-2.244,3.309-3.197,5.065
	c-0.41,0.758-0.873,1.492-1.285,2.254c-0.5,0.92-0.271,1.01,0.559,1.497c1.912,1.125,3.076,2.936,4.803,4.272
	c1.25,0.965,2.691,1.446,4.16,1.978c0.609,0.222,0.943,0.512,1.619,0.577c0.449,0.044,1.174,0.107,1.258,0.688
	c0.086,0.6-1.24,2.283-1.701,2.688c-0.334,0.292-0.77,0.487-1.121,0.787c-1.773,1.517-3.6,2.939-5.094,4.769
	c-1.08,1.318-2.383,2.227-3.725,3.294c-0.389,0.31-0.629,0.734-1.006,1.019c-0.314,0.234-0.68,0.449-1.008,0.682
	c-0.629,0.447-1.152,1.025-1.688,1.562c-0.58,0.58-1.039,1.3-1.617,1.881c-0.287,0.288-0.707,0.469-1.014,0.744
	c-0.271,0.246-0.482,0.561-0.736,0.812c-1.232,1.215-2.412,2.34-3.383,3.805c-0.41,0.621-0.836,1.199-1.244,1.764
	c-0.074,0.102-0.521,0.627-0.623,0.65c-0.254,0.057-0.729-0.553-0.889-0.775c-0.412-0.564-0.545-1.375-1.105-1.875
	c-0.316-0.281-0.658-0.58-0.949-0.824c-0.719-0.604-1.701-0.971-2.52-1.483c-0.809-0.507-1.543-1.045-2.221-1.675
	c-0.85-0.796-1.383-1.794-2.414-2.421c-0.965-0.586-1.455-1.174-2.223-1.996c-1.123-1.201-2.484-2.016-3.625-3.169
	c-0.402-0.406-1.291-0.763-1.299-1.458c-0.584-0.03-0.986-0.795-1.27-1.224c-0.295-0.445-0.631-0.876-0.932-1.32
	c-0.375-0.557-0.613-1.211-1.057-1.722c-0.398-0.463-1.172-0.841-0.816-1.539c0.293-0.579,1.061-1.133,1.482-1.646
	c0.49-0.602,0.957-1.222,1.441-1.828c0.656-0.823,1.484-1.453,2.131-2.319c0.898-1.202,1.988-2.213,2.693-3.531
	c0.182-0.341,0.414-0.688,0.658-0.987c0.475-0.585,0.967-1.111,1.426-1.709c0.281-0.366,0.541-0.711,0.75-1.133
	c0.146-0.301,0.295-0.639,0.518-0.892c0.238-0.27,0.586-0.435,0.744-0.775c0.127-0.273,0.15-0.571,0.322-0.843
	c0.299-0.473,0.496-0.957,0.744-1.453c0.225-0.449,0.586-0.855,0.918-1.237c0.406-0.468,0.586-1.142,1.021-1.565
	c0.07,0.376,0.406,0.747,0.574,1.099c0.242,0.504,0.291,1.031,0.615,1.504c0.27,0.39,0.555,0.751,0.789,1.159
	c0.332,0.576,0.902,1.034,1.379,1.504c0.906,0.895,1.49,1.963,2.207,3c0.355,0.514,0.715,0.994,1.084,1.504
	c0.27,0.375,0.557,0.566,0.641,1.027c0.078,0.425-0.064,0.67,0.443,0.939c0.066,0.145,0.076,0.296,0.033,0.453
	c0.217,0.4,0.471,0.842,0.814,1.173c0.738,0.713,1.336,1.552,2.006,2.307c0.406,0.46,0.383,1.003,0.75,1.463
	c0.291,0.364,0.479,0.632,0.688,1.05c0.402,0.801,0.836,1.215,1.496,1.76c0.883,0.73-0.389,1.639-0.947,2.246
	c-0.287,0.312-0.482,0.668-0.73,1.002c-0.275,0.369-0.684,0.703-1.006,1.061c-0.562,0.623-1.137,1.175-1.75,1.744
	s-1.164,1.175-1.818,1.693c-0.744,0.59-1.443,1.297-2.236,1.807c-0.732,0.469-1.633,1.097-2.207,1.742
	c-0.434,0.486-0.646,0.974-1.182,1.382c-0.434,0.331-0.764,0.705-1.16,1.071c-1.121,1.038-2.467,1.908-3.707,2.798
	c-0.363,0.26-0.512,0.591-0.807,0.888c-0.291,0.293-0.674,0.475-0.953,0.807c-0.455,0.547-1.037,0.932-1.455,1.521
	c-0.312,0.441-0.51,0.846-1.119,0.713c-1.312-0.289-2.348-2.312-3.105-3.283c-0.514-0.657-0.953-1.325-1.512-1.963
	c-0.393-0.447-0.814-0.916-1.125-1.432c-0.664-1.101-1.088-2.505-1.914-3.557c-0.492-0.629-1.055-1.113-1.455-1.812
	c-0.137-0.235-0.215-0.398-0.369-0.62c-0.428-0.611-0.781-1.258-1.215-1.877c-0.52-0.744-0.91-1.349-1.283-2.172
	c-0.377-0.834-0.529-1.545-0.793-2.411c-0.422-1.382-0.947-2.79-1.607-4.079c-0.605-1.183-1.012-2.508-1.92-3.544
	c-0.375-0.428-0.688-0.789-1.029-1.265c-0.4-0.555-1.215-0.98-1.514-1.549c2.215-0.349,3.822-1.956,5.725-3.011
	c2.623-1.454,4.654-3.757,6.885-5.689c0.494-0.428,0.957-0.874,1.453-1.3c0.611-0.525,0.967-1.031,1.512-1.617
	c0.311-0.337,0.617-0.429,0.961-0.682c0.57-0.424,0.729-1.156,1.262-1.572c0.391-0.306,0.885-0.323,1.305-0.592
	c0.484-0.311,0.896-0.868,1.357-1.227c0.443-0.344,1.959-1.293,1.799-1.938c-0.389-0.011-0.629-0.226-0.918-0.442
	c-0.5-0.377-0.594-1.201-1.031-1.495c-0.406-0.272-1.211,0.412-1.553,0.606c-0.406,0.232-0.818,0.492-1.264,0.712
	c-2.717,1.345-5.217,2.938-7.906,4.393c-1.352,0.731-2.699,1.72-3.916,2.59c-0.596,0.426-1.338,0.856-1.99,1.203
	c-0.398,0.072-0.781,0.196-1.145,0.373c-0.475,0.236-0.9,0.632-1.359,0.907c-0.965,0.578-2.045,0.948-2.867,1.746
	c-0.717,0.693-1.178,1.511-1.609,2.396c-0.332-0.581-0.391-1.231-0.326-1.892c0.039-0.409,0.129-0.811,0.264-1.2
	c0.146-0.723-0.01-1.403,0.053-2.124c0.068-0.807,0.32-1.45,0.328-2.275c0.012-0.959,0.168-2,0.408-2.932
	c0.15-0.584,0.357-1.145,0.488-1.731c0.092-0.301,0.115-0.604,0.072-0.915c0.045-0.203,0.219-0.541,0.248-0.688
	c0.223-1.044,0.066-2.12,0.383-3.15c0.123-0.401,0.586-0.772,0.35-1.289c-0.283-0.619-0.799-0.219-1.301-0.056
	c-0.545,0.177-1.064,0.29-1.605,0.4c-0.479,0.098-0.773,0.269-1.264,0.329c-0.576,0.071-0.79-0.095-1.206,0.376
	c-0.429,0.486-0.479,1.238-0.634,1.838c-0.578,2.262-0.926,4.592-1.599,6.833c-0.601,1.998-1.222,3.982-1.767,6.002
	c-0.257,0.955-0.633,1.921-0.815,2.895c-0.171,0.908-0.182,1.89-0.313,2.805c-0.225,1.549-0.391,3.005-0.391,4.584
	c0,1.251,0.154,2.607,0.008,3.846c-0.065,0.555-0.27,1.016-0.334,1.57c-0.072,0.619,0.008,1.297,0.008,1.922
	c0,0.725-0.008,1.449-0.002,2.174c0.004,0.354,0.028,0.711,0.01,1.065c-0.015,0.259-0.137,0.419-0.18,0.667
	c-0.072,0.408,0.008,0.914,0.008,1.333c0,0.889,0,1.778,0,2.667c0,0.499-0.01,1,0.001,1.5c0.006,0.286,0.065,0.43,0.13,0.703
	c0.073,0.314-0.027,0.618,0.027,0.926c0.102,0.553,0.282,1.1,0.352,1.663c0.058,0.478-0.01,1.007-0.01,1.49
	c0-0.427-0.002-0.854,0-1.282c0.003-0.406-0.094-0.639-0.166-0.996c-0.081-0.402-0.172-0.746-0.166-1.171
	c0.006-0.433-0.144-0.756-0.172-1.167c-0.025-0.379,0.063-0.783,0.014-1.158c-0.064-0.477-0.272-0.916-0.352-1.379
	c-0.058-0.34,0.02-0.582-0.111-0.926c-0.074-0.189-0.171-0.34-0.217-0.537c-0.104-0.441-0.156-0.896-0.289-1.342
	c-0.143-0.486-0.302-1.004-0.383-1.491c-0.041-0.249-0.043-0.411-0.117-0.658c-0.063-0.213-0.126-0.471-0.17-0.685
	c-0.062-0.303-0.079-0.613-0.137-0.918c-0.067-0.358-0.248-0.604-0.373-0.936c-0.174-0.465-0.027-1.141-0.027-1.637
	c0-0.234,0.011-0.471,0.004-0.704c-0.01-0.321-0.125-0.499-0.18-0.796c-0.039-0.214,0.056-0.453,0.018-0.667
	c-0.043-0.249-0.169-0.406-0.18-0.667c-0.012-0.274-0.062-0.41-0.125-0.666c-0.043-0.17-0.14-0.406-0.166-0.537
	c-0.076-0.371,0.016-0.758-0.033-1.134c-0.031-0.231-0.131-0.284-0.18-0.487c-0.047-0.191,0.008-0.477,0.008-0.676
	c0.006-1.373-0.15-2.773-0.33-4.139c-0.23-1.75-0.281-3.516-0.337-5.277c-0.035-1.132-0.407-2.202-0.575-3.311
	c-0.132-0.872,0.053-1.76-0.055-2.629c-0.137-1.102-0.408-2.295-0.657-3.381c-0.177-0.769-0.2-1.567-0.391-2.309
	c-0.209-0.817-0.208-1.446-0.24-2.325c-0.033-0.889-0.349-1.658-0.328-2.553c0.024-1.055,0.107-1.234-0.96-1.212
	c-0.831,0.018-1.417-0.121-2.188-0.29c-0.109,0.41-0.037,0.815-0.12,1.235c-0.139,0.697-0.261,1.196-0.249,1.938
	c0.021,1.376-0.237,2.86-0.641,4.176c-0.957,3.117-2.208,6.138-3.118,9.271c-0.55,1.896-0.905,3.867-1.288,5.801
	c-0.162,0.817-0.218,1.657-0.391,2.477c-0.184,0.867-0.588,1.746-0.647,2.627c-0.058,0.848-0.163,1.421-0.399,2.236
	c-0.229,0.793-0.159,1.545-0.294,2.34c-0.262,1.551-0.848,3.14-1.296,4.65c-0.831,2.802-1.425,5.586-1.91,8.414
	c-0.168,0.98-0.582,1.939-0.817,2.885c-0.104,0.416-0.04,0.802-0.143,1.211c-0.099,0.391-0.48,0.938-0.656,1.352
	c-0.123,0.289-0.151,0.924-0.543,0.94c-0.138,0.006-0.391-0.188-0.538-0.229c-0.181-0.051-0.366-0.068-0.553-0.066
	c-0.221,0.002-0.419,0.009-0.629-0.037c-0.183-0.041-0.277-0.188-0.538-0.138c-0.247,0.048-0.409,0.161-0.667,0.179
	c-0.219,0.014-0.447-0.006-0.667-0.004c-0.482,0.002-0.863-0.174-1.333-0.166c-0.444,0.006-0.889-0.008-1.333-0.002
	c-0.506,0.008-0.918-0.184-1.443-0.17c-0.611,0.016-1.213,0.125-1.823,0.159c-0.329,0.019-0.976,0.173-1.227-0.101
	c-0.226-0.248-0.135-0.809-0.154-1.111c-0.034-0.525-0.112-1.046-0.217-1.561c-0.448-2.215-0.727-4.482-0.718-6.742
	c0.006-1.361,0.006-2.724,0-4.086c-0.005-1.719,0.251-3.338,0.336-5.037c0.079-1.598-0.102-3.211-0.034-4.809
	c0.083-1.912,0.289-3.932,0.585-5.819c0.158-1.005-0.034-2.002,0.055-3.005c0.102-1.143,0.42-2.306,0.583-3.446
	c0.302-2.115-0.1-4.282,0.056-6.404c0.089-1.216,0.348-2.325,0.336-3.563C48,18.74,48.046,18.031,48.25,17.166
	c0.19-0.809,0.387-1.578,0.405-2.409c0.003-0.118-0.069-0.917,0.121-0.936c-0.596,0.057-1.193,0.01-1.79-0.002
	c-0.213-0.004-0.61,0.08-0.8-0.006c-0.075-0.034-0.149-0.208-0.242-0.265c-0.453-0.279-1.313-0.061-1.771,0.119
	c-0.229,0.09-0.231-0.109-0.346,0.155c-0.072,0.166,0.039,0.497,0.016,0.682c-0.032,0.257-0.307,0.471-0.314,0.729
	c-0.005,0.164,0.086,0.187,0.115,0.314c0.034,0.151,0.028,0.279,0.029,0.453c0.001,0.22-0.019,0.448-0.004,0.667
	c0.018,0.256,0.137,0.421,0.179,0.667c0.038,0.227-0.032,0.436,0.028,0.667c0.067,0.258,0.131,0.385,0.129,0.667
	c-0.003,0.48-0.171,0.864-0.166,1.333c0.006,0.478-0.054,0.885-0.162,1.333c-0.129,0.539-0.177,0.96-0.172,1.537
	c0.003,0.366-0.064,0.619-0.129,0.962c-0.056,0.294-0.023,0.577-0.074,0.871c-0.106,0.615-0.082,1.164-0.121,1.793
	c-0.042,0.672-0.228,1.395-0.342,2.06c-0.205,1.192-0.167,2.39-0.167,3.614c0,1.152,0,2.307,0,3.459c0,0.414-0.001,0.828,0,1.241
	c0.001,0.507-0.087,0.858-0.176,1.333c-0.144,0.766,0.009,1.72,0.009,2.5c0,0.743,0.095,1.561-0.037,2.287
	c-0.141,0.778-0.118,1.538-0.129,2.342c-0.005,0.352,0.127,0.51,0.17,0.83c0.042,0.32-0.004,0.681-0.004,1.004
	c0,1.454,0.037,2.913,0.004,4.367c-0.011,0.496-0.136,0.967-0.167,1.467c-0.022,0.358-0.175,0.627-0.17,1c0.009,0.666,0,1.333,0,2
	c0,0.373,0.04,0.771-0.037,1.129c-0.024,0.113-0.113,0.207-0.134,0.367c-0.021,0.156,0.003,0.344,0.004,0.504
	c0.001,0.666,0,1.333,0,2c0,0.836-0.079,1.719,0.01,2.551c0.055,0.511,0.319,1.103-0.328,1.365
	c-0.642,0.262-0.826-0.512-1.171-0.875c-0.541-0.569-1.115-1.119-1.673-1.672c-0.198-0.195-0.343-0.27-0.505-0.537
	c-0.098-0.162-0.204-0.355-0.325-0.503c-0.271-0.33-0.701-0.519-1.009-0.83c-0.653-0.663-1.152-1.521-1.963-2.009
	c-1.665-1.001-2.811-2.789-4.366-3.949c-0.421-0.314-0.793-0.659-1.17-1.041c-0.371-0.375-0.817-0.623-1.18-1.006
	c-0.641-0.677-1.192-1.549-1.695-2.332c-0.28-0.436-0.587-0.798-0.958-1.162c-0.363-0.357-0.526-0.734-0.83-1.13
	c-0.541-0.706-1.169-1.343-1.708-2.041c-0.228-0.296-0.536-0.545-0.793-0.829c-0.354-0.392-0.784-0.509-1.173-0.834
	c-0.642-0.536-1.128-1.194-1.654-1.837c-0.155-0.188-0.381-0.319-0.546-0.487c-0.158-0.16-0.306-0.316-0.472-0.471
	c-0.238-0.222-0.484-0.422-0.703-0.664c-0.101-0.112-0.17-0.284-0.279-0.383c-0.221-0.196-0.322-0.047-0.52-0.148
	c-0.372-0.193-0.016-0.336,0.141-0.547c0.145-0.195,0.226-0.421,0.403-0.621c0.472-0.533,1.059-1.049,1.473-1.623
	c0.287-0.396,0.361-0.892,0.649-1.287c0.806-1.104,2.108-1.719,2.835-2.919c0.36-0.595,0.731-1.173,1.192-1.699
	c0.581-0.665,1.43-1.126,1.951-1.837c0.48-0.655,0.678-1.328,1.265-1.938c0.496-0.515,1.139-0.975,1.526-1.579
	c0.378-0.59,0.518-1.096,1.031-1.627c0.515-0.532,0.929-1.005,1.35-1.595c0.781-1.094,1.981-1.93,2.806-2.956
	c0.279-0.348,0.408-0.812,0.702-1.14c0.207-0.108,0.401-0.233,0.585-0.375c0.311-0.239,0.395-0.735,0.586-1.058
	c0.19-0.32,0.633-0.686,0.634-1.091c0-0.46-0.462-0.497-0.792-0.653c-0.427-0.203-0.772-0.549-1.203-0.755
	c-0.352-0.169-0.709-0.29-1.089-0.416c-0.042-0.078-0.106-0.123-0.194-0.135c-0.117,0.006-0.234,0.012-0.351,0.018
	c-0.185-0.055-0.283-0.226-0.426-0.351c0.034,0.003,0.067,0.006,0.101,0.009"/>
<path fill="none" stroke="#060809" stroke-miterlimit="10" d="M27.172,74.168c-0.567-0.18-1.053,1.621-1.458,1.92
	c-0.561,0.416-1.145,0.875-1.743,1.23c-0.812,0.482-1.491,0.803-2.201,1.471c-0.826,0.777-1.663,1.566-2.464,2.375
	c-1.499,1.514-2.858,2.959-4.13,4.676c-1.231,1.662-2.537,3.314-3.855,4.908c-0.556,0.672-0.824,1.434-1.385,2.104
	c-0.492,0.586-0.926,1.133-1.393,1.736c-0.921,1.193-1.938,2.367-2.912,3.486c-0.376,0.432-0.7,0.943-1.042,1.402
	c-0.427,0.572-0.92,0.908-1.35,1.412c-0.878,1.029,2.35,2.559,3.085,3.148c3.883,3.121,6.943,7.143,10.889,10.195
	c1.512,1.17,3.214,2.01,4.713,3.139c1.502,1.135,3.017,2.318,4.464,3.506c0.667,0.549,1.448,0.875,2.121,1.393
	c0.645,0.5,1.158,1.223,1.754,1.781c0.642,0.602,1.351,1.098,2.026,1.676c0.388,0.332,0.762,0.393,1.146,0.672
	c0.368,0.27,0.295,0.471,0.572,0.791c1.028,1.195,2.419,2.412,3.62,3.438c0.549,0.469,0.88,0.922,1.386,1.402
	c0.653,0.627,1.39,0.916,1.868,1.797c1.609-0.93,3.294-0.398,5.17-0.66c0.773-0.107,0.53,0.01,0.694-0.693
	c0.181-0.779,0.351-1.637,0.359-2.451c0.02-1.875-0.007-3.752-0.008-5.629c0-0.76,0.12-1.625,0.019-2.375
	c-0.091-0.674-0.341-1.229-0.377-1.91c-0.076-1.453-0.264-3.324-0.01-4.752c0.099-0.551,0.346-0.918,0.376-1.482
	c0.032-0.578-0.008-1.174-0.008-1.754c0-0.998-0.128-2.113,0.078-3.078c0.082-0.381,0.278-0.607,0.271-1.131
	c-0.008-0.465,0-0.934,0-1.4c0-1.053,0-2.105,0-3.158c0-1.365,0.194-2.887,0.009-4.232c-0.075-0.537-0.359-0.988-0.395-1.531
	c-0.056-0.842,0.394-1.688,0.386-2.572c-0.013-1.344-0.36-2.516-0.349-3.85c0.01-1.227,0.233-2.732,0.018-3.943
	c-0.1-0.557-0.343-0.893-0.377-1.48c-0.039-0.668,0.008-1.357,0.008-2.027c0-0.977-0.188-2.18,0.053-3.119
	c0.967,0.094,1.371,0.904,2.123,1.387c0.503,0.322,1.133,0.424,1.675,0.664c0.723,0.322,1.331,0.775,2.011,1.166
	c1.15,0.66,2.435,1.113,3.605,1.734c1.102,0.586,2.1,1.396,3.166,2.025c0.835,0.494,1.918,1.057,2.591,1.771
	c0.242,0.258,0.812,0.93,0.578,1.27c-0.038,0.055-0.423,0.148-0.521,0.234c-0.225,0.197-0.333,0.574-0.5,0.818
	c-0.589,0.867-1.262,1.691-1.925,2.496c-1.581,1.918-3.595,3.4-5.213,5.268c-1.214,1.402-2.549,2.613-3.862,3.926
	c-0.261,0.262-0.514,0.514-0.744,0.799c-0.234,0.293-0.355,0.6-0.66,0.832c-0.369,0.283-0.812,0.469-1.16,0.791
	c-0.626,0.58-0.507,1.164-0.029,1.812c0.536,0.727,1.227,1.229,1.636,2.057c0.392,0.793,0.638,1.652,1.181,2.365
	c2.188,2.871,4.304,5.602,6.943,8.082c1.061,0.998,2.329,1.729,3.524,2.547c1.228,0.84,2.053,1.973,3.324,2.803
	c0.9,0.588,2.152,1.27,2.833,2.104c0.469,0.576,0.865,1.172,1.453,1.668c0.582,0.492,1.183,0.943,1.764,1.482
	c0.639,0.59,1.35,1.705,2.165,2.039c0.926,0.381,2.045-0.258,3-0.287c1.338-0.043,2.623-0.359,3.954-0.344
	c1.494,0.021,3.045-0.24,4.547-0.328c1.664-0.102,3.234-0.371,4.919-0.371c1.26,0,2.52-0.012,3.777,0
	c1.139,0.008,2.143-0.348,3.252-0.359c0.727-0.01,1.061-0.262,1.729-0.35c0.783-0.104,1.672,0.004,2.463,0.008
	c1.922,0.012,1.752-0.74,1.754-2.455c0-0.645,0.068-1.287,0.098-1.932c0.02-0.443,0.197-1.611-0.115-1.977
	c-0.307-0.361-0.695,0.053-1.061,0.186c-0.25,0.092-0.525,0.215-0.762,0.291c-0.326,0.105-0.639,0.07-0.973,0.154
	c-0.297,0.076-0.428,0.184-0.75,0.201c-0.574,0.029-0.973-0.062-1.5-0.201c-0.547-0.143-1.182-0.051-1.75-0.055
	c-0.221-0.002-0.551-0.064-0.762-0.014c-0.227,0.055-0.248,0.223-0.475,0.275c-0.436,0.105-1.061-0.012-1.514-0.012
	c-1.023,0-2.246-0.189-3.25-0.014c-1.004,0.178-1.705,0.518-2.75,0.514c-1.083-0.004-2.166,0-3.25,0c-1,0-2,0-3,0
	c-0.482,0-0.98-0.045-1.444,0.055c-0.165,0.035-0.317,0.168-0.55,0.201c-0.299,0.041-0.694,0.031-0.979-0.057
	c-0.08-0.023,1.105-1.283,1.195-1.379c0.499-0.529,0.942-1.115,1.521-1.562c0.666-0.516,1.257-1.113,1.806-1.746
	c1.281-1.477,2.436-3.064,3.75-4.506c0.31-0.34,0.664-0.639,1.013-0.943c0.375-0.326,0.795-0.424,1.199-0.758
	c0.646-0.533,1.299-1.051,1.92-1.617c0.354-0.322,0.781-0.557,1.137-0.875c0.254-0.229,0.461-0.559,0.738-0.758
	c0.301-0.217,0.627-0.336,0.932-0.605c0.369-0.324,0.695-0.775,1.135-1.008c0.381-0.201,0.742-0.238,1.105-0.498
	c0.949-0.676,1.83-1.445,2.775-2.129c0.4-0.289,0.666-0.697,1.051-0.992c0.496-0.381,0.936-0.512,1.324-1.025
	c0.561-0.734,1.096-1.555,1.777-2.207c-0.096-0.551-1.205-0.943-1.682-1.213c-0.639-0.359-1.25-0.732-1.859-1.146
	c-1.002-0.684-2.18-0.992-3.229-1.586c-0.701-0.396-1.186-0.994-1.82-1.469c-0.9-0.676-2.072-0.934-3.088-1.395
	c-1.113-0.506-2.189-1.105-3.172-1.838c-0.48-0.357-0.764-0.861-1.307-1.193c-0.587-0.359-0.963-0.854-1.499-1.264
	c-0.916-0.697-1.771-1.383-2.749-2.049c-0.545-0.371-0.909-0.613-1.502-0.869c-0.504-0.217-1.034-0.484-1.512-0.756
	c-0.416-0.236-0.793-0.361-1.242-0.559c-0.235-0.102-0.592-0.115-0.53-0.518c0.062-0.406,0.285-0.139,0.536-0.236
	c0.45-0.176,0.999-0.32,1.499-0.445c0.271-0.066,0.486,0.002,0.75-0.041c0.279-0.045,0.472-0.229,0.75-0.277
	c0.244-0.041,0.521,0.084,0.763,0.025c0.228-0.053,0.247-0.221,0.475-0.275c0.435-0.104,1.061,0.014,1.513,0.014
	c0.566,0,1.204,0.086,1.75-0.057c0.537-0.139,0.922-0.193,1.5-0.193c0.484,0,0.98,0.043,1.445-0.057
	c0.168-0.035,0.311-0.168,0.549-0.199c0.236-0.031,0.518,0.004,0.756,0.006c2.168,0.008,4.338,0,6.506,0
	c0.652,0,1.137-0.041,1.744-0.195c0.271-0.068,0.486,0.002,0.75-0.041c0.279-0.045,0.473-0.229,0.75-0.277
	c0.455-0.08,1.035,0.006,1.5,0.012c0.559,0.008,0.963-0.225,1.5-0.254c1.074-0.059,2.174,0.006,3.25,0.006
	c0.861,0,2.543-0.359,3.223,0.303c0.648,0.631,0.668,1.982,1.094,2.768c1.105,2.037,1.377,4.725,2.035,6.967
	s1.342,4.459,2.182,6.645c0.936,2.441,0.365,4.92,1.131,7.381c0.598,1.924,1.504,3.695,1.947,5.672
	c0.262,1.166,0.264,2.311,0.77,3.43c0.504,1.105,0.715,2.436,1.402,3.436c0.904,1.318,1.35,2.338,1.404,3.91
	c0.023,0.701,0.389,3.906,1.344,3.84c0.035-0.57,0.42-0.885,0.77-1.283c0.578-0.654,1.254-1.441,1.674-2.25
	c0.1-0.459,0.236-0.906,0.41-1.342c0.273-0.646,0.707-1.193,0.992-1.832c0.625-1.41,0.93-3.021,1.404-4.488
	c0.861-2.668,1.24-5.479,2.094-8.152c0.311-0.969,0.705-1.729,1.148-2.621c0.359-0.721,1.066-1.713,1.131-2.516
	c0.344,0.09,0.781,1.627,0.887,2.068c0.33,1.377,0.512,2.793,1.043,4.154c1.09,2.799,3.01,5.201,4.381,7.861
	c1.234,2.395,2.807,4.398,4.473,6.5c0.646,0.814,1.449,1.383,2.086,2.174c0.744,0.928,1.689,1.281,2.568,1.99
	c0.891-1.416,1.4-2.73,1.656-4.402c0.217-1.402,0.357-2.818,0.605-4.215c0.398-2.227,0.965-4.486,1.158-6.734
	c0.141-1.611,0.691-3.119,0.965-4.709c0.275-1.607,0.66-3.135,1.043-4.715c0.742-3.051,1.627-6.092,2.455-9.135
	c0.795-2.924,1.76-5.781,2.635-8.684c0.41-1.355,0.523-2.887,1.037-4.203c0.338-0.867,0.773-1.637,1.059-2.525
	c0.129-0.402,0.697-1.326-0.08-1.445c-0.199,0.033-0.344,0.139-0.436,0.316c-0.344,0.064-0.611,0.082-0.975,0.076
	c-0.691-0.01-3.316-0.395-3.803,0.053c-0.137,0.127-0.359,1.525-0.414,1.771c-0.186,0.846-0.215,1.773-0.418,2.641
	c-0.561,2.389-1.178,4.9-2.025,7.188c-0.75,2.02-1.197,4.168-1.84,6.232c-0.664,2.135-1.324,4.383-1.678,6.584
	c-0.246,1.541-0.604,3.086-0.682,4.646c-0.031,0.635-0.342,1.107-0.369,1.744c-0.033,0.779-0.197,1.354-0.43,2.104
	c-0.791,2.555-1.84,5.029-2.445,7.609c-0.721-0.857-0.748-2.072-0.973-3.129c-0.334-1.561-0.646-2.963-1.326-4.41
	c-0.924-1.969-2.057-3.934-2.523-6.029c-0.09-0.412-0.287-0.678-0.455-1.055c-0.248-0.549-0.301-1.109-0.508-1.676
	c-0.367-0.99-0.713-1.959-1.053-2.959c-0.633-1.863-1.215-3.77-2.096-5.541c-0.477-0.959-1.271-0.689-2.209-0.693
	c-1.232-0.008-1.223-0.002-1.822,1.037c-1.453,2.51-2.547,5.182-3.875,7.809c-0.25,0.492-0.418,1.145-0.693,1.605
	c-0.379,0.631-0.881,1.08-1.244,1.736c-0.629,1.135-1.059,2.371-1.562,3.566c-0.613,1.461-1.455,3.025-1.691,4.602
	c-0.16,1.08-0.115,2.428-0.701,3.4c0.107-2.586,0.027-5.08-0.412-7.609c-0.268-1.555-0.781-3.033-1.059-4.582
	c-0.219-1.232-0.576-2.312-0.965-3.48c-0.525-1.584-0.566-3.338-0.975-4.92c-0.119-0.469,0.006-0.855-0.061-1.324
	c-0.07-0.504-0.316-0.908-0.467-1.387c-0.402-1.287-0.564-2.701-0.943-3.959c-0.268-0.883-0.611-1.613-0.799-2.543
	c-0.201-0.998-0.486-1.975-0.701-2.971c-0.209-0.975-0.475-1.934-0.701-2.904c-0.139-0.6-0.156-2.717-0.676-3.1
	c-0.377-0.281-1.557-0.057-2.025-0.055c-1.07,0.004-1.873-0.193-2.912-0.361c-2.297-0.371-4.596-0.342-6.943-0.342
	c-0.807,0-1.619-0.033-2.424-0.008c-1.018,0.031-1.871,0.367-2.912,0.359c-2.117-0.018-4.02,0.35-6.148,0.352
	c-1.014,0-1.82,0.088-2.795,0.271c-0.878,0.166-1.67,0.107-2.541,0.43c-1.59,0.588-3.266,0.686-4.9,1.131
	c-1.553,0.422-3.01,1.363-4.481,2.033c-0.38,0.172-0.784,0.15-1.184,0.246s-0.781,0.254-1.146,0.439
	c-0.239,0.123-0.448,0.232-0.704,0.334c-0.266,0.105-0.752,0.156-0.97,0.33c-0.532,0.42-0.091,1.17,0.174,1.592
	c0.328,0.523,0.62,1.115,0.829,1.703c0.555,1.559,1.518,2.979,2.76,4c0.574,0.473,1.095,1.031,1.703,1.492
	c0.322,0.244,0.511,0.588,0.83,0.836c0.321,0.25,0.689,0.459,1.008,0.709c0.193,0.152,0.311,0.342,0.486,0.504
	c0.154,0.141,0.342,0.219,0.51,0.334c0.364,0.25,0.656,0.533,1,0.801c0.674,0.525,1.485,0.814,2.166,1.318
	c0.695,0.518,1.404,0.869,2.166,1.293c0.331,0.184,0.627,0.418,0.963,0.592c0.27,0.139,0.589,0.248,0.871,0.408
	c0.254,0.146,0.441,0.275,0.703,0.379c0.221,0.088,0.42,0.211,0.635,0.301c0.328,0.139,0.637,0.244,0.959,0.412
	c0.594,0.311,1.154,0.688,1.703,1.111c0.246,0.189,0.385,0.406,0.666,0.555c0.18,0.096,0.34,0.152,0.5,0.279
	c0.369,0.291,0.549,0.514,1,0.676c0.25,0.088,0.771,0.207,0.967,0.371c0.387,0.322,0.004,0.418-0.299,0.582
	c-0.756,0.408-1.463,0.945-2.168,1.422c-0.357,0.24-0.531,0.477-0.824,0.756c-0.141,0.135-0.359,0.213-0.512,0.365
	c-0.154,0.154-0.23,0.369-0.367,0.512c-0.18,0.191-0.43,0.303-0.629,0.488c-0.172,0.16-0.334,0.338-0.5,0.504
	c-0.314,0.312-0.623,0.596-0.963,0.875c-0.129,0.104-0.223,0.229-0.367,0.334c-0.141,0.102-0.346,0.203-0.467,0.328
	c-0.143,0.146-0.193,0.293-0.367,0.426c-0.178,0.139-0.356,0.174-0.511,0.365c-0.196,0.244-0.234,0.365-0.488,0.547
	c-0.16,0.113-0.361,0.215-0.512,0.334c-0.277,0.217-0.438,0.518-0.648,0.791c-0.245,0.316-0.54,0.641-0.84,0.869
	c-0.337,0.26-0.695,0.504-1.004,0.793c-0.404,0.381-0.808,0.783-1.162,1.209c-0.357,0.428-0.787,0.715-1.17,1.125
	c-1.297,1.387-2.442,2.926-3.504,4.529c-0.584,0.881-1.13,1.785-1.734,2.654c-0.301,0.432-0.615,0.855-0.955,1.26
	c-0.164,0.197-0.741,1.041-0.998,1.055c0.147-0.008,0.295-0.012,0.443-0.008c-0.892,0.049-1.219-0.5-1.692-1.053
	c-0.392-0.455-0.925-0.652-1.362-1.051c-0.438-0.398-0.671-0.879-1.033-1.334c-0.627-0.789-1.391-1.469-2.104-2.182
	c-0.885-0.885-1.958-1.572-2.824-2.436c-0.771-0.771-1.159-1.736-2.085-2.395c-0.781-0.557-1.39-1.178-2.103-1.84
	c-0.638-0.594-1.156-1.105-1.747-1.746c-0.622-0.676-1.449-1.148-2.026-1.832c-0.546-0.646-0.965-1.357-1.473-2.023
	c-0.588-0.777-1.485-1.295-2.128-2.027c-1.035-1.178-2.035-2.408-3.079-3.602c-0.788-0.898-1.911-1.924-1.215-3.156
	c0.883-1.566,2.379-2.27,3.601-3.49c0.775-0.777,1.322-1.713,2.104-2.471c0.769-0.744,1.659-1.361,2.456-2.078
	c1.785-1.604,2.986-3.816,4.908-5.287c0.914-0.699,3.182-1.877,3.169-3.137c-0.006-0.73-0.428-0.787-1.046-1.053
	c-0.869-0.373-1.661-0.529-2.473-1.053c-0.674-0.434-1.38-0.777-2.104-1.139c-0.332-0.164-0.77-0.305-1.071-0.518
	c-0.297-0.211-0.371-0.512-0.665-0.721c-0.651-0.461-1.456-0.756-2.123-1.217c-0.8-0.553-1.542-0.984-2.454-1.314
	c-1.325-0.48-2.662-1.158-3.936-1.666c-1.547-0.617-3.181-1.025-4.753-1.576c-0.508-0.178-0.981-0.541-1.411,0.156
	c-0.367,0.596-0.071,2.055-0.071,2.734c0,2.725-0.33,5.336-0.349,8.064c-0.011,1.676,0.357,3.236,0.349,4.91
	c-0.01,1.637-0.006,3.273-0.008,4.91c-0.002,1.559,0.355,3.055,0.358,4.637c0.003,1.441-0.359,2.756-0.349,4.182
	c0.021,2.875-0.001,5.752-0.001,8.627c0,1.221,0.003,2.441,0,3.662c-0.003,1.469,0.307,2.791,0.36,4.227
	c0.045,1.246-0.008,2.506-0.008,3.754c0,0.615,0.032,1.248,0.008,1.865c-0.029,0.729-0.281,1.301-0.378,2.008
	c-0.064,0.463,0.079,0.955,0.026,1.422c-0.059,0.514-0.289,0.883-0.377,1.385c-0.126,0.721,0.02,1.611,0.017,2.35
	c0.231-1.359-1.183-2.764-2.018-3.654c-0.764-0.82-1.504-1.641-2.275-2.457c-0.839-0.887-1.316-1.914-2.096-2.822
	c-1.077-1.254-2.257-2.414-3.428-3.586c-1.133-1.133-2.328-2.092-3.491-3.139c-0.699-0.631-1.395-1.342-2.226-1.807
	c-0.326-0.186-0.672-0.309-1.041-0.373c-0.605-0.357-0.894-0.881-1.394-1.355c-0.719-0.684-1.327-1.367-2.018-2.1
	c-0.546-0.58-1.068-1.059-1.735-1.473c-1.378-0.855-2.594-1.721-3.911-2.66c-0.897-0.637-1.818-1.199-2.673-1.91
	c-0.842-0.697-1.851-1.223-2.473-2.092c-0.138-0.193-0.856-1.111-0.823-1.334c0.042-0.279,0.793-0.629,1.077-0.783
	c3.265-1.758,5.167-5.459,7.306-8.309c0.653-0.869,1.123-1.914,1.744-2.822c0.716-1.043,1.423-2.051,2.182-3.059
	c1.391-1.85,3-3.279,4.837-4.664c1.214-0.914,2.384-1.814,3.604-2.721c0.483-0.357,0.879-0.736,1.308-1.139
	c0.331-0.311,1.217-0.805,1.101-1.342c-1.077-0.268-2.056-0.199-3.05-0.842c-0.926-0.596-1.744-1.213-2.778-1.68"/>
</svg>
