<?xml version="1.0" encoding="utf-8"?>
<!-- Generator: Adobe Illustrator 16.0.0, SVG Export Plug-In . SVG Version: 6.00 Build 0)  -->
<!DOCTYPE svg PUBLIC "-//W3C//DTD SVG 1.1//EN" "http://www.w3.org/Graphics/SVG/1.1/DTD/svg11.dtd">
<svg version="1.1" id="Layer_1" xmlns="http://www.w3.org/2000/svg" xmlns:xlink="http://www.w3.org/1999/xlink" x="0px" y="0px"
	 width="595.28px" height="674px" viewBox="0 0 595.28 674" enable-background="new 0 0 595.28 674" xml:space="preserve">
<path fill="none" stroke="#010101" stroke-linejoin="bevel" stroke-miterlimit="10" d="M538.309,466.48
	c0,0-26.994-30.367-42.179-38.804c-15.184-8.435-59.05-77.608-59.05-77.608s21.934-57.362,10.123-87.73
	c-11.81-30.368-53.987-80.982-53.987-80.982l-53.989-47.239c0,0-25.307-18.559-33.742-3.375
	c-8.436,15.185,15.184,26.994,25.308,40.491c10.122,13.498,45.553,74.233,45.553,74.233l8.436,59.05c0,0-70.86-42.178-74.233-47.24
	c-3.375-5.061-82.67-79.295-96.167-109.664c-13.498-30.368-32.052-67.484-38.801-92.792c-6.749-25.307-25.307-35.43-33.743-11.81
	c-8.436,23.62-10.123,53.988,5.062,74.234s96.163,141.719,96.163,141.719s-94.476-79.295-109.66-102.915
	c-15.184-23.62-74.233-121.474-89.418-121.474c-15.184,0-38.804,21.933,25.307,109.664
	c64.111,87.731,116.412,140.032,116.412,140.032l-94.479-72.546c0,0-62.424-70.86-69.172-70.86s-32.056,5.062,15.184,60.737
	c47.24,55.675,133.283,133.283,133.283,133.283l-84.356-48.927c0,0-48.927-23.62-57.362-11.81
	c-8.436,11.81,16.871,35.43,43.865,50.614s96.167,57.363,96.167,57.363l86.04,79.294l140.033,140.032
	c0,0,37.116,38.805,65.798,15.184"/>
<path fill="none" stroke="#010101" stroke-linejoin="bevel" stroke-miterlimit="10" d="M401.651,608.2
	c-50.614-45.553,1.688-107.978,21.933-128.223c20.246-20.246,37.117-43.864,84.356-37.117c47.239,6.749,28.682,53.988,28.682,53.988
	"/>
<path fill="none" stroke="#010101" stroke-linejoin="bevel" stroke-miterlimit="10" d="M538.309,466.48
	c0,0-30.421-16.852-53.988-5.062c-20.245,10.124-26.994,1.688-33.742,38.804l1.688,11.812c0,0-28.682-11.812-42.179,23.618
	c-13.498,35.432,5.061,75.921,32.056,65.799"/>
<path fill="none" stroke="#010101" stroke-linejoin="bevel" stroke-miterlimit="10" d="M524.812,596.39l-50.614-57.362
	c0,0-16.871-15.185-35.43-10.122c-18.558,5.062-20.245,30.367-16.871,38.804c3.375,8.435,55.676,65.797,55.676,65.797
	s26.993,23.621,42.179,10.124C534.935,630.132,524.812,596.39,524.812,596.39z"/>
<path fill="none" stroke="#010101" stroke-linejoin="bevel" stroke-miterlimit="10" d="M566.989,520.469L507.94,473.23
	c0,0-25.307-10.124-40.491,16.871c-1.688,16.87,0,23.62,0,23.62l60.736,45.551c0,0,23.62,15.184,32.056,10.124
	C568.677,564.335,597.357,544.089,566.989,520.469z"/>
<path fill="none" stroke="#010101" stroke-linejoin="bevel" stroke-miterlimit="10" d="M523.124,603.139
	c0,0-10.122-30.369-42.178-10.124c-32.056,20.246-3.374,40.491-3.374,40.491"/>
<path fill="none" stroke="#010101" stroke-linejoin="bevel" stroke-miterlimit="10" d="M575.426,528.905
	c0,0-25.308-28.683-45.553-6.749c-20.246,21.933,3.374,37.116,11.81,43.865"/>
<path fill="none" stroke="#010101" stroke-linejoin="bevel" stroke-miterlimit="10" d="M506.253,604.826c0,0-25.307,0-21.933,6.747
	c3.374,6.749,15.185,20.246,20.245,20.246C509.627,631.819,518.063,611.573,506.253,604.826z"/>
<path fill="none" stroke="#010101" stroke-linejoin="bevel" stroke-miterlimit="10" d="M555.18,530.593
	c-10.122-3.375-21.933,8.435-18.558,13.496c3.373,5.062,20.245,13.496,20.245,13.496S565.303,533.967,555.18,530.593z"/>
<line fill="none" stroke="#010101" stroke-linejoin="bevel" stroke-miterlimit="10" x1="501.192" y1="564.335" x2="514.688" y2="550.838"/>
<line fill="none" stroke="#010101" stroke-linejoin="bevel" stroke-miterlimit="10" x1="509.627" y1="576.144" x2="528.186" y2="559.272"/>
<path fill="none" stroke="#010101" stroke-linejoin="bevel" stroke-miterlimit="10" d="M339.227,134.117
	c-11.071-5.036-18.559,8.436-13.496,16.871c5.062,8.436,16.871,26.994,25.307,18.558S357.786,142.552,339.227,134.117z"/>
<path fill="none" stroke="#010101" stroke-linejoin="bevel" stroke-miterlimit="10" d="M146.898,59.883
	c0,0,25.307-6.749,23.62,1.688c-1.687,8.436,0,25.307-6.748,30.368c-6.749,5.062-20.246-1.687-20.246-1.687
	S140.149,61.57,146.898,59.883z"/>
<path fill="none" stroke="#010101" stroke-linejoin="bevel" stroke-miterlimit="10" d="M33.86,59.883
	c0,0,15.184-15.184,18.558-6.749c3.375,8.436,11.81,30.369,6.749,33.743c-5.062,3.375-20.246-8.436-20.246-8.436L33.86,59.883z"/>
<path fill="none" stroke="#010101" stroke-linejoin="bevel" stroke-miterlimit="10" d="M22.05,159.423
	c0,0,20.246-6.749,21.933,1.687s0,21.933,0,21.933L23.737,172.92L22.05,159.423z"/>
<polygon fill="none" stroke="#010101" stroke-linejoin="bevel" stroke-miterlimit="10" points="37.234,289.333 55.793,280.897 
	70.977,294.394 54.105,314.64 "/>
<path fill="none" stroke="#010101" stroke-linejoin="bevel" stroke-miterlimit="10" d="M219.441,407.431
	c15.185,8.437,26.994,15.185,26.994,15.185"/>
<line fill="none" stroke="#010101" stroke-linejoin="bevel" stroke-miterlimit="10" x1="258.245" y1="383.811" x2="268.368" y2="387.186"/>
<line fill="none" stroke="#010101" stroke-linejoin="bevel" stroke-miterlimit="10" x1="254.871" y1="343.321" x2="268.368" y2="353.443"/>
<line fill="none" stroke="#010101" stroke-linejoin="bevel" stroke-miterlimit="10" x1="217.754" y1="370.314" x2="231.251" y2="387.186"/>
<line fill="none" stroke="#010101" stroke-linejoin="bevel" stroke-miterlimit="10" x1="278.491" y1="311.265" x2="286.926" y2="323.075"/>
<line fill="none" stroke="#010101" stroke-linejoin="bevel" stroke-miterlimit="10" x1="337.54" y1="321.388" x2="351.037" y2="334.885"/>
<line fill="none" stroke="#010101" stroke-linejoin="bevel" stroke-miterlimit="10" x1="302.11" y1="334.885" x2="315.607" y2="351.756"/>
<line fill="none" stroke="#010101" stroke-linejoin="bevel" stroke-miterlimit="10" x1="297.049" y1="373.688" x2="320.668" y2="392.247"/>
<line fill="none" stroke="#010101" stroke-linejoin="bevel" stroke-miterlimit="10" x1="379.718" y1="346.694" x2="384.78" y2="373.688"/>
<line fill="none" stroke="#010101" stroke-linejoin="bevel" stroke-miterlimit="10" x1="345.976" y1="368.627" x2="362.847" y2="390.56"/>
<line fill="none" stroke="#010101" stroke-linejoin="bevel" stroke-miterlimit="10" x1="300.424" y1="414.18" x2="322.355" y2="427.677"/>
<line fill="none" stroke="#010101" stroke-linejoin="bevel" stroke-miterlimit="10" x1="268.368" y1="424.302" x2="291.988" y2="454.672"/>
<line fill="none" stroke="#010101" stroke-linejoin="bevel" stroke-miterlimit="10" x1="361.16" y1="427.677" x2="376.345" y2="446.235"/>
<line fill="none" stroke="#010101" stroke-linejoin="bevel" stroke-miterlimit="10" x1="324.043" y1="449.609" x2="347.663" y2="464.793"/>
<line fill="none" stroke="#010101" stroke-linejoin="bevel" stroke-miterlimit="10" x1="305.484" y1="464.793" x2="327.418" y2="491.788"/>
<line fill="none" stroke="#010101" stroke-linejoin="bevel" stroke-miterlimit="10" x1="391.528" y1="392.247" x2="410.087" y2="419.242"/>
<line fill="none" stroke="#010101" stroke-linejoin="bevel" stroke-miterlimit="10" x1="426.958" y1="397.309" x2="437.08" y2="414.18"/>
<line fill="none" stroke="#010101" stroke-linejoin="bevel" stroke-miterlimit="10" x1="405.025" y1="437.801" x2="420.21" y2="456.359"/>
<line fill="none" stroke="#010101" stroke-linejoin="bevel" stroke-miterlimit="10" x1="432.335" y1="422.313" x2="443.513" y2="434.729"/>
<line fill="none" stroke="#010101" stroke-linejoin="bevel" stroke-miterlimit="10" x1="362.847" y1="474.917" x2="379.718" y2="491.788"/>
<line fill="none" stroke="#010101" stroke-linejoin="bevel" stroke-miterlimit="10" x1="342.602" y1="503.598" x2="369.597" y2="517.094"/>
</svg>
