<?xml version="1.0" encoding="utf-8"?>
<!-- Generator: Adobe Illustrator 16.0.0, SVG Export Plug-In . SVG Version: 6.00 Build 0)  -->
<!DOCTYPE svg PUBLIC "-//W3C//DTD SVG 1.1//EN" "http://www.w3.org/Graphics/SVG/1.1/DTD/svg11.dtd">
<svg version="1.1" id="Layer_1" xmlns="http://www.w3.org/2000/svg" xmlns:xlink="http://www.w3.org/1999/xlink" x="0px" y="0px"
	 width="595.28px" height="594px" viewBox="0 0 595.28 594" enable-background="new 0 0 595.28 594" xml:space="preserve">
<g>
	<path fill="none" stroke="#010101" stroke-miterlimit="10" d="M165.692,296.623c-4.859,0.691-19.442,5.549-23.608,11.108
		c-4.167,5.558-6.947,13.892,5.554,26.392c12.5,12.5,18.75,22.916,33.333,28.475c14.583,5.55,16.667,15.276,58.334,15.276
		s61.115-13.191,61.115-13.191s61.805,0.691,78.472,1.382c16.666,0.701,52.78-2.083,68.751-20.832
		c15.972-18.752,20.833-31.943,18.75-38.193s-11.112-17.358-26.388-16.666"/>
	<path fill="none" stroke="#010101" stroke-miterlimit="10" d="M155.275,343.148l-13.191,3.475l15.275,12.5
		c0,0,29.167,25.001,58.334,31.943c29.167,6.949,52.084,14.582,76.393,9.033c24.305-5.56,50.693-15.276,62.501-15.976
		c11.804-0.692,29.168,8.333,53.472-2.775c24.305-11.116,31.254-21.524,36.805-30.559"/>
	<path fill="none" stroke="#010101" stroke-miterlimit="10" d="M171.25,371.623c0,0-19.45,4.168-16.667,6.942
		c2.775,2.783,52.084,32.644,59.026,34.727c6.946,2.083,47.226,17.358,74.31,9.025c27.084-8.336,52.776-20.143,70.834-18.752
		c18.055,1.393,35.418,4.167,43.056-1.383c7.638-5.559,13.887-20.142,14.584-24.309"/>
	<path fill="none" stroke="#010101" stroke-miterlimit="10" d="M198.334,407.041c0,0,21.525,36.118,63.193,35.417
		c41.668-0.69,32.643,2.083,62.501-14.583c25.001-11.108,50.697-5.558,50.697-5.558s11.113-2.775,20.833-17.359"/>
	<path fill="none" stroke="#010101" stroke-miterlimit="10" d="M301.808,440.374c0,0,25.001,4.859,43.75-2.775
		c18.751-7.641,21.529-15.974,21.529-15.974"/>
	<path fill="none" stroke="#010101" stroke-miterlimit="10" d="M422.643,373.708c7.638,9.031,2.084,27.082,1.389,42.366
		c-0.692,15.275-10.418,43.052-21.526,57.635c-11.116,14.583-30.559,31.95-42.363,46.535
		c-11.804,14.583-46.529,34.024-46.529,34.024s-23.609-11.808-59.722-37.501c-54.168-43.751-46.53-97.226-46.53-97.226"/>
	<path fill="none" stroke="#010101" stroke-miterlimit="10" d="M203.889,418.15c0,0-21.529,4.167-30.554,4.167
		c-9.03,0-46.535-20.826-62.501-31.943C94.857,379.266,46.94,306.34,30.969,278.563c-15.972-27.775-15.972-27.775-15.972-27.775
		s85.419-27.776,102.085-36.109c16.667-8.335,69.443-20.14,82.639-20.14c13.196,0,10.417,4.858,10.417,4.858"/>
	<path fill="none" stroke="#010101" stroke-miterlimit="10" d="M427.506,378.565c0,0,43.751-20.134,63.192-40.275
		c19.446-20.143,73.618-73.61,83.335-87.502c4.167-1.392,6.25-4.167,6.25-4.167s-36.809-47.224-98.61-59.724
		c-61.81-12.5-66.667-8.33-68.752-6.942"/>
	<path fill="none" stroke="#010101" stroke-miterlimit="10" d="M218.472,188.98c0,0-6.25-34.721,31.25-86.806
		c37.501-52.084,80.556-78.472,80.556-78.472s26.393,29.859,44.447,52.776s21.529,16.667,29.862,39.584s23.609,31.942,14.584,58.334
		c-2.778,6.25-1.392,4.167-1.392,4.167"/>
	<path fill="none" stroke="#010101" stroke-miterlimit="10" d="M167.775,329.957c0,0,59.727,9.725,100.698,2.083
		c40.972-7.643,34.031-9.025,34.031-9.025s78.477,24.309,146.527-9.726c-13.889,16.668-31.251,20.834-31.251,20.834
		s-60.417,18.058-118.057,9.725c-29.863,3.468-50.005,13.893-74.305,11.108C201.109,352.181,187.226,343.848,167.775,329.957z"/>
	<path fill="none" stroke="#010101" stroke-miterlimit="10" d="M328.892,306.347c0,0,22.913-36.808,40.279-50
		c17.359-13.2,63.885-37.509,75.001-29.867c0.692,13.2-11.808,32.642-15.279,41.667c0,0-13.196,45.833-95.834,38.2
		c37.501-31.95,30.555-34.025,56.25-45.142c25.697-11.108,36.806-4.167,40.281-3.475c3.47,0.7,13.887-9.025,13.887-9.025
		s22.917,20.142-14.584,54.167S365.004,320.931,328.892,306.347z"/>
	<path fill="none" stroke="#010101" stroke-miterlimit="10" d="M280.278,310.514c0,0-9.025,18.051-47.917,11.8
		c-38.888-6.249-76.393-22.909-79.86-54.858c1.387-9.025,6.25-17.367,11.108-18.059c4.863-0.692,1.392,10.425,6.25,13.892
		c4.863,3.475,15.283-16.667,47.918,2.775c32.642,19.45,52.084,34.025,58.334,43.751c6.25,9.726-61.109-7.634-87.502-29.859
		c-26.388-22.225-22.226-17.358-27.776-45.834c3.471-2.775,51.385,4.167,58.335,7.642c0,0,55.555,40.967,59.722,55.552
		C283.057,311.897,280.278,310.514,280.278,310.514z"/>
	<path fill="none" stroke="#010101" stroke-miterlimit="10" d="M430.977,227.18c0,0,14.587-17.365,1.388-31.253
		c-19.443-1.388-31.251,8.329-41.668,11.805c-10.416,3.475-35.417,19.439-44.441,31.248c-9.03,11.809-21.534,19.442-22.918,25
		c-1.392,5.559-6.25,39.584-9.725,43.751c-3.472,4.166-6.942,8.333-7.639-4.167c-0.695-12.501,8.338-47.917,11.806-57.635
		c3.474-9.725,41.667-54.865,50.696-61.116c9.029-6.25,27.087-22.917,34.722-18.054c7.641,4.863,13.2,11.805,12.499,29.863"/>
	<path fill="none" stroke="#010101" stroke-miterlimit="10" d="M280.278,310.514c0,0,10.417,12.492,13.196,1.384
		c2.779-11.108-19.447-53.467-24.305-61.109c-4.863-7.642-19.451-20.134-25.001-27.084c-5.558-6.941-40.975-25.69-54.863-20.832
		c-13.888,4.859-20.138,22.223-16.667,29.165"/>
	<path fill="none" stroke="#010101" stroke-miterlimit="10" d="M208.055,202.873c0,1.388,7.638-21.534,29.167-24.309
		c10.417-1.388,31.25,18.058,41.667,29.863c10.417,11.802,16.671,26.394,20.138,48.612c3.476,22.226,7.642,50,4.167,54.859
		c-3.472,4.866-5.555,5.558-7.638,2.783c-2.083-2.783,14.583-59.726,14.583-79.868c0-20.134-9.029-50-10.417-59.72
		c-1.387-9.721-16.667-15.279-35.417-2.083c-10.417,9.029-10.417,9.029-10.417,9.029"/>
	<path fill="none" stroke="#010101" stroke-miterlimit="10" d="M305.278,191.064c0,0,18.059-29.859,39.584-23.608
		c21.529,6.25,27.084,15.275,27.084,15.275"/>
	<path fill="none" stroke="#010101" stroke-miterlimit="10" d="M127.5,209.123c0,0-25-34.726-15.975-109.728
		c5.558-31.942,7.641-34.722,7.641-34.722s31.943,6.25,52.084,8.333c20.138,2.083,45.139,18.055,51.389,22.222
		s22.221,12.5,22.221,12.5"/>
	<path fill="none" stroke="#010101" stroke-miterlimit="10" d="M383.059,85.508c0,0,32.638-17.363,64.585-23.613
		c31.946-6.25,45.834-7.638,45.834-7.638s11.805,84.727,14.584,94.448c2.778,9.721,2.078,26.392-9.721,39.584"/>
	<path fill="none" stroke="#010101" stroke-miterlimit="10" d="M115,395.232c0,0-36.113,75.002-19.446,127.086
		c8.333,7.641,45.838,10.416,72.222,9.034c26.393-1.394,61.81-11.117,67.364-31.251"/>
	<path fill="none" stroke="#010101" stroke-miterlimit="10" d="M410.144,463.984c0,0,14.578,20.141,48.612,11.808
		c34.025-8.333,65.277-15.974,96.527-80.56c-18.055-25-59.026-59.718-59.026-59.718"/>
	<path fill="none" stroke="#010101" stroke-miterlimit="10" d="M183.055,531.353c0,0,34.03,30.55,34.722,40.966
		c0.695,10.417,45.834-41.667,56.947-40.966"/>
	<path fill="none" stroke="#010101" stroke-miterlimit="10" d="M379.588,498.71c0,0,12.501,13.192,31.25,19.441
		c18.752,6.25,20.139,11.808,20.139,11.808s9.029-38.892,15.279-50.692"/>
	<path fill="none" stroke="#010101" stroke-miterlimit="10" d="M530.979,298.014c0,0,40.972,4.858,45.834,15.967
		c6.946,3.475-2.087,7.643-5.555,11.118c-3.475,3.466-42.358,32.633-49.309,33.333"/>
	<path fill="none" stroke="#010101" stroke-miterlimit="10" d="M97.637,443.851c-0.696,1.383-49.305-20.835-64.584-26.392
		c0-8.334,22.221-34.027,22.221-34.027s20.833-22.226,27.084-23.617"/>
	<path fill="none" stroke="#010101" stroke-miterlimit="10" d="M86.524,226.479c0,0-27.083-43.745-31.25-46.524
		c-4.167-2.779,25.692-4.867,36.809-9.725c11.109-4.859,18.75-6.25,18.75-6.25"/>
	<path fill="none" stroke="#010101" stroke-miterlimit="10" d="M202.501,84.121l13.888-38.197c0,0,50.005,22.226,55.555,27.78"/>
	<path fill="none" stroke="#010101" stroke-miterlimit="10" d="M358.059,57.732c0,0,25.697-15.972,33.333-20.833
		c7.639-4.863,19.446-9.726,19.446-9.726s9.025,14.583,10.417,21.529c1.388,6.946,4.859,18.055,4.859,18.055"/>
	<polyline fill="none" stroke="#010101" stroke-miterlimit="10" points="210.139,333.432 217.085,350.098 224.723,335.515 	"/>
	<polyline fill="none" stroke="#010101" stroke-miterlimit="10" points="255.278,334.822 262.224,344.54 268.473,332.04 	"/>
	<polyline fill="none" stroke="#010101" stroke-miterlimit="10" points="315.004,327.873 320.558,339.682 330.278,330.656 	"/>
	<polyline fill="none" stroke="#010101" stroke-miterlimit="10" points="362.226,332.04 367.779,342.457 378.893,331.348 	"/>
	<line fill="none" stroke="#010101" stroke-miterlimit="10" x1="387.226" y1="277.18" x2="392.089" y2="287.598"/>
	<line fill="none" stroke="#010101" stroke-miterlimit="10" x1="225.419" y1="277.18" x2="219.168" y2="284.122"/>
</g>
</svg>
