<?xml version="1.0" encoding="utf-8"?>
<!-- Generator: Adobe Illustrator 16.0.0, SVG Export Plug-In . SVG Version: 6.00 Build 0)  -->
<!DOCTYPE svg PUBLIC "-//W3C//DTD SVG 1.1//EN" "http://www.w3.org/Graphics/SVG/1.1/DTD/svg11.dtd">
<svg version="1.1" id="Layer_1" xmlns="http://www.w3.org/2000/svg" xmlns:xlink="http://www.w3.org/1999/xlink" x="0px" y="0px"
	 width="595.28px" height="443px" viewBox="0 0 595.28 443" enable-background="new 0 0 595.28 443" xml:space="preserve">
<g>
	<path fill="none" stroke="#010101" stroke-miterlimit="10" d="M91.654,288.454c0,0,32.33,49.38,32.507,54.856
		c0.182,5.477-14.479,26.432-10.263,32.512c4.222,6.07,26.04,13.766,47.504,10.502c11.699,11.307,25.351,26.213,34.929,28.463
		c9.578,2.238,29.841,7.055,48.782-5.994c8.176-7.219,10.507-2.91,10.507-2.91s11.105,15.355,47.681,15.988
		c36.575,0.621,49.533-16.611,49.533-16.611s3.714-20.602,10.119-25.924c6.404-5.332,26.184-15.117,27.112-20.268
		c0.929-5.141,19.846-7.955,29.572-12.303c9.727-4.346,12.417-11.373,12.417-11.373"/>
	<path fill="none" stroke="#010101" stroke-miterlimit="10" d="M392.43,330.846c1.168,2.154-6.409,5.322-4.011,11.459
		c2.393,6.137,2.963,12.332,2.963,12.332"/>
	<path fill="none" stroke="#010101" stroke-miterlimit="10" d="M91.027,347.322c0,0,24.905,1.379,26.25,9.008"/>
	<path fill="none" stroke="#010101" stroke-miterlimit="10" d="M352.834,405.26c0,0,11.977,8.377,28.017,7.113
		c16.041-1.254,35.738-2.633,46.6-16.877c10.865-14.246,12.33-25.266,18.553-36.074c6.228-10.799,7.425-18.889,12.45-21.607
		c5.031-2.729,9.789-2.518,14.365-7.783c4.581-5.265,9.487-11.641,8.979-16.016c-0.507-4.365-2.12-9.066,0.689-12.445
		c2.811-3.389,10.053-5.447,10.053-5.447l6.945-11.201"/>
	<line fill="none" stroke="#010101" stroke-miterlimit="10" x1="471.564" y1="291.689" x2="482.487" y2="301.57"/>
	<path fill="none" stroke="#010101" stroke-miterlimit="10" d="M446.516,363.797c0,0,3.978,21.072,19.783,12.504
		c0,0,32.627-8.367,44.685-52.999s17.328-40.046,15.408-53.88c-1.914-13.824-5.088-21.406-11.526-28.137
		c-6.434-6.73-12.924-15.289-14.667-23.636c-1.732-8.358,11.886-27.812,0.9-39.51c-10.99-11.708-14.25-10.866-18.917-19.492
		c-4.672-8.616-1.948-25.877-19.339-32.253c-17.395-6.378-26.939,3.437-26.939,3.437"/>
	<path fill="none" stroke="#010101" stroke-miterlimit="10" d="M468.232,179.221c-1.556-2.882-13.048-18.946,14.456-16.198"/>
	<path fill="none" stroke="#010101" stroke-miterlimit="10" d="M515.593,307.793c0,0,37.705-9.277,42.286-36.849
		c4.581-27.562,4.548-39.625-1.292-50.395c-5.836-10.78-10.383-15.748-10.383-15.748s17.122-35.288,2.839-58.217
		c-14.279-22.919-53.19-27.861-53.19-27.861s2.785-15.437-7.42-25.705c-10.205-10.272-20.478-22.359-28.228-24.666
		c-7.754-2.303-46.244,5.543-46.244,5.543s-18.199-19.87-39.836-22.086c-21.636-2.216-35.23,7.003-35.23,7.003
		s-4.188-16.309-32.416-18.673c-28.222-2.364-52.405,18.171-52.405,18.171s-15.356-33.493-60.399-36.035
		c-30.798,8.324-36.997,8.894-36.997,8.894s-25.289,20.205-29.146,25.083c-3.863,4.882-7.994,12.694-7.994,12.694
		s-21.128,2.154-33.67,9.875c-12.541,7.726-17.988,19.966-17.988,19.966l-11.728,21.22l-2.872,23.859c0,0-14.04,6.673-16.131,9.669
		c-2.097,2.987-14.035,28.97-14.035,28.97s-3.892,15.116-0.604,26.337c3.293,11.229,12.13,24.096,12.13,24.096"/>
	<path fill="none" stroke="#010101" stroke-miterlimit="10" d="M114.741,379.086c0,0-19.75,21.848-43.675-5.15
		c-23.915-26.996-24.45-43.425-23.584-50.395c0.866-6.979-15.447-2.785-25.533-31.697c-10.09-28.912-4.466-35.682-4.466-35.682
		s2.183-11.401,12.182-18.678c10-7.266,29.242-11.191,29.242-11.191s3.198-24.968,7.448-29.123"/>
	<path fill="none" stroke="#010101" stroke-miterlimit="10" d="M53.279,143.866c0,0,16.514-8.961,23.67-2.613
		c7.156,6.356,10.985,11.708,9.731,17.959c-1.259,6.261-0.632,14.284,2.69,15.27c3.327,0.986,12.273-4.796,12.273-4.796"/>
	<path fill="none" stroke="#010101" stroke-miterlimit="10" d="M87.609,154.071c0,0,19.836-7.965,24.087-12.129"/>
	<path fill="none" stroke="#010101" stroke-miterlimit="10" d="M119.537,68.946c0,0,1.676,28.821,7.333,34.115
		c5.658,5.299,30.621,8.501,30.621,8.501"/>
	<path fill="none" stroke="#010101" stroke-miterlimit="10" d="M170.478,61.79c-3.533,3.768-5.055,12.958-5.055,12.958
		s-26.188,15.116-31.334,14.188c-5.15-0.929-10.722,7.664-10.722,7.664"/>
	<path fill="none" stroke="#010101" stroke-miterlimit="10" d="M116.038,129.372c0,0,5.538-20.652,11.675-23.046"/>
	<polyline fill="none" stroke="#010101" stroke-miterlimit="10" points="215.703,25.209 228.483,69.386 225.372,85.934 
		218.522,111.021 	"/>
	<path fill="none" stroke="#010101" stroke-miterlimit="10" d="M249.144,141.817c0,0-3.418-14.877-3.504-28.761
		c-0.091-13.891-17.845-31.219-17.845-31.219"/>
	<path fill="none" stroke="#010101" stroke-miterlimit="10" d="M276.806,178.464c0,0,21.689-38.275,34.833-54.961
		c13.145-16.684,7.018-31.035,7.018-31.035"/>
	<line fill="none" stroke="#010101" stroke-miterlimit="10" x1="298.375" y1="138.371" x2="287.298" y2="90.486"/>
	<path fill="none" stroke="#010101" stroke-miterlimit="10" d="M413.961,73.896c0,0-12.776,22.713-28.366,26.519
		c-15.596,3.805-30.057-2.307-41.425,29.867"/>
	<path fill="none" stroke="#010101" stroke-miterlimit="10" d="M379.61,140.821c0,0,10.081-37.985-10.722-36.932"/>
	<path fill="none" stroke="#010101" stroke-miterlimit="10" d="M290.721,216.854c0,0,10.139-36.168,45.01-54.128
		c34.867-17.951,53.306-13.078,53.306-13.078"/>
	<path fill="none" stroke="#010101" stroke-miterlimit="10" d="M235.554,195.629c0,0-12.178-25.915-20.712-29.658
		c-8.53-3.734-11.498-16.074-52.051-15.471"/>
	<path fill="none" stroke="#010101" stroke-miterlimit="10" d="M238.124,162.649c0,0-18.371-25.351-27.955-27.591
		c-9.578-2.25-42.114-2.278-42.114-2.278"/>
	<path fill="none" stroke="#010101" stroke-miterlimit="10" d="M294.191,233.55c0,0,22.838-50.462,60.873-60.849
		c38.04-10.397,71.418,15.203,71.418,15.203s-0.148,28.883-38.428,54.262C349.771,267.546,314.784,237.265,294.191,233.55z"/>
	<path fill="none" stroke="#010101" stroke-miterlimit="10" d="M238.967,226.868c0,0-8.387-43.894-41.367-54.607
		c-32.98-10.722-69.771,10.541-69.771,10.541s5.523,45.474,38.035,53.65S229.029,234.22,238.967,226.868z"/>
	<path fill="none" stroke="#010101" stroke-miterlimit="10" d="M165.863,236.451c0,0,26.289-48.902,24.049-61.615
		c-2.25-12.723-23.493,30.376-26.901,60.103"/>
	<path fill="none" stroke="#010101" stroke-miterlimit="10" d="M372.579,249.615c0,0-39.094-55.01-26.131-72.252
		C358.722,161.041,375.662,243.306,372.579,249.615z"/>
	<line fill="none" stroke="#010101" stroke-miterlimit="10" x1="152.681" y1="198.722" x2="129.695" y2="188.871"/>
	<line fill="none" stroke="#010101" stroke-miterlimit="10" x1="157.855" y1="189.407" x2="151.508" y2="174.271"/>
	<line fill="none" stroke="#010101" stroke-miterlimit="10" x1="206.196" y1="203.173" x2="221.667" y2="195.725"/>
	<line fill="none" stroke="#010101" stroke-miterlimit="10" x1="194.254" y1="229.156" x2="198.595" y2="238.883"/>
	<line fill="none" stroke="#010101" stroke-miterlimit="10" x1="216.641" y1="220.741" x2="220.681" y2="243.641"/>
	<line fill="none" stroke="#010101" stroke-miterlimit="10" x1="332.317" y1="214.748" x2="305.144" y2="210.89"/>
	<line fill="none" stroke="#010101" stroke-miterlimit="10" x1="388.198" y1="190.986" x2="401.161" y2="173.745"/>
	<line fill="none" stroke="#010101" stroke-miterlimit="10" x1="406.307" y1="196.97" x2="418.729" y2="185.597"/>
	<line fill="none" stroke="#010101" stroke-miterlimit="10" x1="385.719" y1="215.562" x2="392.545" y2="245.307"/>
	<line fill="none" stroke="#010101" stroke-miterlimit="10" x1="399.093" y1="211.1" x2="410.021" y2="220.971"/>
	<line fill="none" stroke="#010101" stroke-miterlimit="10" x1="332.141" y1="231.568" x2="325.262" y2="244.588"/>
	<path fill="none" stroke="#010101" stroke-miterlimit="10" d="M159.895,251.49c0,0-40.707-15.115-49.328-55.047"/>
	<path fill="none" stroke="#010101" stroke-miterlimit="10" d="M103.023,233.981c0,0-22.622-21.186-18.137-40.343"/>
	<path fill="none" stroke="#010101" stroke-miterlimit="10" d="M435.851,239.496c0,0,19.602-15.271,20.559-30.646"/>
	<path fill="none" stroke="#010101" stroke-miterlimit="10" d="M458.151,261.792c0,0,32.828-13.145,31.784-33.938"/>
	<path fill="none" stroke="#010101" stroke-miterlimit="10" d="M423.821,251.586c0,0-11.646,12.811-31.339,14.189
		c-19.688,1.378-21.909,0.717-26.935,3.445c-5.031,2.729-4.462,8.923-14.246,11.441c-9.789,2.508-40.553,0.593-40.553,0.593
		s-15.897-5.323-21.043-6.251c-5.15-0.93-29.903,13.412-42.473,9.075c-12.57-4.347-22.206-8.415-29.185-9.276
		c-6.97-0.871-23.791-1.053-38.069-1.676c-14.279-0.632-22.837,5.869-58.398-30.615c27.031,32.74,32.689,38.035,34.694,43.453
		c0,0,27.356,9.334,30.77,24.211c3.413,14.878,20.741,19.426,20.741,19.426c14.729,3.168,28.682,4.91,32.119,9.545
		c3.437,4.643-4.04-0.594,2.245,12.723c6.285,13.316,12.604,16.398,23.556,16.035c10.952-0.354,14.097-4.844,15.624-14.035
		c1.522-9.189,4.845-30.5,4.845-30.5s2.12-40.362-22.594-9.124c-3.863,4.873-0.479,7.688-0.479,7.688s2.633-31.151-19.903-16.159
		c-7.4,8.654,1.876,24.058-1.202,30.377c-3.078,6.318,3.447,49.236,41.065,26.068c-1.733-8.35,5.476-22.479,5.476-22.479
		s8.114-9.039,17.692-6.789c9.573,2.24,30.946,7.383,43.817-1.445c12.867-8.826,9.43-13.46,19.875-18.199
		c10.439-4.729,18.85-4.643,29.927-23.646c11.076-19.003-0.148-15.709,12-24.154C423.998,257.063,423.821,251.586,423.821,251.586z"
		/>
	<path fill="none" stroke="#010101" stroke-miterlimit="10" d="M292.368,278.201c0,0-5.146,21.367,8.353,20.564
		c13.498-0.805,10.028-17.511,10.028-17.511"/>
	<path fill="none" stroke="#010101" stroke-miterlimit="10" d="M225.86,278.929c0,0-3.437,17.653,7.908,18.017
		c11.345,0.364,13.465-12.866,13.465-12.866"/>
</g>
</svg>
