<?xml version="1.0" encoding="utf-8"?>
<!-- Generator: Adobe Illustrator 16.0.0, SVG Export Plug-In . SVG Version: 6.00 Build 0)  -->
<!DOCTYPE svg PUBLIC "-//W3C//DTD SVG 1.1//EN" "http://www.w3.org/Graphics/SVG/1.1/DTD/svg11.dtd">
<svg version="1.1" id="Layer_1" xmlns="http://www.w3.org/2000/svg" xmlns:xlink="http://www.w3.org/1999/xlink" x="0px" y="0px"
	 width="595.28px" height="841.89px" viewBox="0 0 595.28 841.89" enable-background="new 0 0 595.28 841.89" xml:space="preserve">
<path fill="none" stroke="#010101" stroke-linejoin="bevel" stroke-miterlimit="10" d="M485.597,507.171l58.273-71.172
	c0,0,42.379,57.288,38.876,125.513c-3.51,68.217-31.785,115.793-60.148,138.449c-28.362,22.654-121.523,104.981-201.114,117.726
	c-79.6,12.742-145.032,29.369-206.362-34.516c-61.325-63.877-96.747-156.617-41.64-286.764
	c19.845,23.437,53.605,61.758,61.774,72.304c8.173,10.547,30.563-76.011,30.563-76.011l62.51,54.52l9.811-60.945
	c0,0,60.563,26.307,62.307,35.086c1.742,8.778,51.338-50.939,53.808-59.938c2.471-8.997,46.796,76.496,46.796,76.496
	s56.74-60.524,59.086-64.026C462.488,470.382,485.597,507.171,485.597,507.171z"/>
<path fill="none" stroke="#010101" stroke-linejoin="bevel" stroke-miterlimit="10" d="M485.597,507.171
	c0,0,48.774-122.196,48.212-140.341c-0.547-18.145-11.508-119.382-16.495-141.506c-4.995-22.124-35.445-77.527-58.929-97.807
	c-23.484-20.286-69.076-50.79-79.458-63.322c-10.398-12.54-52.004-47.476-82.906-40.746c-30.903,6.731-55.826,6.81-55.826,6.81
	s6.88,10.194,14.838,16.526c7.943,6.332,50.596,37.407,53.753,41.042c3.151,3.635,20.077,27.651,20.077,27.651"/>
<path fill="none" stroke="#010101" stroke-linejoin="bevel" stroke-miterlimit="10" d="M447.135,208.82
	c0,0-18.215-24.367-28.964-35.617c-10.75-11.258-43.146-24.297-52.723-29.691c-9.592-5.41-61.618-37.673-70.842-44.349
	c-9.241-6.692-29.816-12.344-30.426-0.055c-0.61,12.281,17.363,47.648,17.363,47.648l7.012,4.698"/>
<path fill="none" stroke="#010101" stroke-linejoin="bevel" stroke-miterlimit="10" d="M418.984,250.903
	c-3.519-2.346-39.261-38.448-48.72-49.345c-9.46-10.897-40.417-44.302-59.837-44.099c-19.426,0.195-39.079-3.815-48.695,6.004
	c-9.608,9.811,4.87,27.62,14.454,33.021c9.584,5.394,60.321,37.313,60.321,37.313s33.085,25.681,33.17,35.398
	c0.102,9.709,13.267,42.38,9.866,49.744c-3.408,7.364-9.491,74.877-9.491,74.877l-34.631-70.39c0,0-9.913-19.325-17.159-28.229
	c-7.239-8.904-11.649-28.096-23.125-21.561c-11.484,6.527-12.109,34.021-15.869,42.676c-3.768,8.654,5.667,34.765,4.486,44.123
	c-1.188,9.365,42.325,87.721,40.183,110.649c-2.142,22.93-15.643,46.906-15.643,46.906"/>
<path fill="none" stroke="#010101" stroke-linejoin="bevel" stroke-miterlimit="10" d="M259.661,493.562
	c0,0,3.588-43.288,6.176-57.797c2.604-14.508,17.418-53.323,15.792-67.606c-1.611-14.282-14.62-67.661-21.162-79.137
	c-6.528-11.484-17.23,17.402-29.184,30.724c-11.961,13.313-30.059,54.003-27.729,65.723c0,0-5.699-19.56-14.103-34.32
	c-8.405-14.752-11.969-57.24,16.072-93.811c28.026-36.586,40.339-51.19,41.778-71.547c1.438-20.356,1.438-20.356,1.438-20.356
	s-35.797-5.684-66.176,34.405c-30.364,40.081-46.519,108.985-46.519,108.985l-1.99,72.774"/>
<path fill="none" stroke="#010101" stroke-linejoin="bevel" stroke-miterlimit="10" d="M230.83,170.193
	c0,0,26.635-46.647,27.956-61.501c1.306-14.861,2.751-35.218-8.021-31.255c-10.773,3.956-41.957,36.899-41.957,36.899
	s-44.63,26.485-59.64,45.889c-15.01,19.403-54.723,77.605-67.943,181.97c-2.373,18.716-5.75,10.866-5.75,10.866"/>
<path fill="none" stroke="#010101" stroke-linejoin="bevel" stroke-miterlimit="10" d="M215.367,110.608
	c0,0,34.992-72.031,12.993-72.532c-21.999-0.5-37.134,24.399-37.134,24.399s-51.318,35.711-65.136,45.757
	C112.26,118.269,66.75,183.257,50.201,213.3c-16.554,30.051-34.636,70.733-26.897,128.208c7.739,57.467,13.642,96.446,13.642,96.446
	l36.536,58.453"/>
<path fill="none" stroke="#010101" stroke-linejoin="bevel" stroke-miterlimit="10" d="M307.849,297.878l-17.457,13.188
	c0,0,11.422,23.892,15.636,23.665c4.214-0.227,13.595-14.252,13.595-14.252S319.779,299.763,307.849,297.878z"/>
<path fill="none" stroke="#010101" stroke-linejoin="bevel" stroke-miterlimit="10" d="M249.444,303.976
	c0,0,16.346,21.092,12.938,28.456c-3.408,7.364-20.028,12.492-20.028,12.492l-15.885-12.664"/>
<path fill="none" stroke="#010101" stroke-linejoin="bevel" stroke-miterlimit="10" d="M242.838,197.016
	c0.727,4.151-21.545,7.912-22.703,2.064c-1.157-5.855-1.97-12.993-1.97-12.993S234.254,147.616,242.838,197.016z"/>
<path fill="none" stroke="#010101" stroke-linejoin="bevel" stroke-miterlimit="10" d="M269.527,190.503
	c0,0,14.024,9.389,19.779-1.485c5.753-10.875,6.832-29.95,6.832-29.95S270.184,147.788,269.527,190.503z"/>
<path fill="none" stroke="#010101" stroke-linejoin="bevel" stroke-miterlimit="10" d="M295.763,105.002
	c0,0-5.191,29.019-25.298,16.582"/>
<path fill="none" stroke="#010101" stroke-linejoin="bevel" stroke-miterlimit="10" d="M280.284,60.629
	c0,0,20.225,6.943,22.124-4.987c1.893-11.938,7.333-51.947-26.423-19.708C253.485,57.425,280.284,60.629,280.284,60.629z"/>
<path fill="none" stroke="#010101" stroke-linejoin="bevel" stroke-miterlimit="10" d="M250.334,124.359
	c0,0-20.489,4.057-23.163-6.355c-2.673-10.421-2.064-22.71-2.064-22.71"/>
<path fill="none" stroke="#010101" stroke-linejoin="bevel" stroke-miterlimit="10" d="M217.462,47.535
	c0,0,17.401,17.23,12.711,24.25c-4.691,7.012-12.681,31.106-20.639,24.774c-7.942-6.332-15.635-23.671-15.635-23.671L217.462,47.535
	z"/>
<path fill="none" stroke="#010101" stroke-linejoin="bevel" stroke-miterlimit="10" d="M350.096,713.47
	c0,0,1.704-46.562-31.06-43.106s-67.662,14.618-73.541,30.998c-5.878,16.377-5.582,45.505,19.231,50.93
	C289.516,757.725,350.11,768.811,350.096,713.47z"/>
<polyline fill="none" stroke="#010101" stroke-linejoin="bevel" stroke-miterlimit="10" points="340.581,732.998 313.946,709.083 
	294.465,739.705 274.123,723.054 260.631,747.023 "/>
<polyline fill="none" stroke="#010101" stroke-linejoin="bevel" stroke-miterlimit="10" points="256.621,696.114 278.923,725.759 
	294.465,739.705 319.036,670.363 "/>
<path fill="none" stroke="#010101" stroke-linejoin="bevel" stroke-miterlimit="10" d="M393.717,660.419
	c-0.813-7.137-9.334-16.393-12.038-11.602c-2.698,4.794-13.822,10.038-11.728,17.536c2.087,7.489,14.15,3.885,14.15,3.885
	L393.717,660.419z"/>
<path fill="none" stroke="#010101" stroke-linejoin="bevel" stroke-miterlimit="10" d="M187.599,685.467
	c0,0,1.798-21.639-3.354-23.054c-5.152-1.415-19.552,5.698-20.967,10.843s9.459,10.897,9.459,10.897L187.599,685.467z"/>
</svg>
