<?xml version="1.0" encoding="utf-8"?>
<!-- Generator: Adobe Illustrator 16.0.0, SVG Export Plug-In . SVG Version: 6.00 Build 0)  -->
<!DOCTYPE svg PUBLIC "-//W3C//DTD SVG 1.1//EN" "http://www.w3.org/Graphics/SVG/1.1/DTD/svg11.dtd">
<svg version="1.1" id="Layer_1" xmlns="http://www.w3.org/2000/svg" xmlns:xlink="http://www.w3.org/1999/xlink" x="0px" y="0px"
	 width="595.28px" height="733px" viewBox="0 0 595.28 733" enable-background="new 0 0 595.28 733" xml:space="preserve">
<path fill="none" stroke="#010101" stroke-linejoin="bevel" stroke-miterlimit="10" d="M187.652,563.629
	c0,0-9.361,114.668,18.721,126.369c28.082,11.699,91.267,2.34,105.308,7.02s84.246,11.701,100.627,0s21.062-39.783,21.062-39.783
	l4.681-53.822l-7.021-49.145c0,0,65.524-44.463,79.565-58.504s42.123-58.504,42.123-58.504l30.422-98.287
	c0,0-11.701-95.947-14.041-102.967s-7.021-74.885-16.381-84.246S503.574,81.555,428.688,51.133
	C353.804,20.71,269.558,25.391,239.136,25.391c-30.422,0-126.369,65.524-142.75,81.905c-16.381,16.382-44.463,84.246-44.463,84.246
	l-25.742,79.566L12.14,350.674c0,0,18.721,79.564,25.742,95.947c7.021,16.381,30.422,63.184,46.803,77.225
	C101.066,537.887,180.631,547.248,187.652,563.629z"/>
<path fill="none" stroke="#010101" stroke-linejoin="bevel" stroke-miterlimit="10" d="M243.816,345.994
	c-6.49-11.536-77.225-53.824-77.225-53.824s-63.185-28.082-84.246-9.361s0,93.606,25.742,112.328
	c25.742,18.721,63.184,39.783,93.606,25.742S264.877,383.436,243.816,345.994z"/>
<path fill="none" stroke="#010101" stroke-linejoin="bevel" stroke-miterlimit="10" d="M400.607,409.178
	c0,0-37.443-11.701-23.402-58.503c14.041-46.804,53.824-70.206,67.865-77.226s60.844-9.36,60.844-9.36l16.381,28.082
	c0,0,0,49.143-14.041,70.205s-35.102,53.823-58.504,58.504C426.349,425.559,400.607,409.178,400.607,409.178z"/>
<line fill="none" stroke="#010101" stroke-linejoin="bevel" stroke-miterlimit="10" x1="166.591" y1="292.17" x2="164.25" y2="317.912"/>
<line fill="none" stroke="#010101" stroke-linejoin="bevel" stroke-miterlimit="10" x1="119.787" y1="301.53" x2="82.345" y2="282.809"/>
<line fill="none" stroke="#010101" stroke-linejoin="bevel" stroke-miterlimit="10" x1="110.427" y1="343.653" x2="82.345" y2="343.653"/>
<line fill="none" stroke="#010101" stroke-linejoin="bevel" stroke-miterlimit="10" x1="124.468" y1="378.756" x2="108.086" y2="395.137"/>
<path fill="none" stroke="#010101" stroke-linejoin="bevel" stroke-miterlimit="10" d="M452.091,308.551
	c0,0,7.021-39.783-7.021-35.103"/>
<line fill="none" stroke="#010101" stroke-linejoin="bevel" stroke-miterlimit="10" x1="473.152" y1="301.53" x2="489.533" y2="268.768"/>
<line fill="none" stroke="#010101" stroke-linejoin="bevel" stroke-miterlimit="10" x1="496.554" y1="320.251" x2="519.955" y2="308.551"/>
<line fill="none" stroke="#010101" stroke-linejoin="bevel" stroke-miterlimit="10" x1="489.533" y1="353.014" x2="510.595" y2="350.674"/>
<path fill="none" stroke="#010101" stroke-linejoin="bevel" stroke-miterlimit="10" d="M384.226,388.115
	c0,0,23.401-18.72,32.763-4.679c9.36,14.041,4.68,25.742,4.68,25.742"/>
<path fill="none" stroke="#010101" stroke-linejoin="bevel" stroke-miterlimit="10" d="M201.693,420.879
	c0,0-21.062-32.764,9.361-39.783c30.422-7.021,23.401,11.701,23.401,11.701"/>
<path fill="none" stroke="#010101" stroke-linejoin="bevel" stroke-miterlimit="10" d="M241.476,420.879
	c0,0-39.783,35.102-51.483,42.123c-11.701,7.02-35.103,9.359-35.103,9.359"/>
<path fill="none" stroke="#010101" stroke-linejoin="bevel" stroke-miterlimit="10" d="M372.525,416.197
	c0,0,18.721,42.123,42.123,46.805c23.401,4.68,39.782,11.701,39.782,11.701"/>
<path fill="none" stroke="#010101" stroke-linejoin="bevel" stroke-miterlimit="10" d="M318.701,444.279
	c0,0-18.722,67.865-81.906,79.566c-63.185,11.701,131.049-2.34,131.049-2.34S316.361,514.484,318.701,444.279z"/>
<path fill="none" stroke="#010101" stroke-linejoin="bevel" stroke-miterlimit="10" d="M346.783,343.653
	c0,0-14.041-58.503,100.627-142.75"/>
<path fill="none" stroke="#010101" stroke-linejoin="bevel" stroke-miterlimit="10" d="M267.218,315.571
	c0,0,11.7-70.205-140.41-138.07"/>
<line fill="none" stroke="#010101" stroke-linejoin="bevel" stroke-miterlimit="10" x1="370.185" y1="268.768" x2="353.804" y2="245.366"/>
<line fill="none" stroke="#010101" stroke-linejoin="bevel" stroke-miterlimit="10" x1="398.267" y1="240.686" x2="386.566" y2="226.645"/>
<line fill="none" stroke="#010101" stroke-linejoin="bevel" stroke-miterlimit="10" x1="424.009" y1="210.264" x2="419.328" y2="182.182"/>
<line fill="none" stroke="#010101" stroke-linejoin="bevel" stroke-miterlimit="10" x1="243.816" y1="252.387" x2="267.218" y2="233.666"/>
<line fill="none" stroke="#010101" stroke-linejoin="bevel" stroke-miterlimit="10" x1="225.095" y1="231.325" x2="241.476" y2="200.903"/>
<line fill="none" stroke="#010101" stroke-linejoin="bevel" stroke-miterlimit="10" x1="199.353" y1="210.264" x2="208.713" y2="168.141"/>
<line fill="none" stroke="#010101" stroke-linejoin="bevel" stroke-miterlimit="10" x1="166.591" y1="193.883" x2="166.591" y2="154.1"/>
<path fill="none" stroke="#010101" stroke-linejoin="bevel" stroke-miterlimit="10" d="M189.992,622.133
	c0,0,154.451-14.041,168.492-16.381s79.565-2.34,79.565-2.34s-42.123,11.699-63.185,23.4s-46.804,14.041-91.267,7.021
	c-44.463-7.021-56.164-21.063-56.164-21.063"/>
<line fill="none" stroke="#010101" stroke-linejoin="bevel" stroke-miterlimit="10" x1="278.918" y1="612.771" x2="283.599" y2="633.834"/>
<line fill="none" stroke="#010101" stroke-linejoin="bevel" stroke-miterlimit="10" x1="314.021" y1="608.092" x2="323.381" y2="636.174"/>
<line fill="none" stroke="#010101" stroke-linejoin="bevel" stroke-miterlimit="10" x1="358.484" y1="605.752" x2="360.824" y2="633.834"/>
</svg>
