<?xml version="1.0" encoding="utf-8"?>
<!-- Generator: Adobe Illustrator 16.0.0, SVG Export Plug-In . SVG Version: 6.00 Build 0)  -->
<!DOCTYPE svg PUBLIC "-//W3C//DTD SVG 1.1//EN" "http://www.w3.org/Graphics/SVG/1.1/DTD/svg11.dtd">
<svg version="1.1" id="Layer_1" xmlns="http://www.w3.org/2000/svg" xmlns:xlink="http://www.w3.org/1999/xlink" x="0px" y="0px"
	 width="516px" height="841.89px" viewBox="0 0 516 841.89" enable-background="new 0 0 516 841.89" xml:space="preserve">
<path fill="none" stroke="#010101" stroke-miterlimit="10" d="M363.963,592.287c0,0,8.722-73.769-22.587-109.373
	c-5.247,3.097-21.155,25.24-21.155,25.24l-16.506-30.919l-18.408,19.727l-11.875-36.836l-28.668,40.649l-11.08-46.858
	c0,0-50.207,77.795-39.071,115.772"/>
<path fill="none" stroke="#010101" stroke-miterlimit="10" d="M331.091,490.053c0,0,0.321-16.812,32.563-45.43
	c32.245-28.618,52.694-75.375,40.283-110.122c-12.411-34.75-23.056-52.152-23.056-52.152s44.098-19.35,26.39-92.358
	c-13.883,31.551-36.989,52.294-36.989,52.294s-8.665-49.35-40.882-57.18c9.093,14.786,7.221,79.197,8.563,80.884
	c1.342,1.681-56.734-43.911-62.122-50.63c-5.393-6.713-8.186,21.459-4.535,38.4c3.655,16.94,20.483,31.044,53.586,47.544
	c33.102,16.506,22.106,52.361,5.668,76.588c-16.443,24.226-45.552,35.421-54.686,43.299c-9.133,7.875-33.452,22.968-30.643,72.59"/>
<path fill="none" stroke="#010101" stroke-miterlimit="10" d="M418.316,666.259c8.592-16.405,6.707-69.407-66.459-75.303
	c-73.167-5.897-107.087,24.069-105.841,57.281c1.247,33.213,33.278,53.885,70.334,56.736
	C353.408,707.822,397.381,706.227,418.316,666.259z"/>
<path fill="none" stroke="#010101" stroke-miterlimit="10" d="M222.758,659.158c8.479-16.549,18.097-53.14-49.75-107.462
	c-67.841-54.322-69.122-0.868-71.931,13.528c-2.804,14.396,4.603,80.756,47.189,100.136
	C190.851,684.744,210.279,683.518,222.758,659.158z"/>
<path fill="none" stroke="#010101" stroke-miterlimit="10" d="M302,565.264c0,0-21.883-23.843-21.087-33.867
	c0.795-10.021-5.625-35.229-0.254-42.295"/>
<path fill="none" stroke="#010101" stroke-miterlimit="10" d="M259.837,561.543c0.327-3.023,21.076-30.146,21.076-30.146"/>
<path fill="none" stroke="#010101" stroke-miterlimit="10" d="M355.997,450.217l39.286,13.197l-11.345-38.921l37.188-1.117
	l-20.411-26.136c0,0,26.621-13.612,31.986-20.678c5.37-7.068-26.847-14.898-26.847-14.898s21.413-33.17,27.061-34.389
	c5.647-1.218-31.28-8.033-31.28-8.033l23.705-31.698c0,0-37.391,0.18-44.459-5.195"/>
<polyline fill="none" stroke="#010101" stroke-linejoin="bevel" stroke-miterlimit="10" points="295.692,408.054 291.699,380.356 
	323.713,387.244 306.005,364.467 344.388,355.216 314.788,345.834 337.748,315.282 303.539,325.611 307.805,295.143 "/>
<polyline fill="none" stroke="#010101" stroke-linejoin="bevel" stroke-miterlimit="10" points="381.422,230.032 367.274,205.509 
	400.292,203.315 376.729,180.812 407.191,185.088 "/>
<polyline fill="none" stroke="#010101" stroke-linejoin="bevel" stroke-miterlimit="10" points="328.942,256.117 323.888,246.369 
	336.716,232.773 316.531,221.367 332.378,208.099 313.079,205.369 324.818,182.155 "/>
<polyline fill="none" stroke="#010101" stroke-linejoin="bevel" stroke-miterlimit="10" points="293.069,231.346 297.949,203.699 
	280.416,218.315 "/>
<path fill="none" stroke="#010101" stroke-linejoin="bevel" stroke-miterlimit="10" d="M233.758,687.316
	c0,0,8.327,52.367-24.539,64.378"/>
<path fill="none" stroke="#010101" stroke-linejoin="bevel" stroke-miterlimit="10" d="M210.093,696.357
	c0,0-11.801,32.084-33.645,35.808"/>
<path fill="none" stroke="#010101" stroke-linejoin="bevel" stroke-miterlimit="10" d="M166.875,710.592
	c0,0-30.513,18.392-36.617,26.604"/>
<path fill="none" stroke="#010101" stroke-linejoin="bevel" stroke-miterlimit="10" d="M135.917,685.751
	c0,0-29.577,4.4-35.083,15.438"/>
<path fill="none" stroke="#010101" stroke-linejoin="bevel" stroke-miterlimit="10" d="M119.016,666.743
	c0,0-40.82-2.042-48.074,5.43"/>
<path fill="none" stroke="#010101" stroke-linejoin="bevel" stroke-miterlimit="10" d="M69.103,649.922
	c0,0-24.381,23.966-38.716,12.283c-14.334-11.684-15.632-22.24-15.632-22.24"/>
<line fill="none" stroke="#010101" stroke-linejoin="bevel" stroke-miterlimit="10" x1="99.018" y1="642.489" x2="48.218" y2="616.999"/>
<path fill="none" stroke="#010101" stroke-linejoin="bevel" stroke-miterlimit="10" d="M102.56,626.95
	c0,0-20.737-6.448-46.771-34.239c-7.677-8.191-7.677-8.191-7.677-8.191"/>
<path fill="none" stroke="#010101" stroke-linejoin="bevel" stroke-miterlimit="10" d="M55.27,722.823c0,0,28.201-33.647,39.9-34.2"
	/>
<path fill="none" stroke="#010101" stroke-linejoin="bevel" stroke-miterlimit="10" d="M80.323,756.822
	c0,0,11.395-33.972,49.169-46.049"/>
<path fill="none" stroke="#010101" stroke-linejoin="bevel" stroke-miterlimit="10" d="M142.15,787.815
	c0,0-0.383-38.332,14.531-51.392"/>
<path fill="none" stroke="#010101" stroke-linejoin="bevel" stroke-miterlimit="10" d="M193.745,803.289
	c0,0-26.187-20.946-5.585-57.891"/>
<path fill="none" stroke="#010101" stroke-linejoin="bevel" stroke-miterlimit="10" d="M261.693,792.684
	c0,0-17.702-27.095-10.667-42.096"/>
<line fill="none" stroke="#010101" stroke-linejoin="bevel" stroke-miterlimit="10" x1="302.473" y1="800.541" x2="282.864" y2="764.388"/>
<path fill="none" stroke="#010101" stroke-linejoin="bevel" stroke-miterlimit="10" d="M267.002,713.639
	c0,0,19.53,31.247,23.241,39.308"/>
<path fill="none" stroke="#010101" stroke-linejoin="bevel" stroke-miterlimit="10" d="M329.319,815.439
	c0,0,27.666-31.568,0.486-43.437"/>
<line fill="none" stroke="#010101" stroke-linejoin="bevel" stroke-miterlimit="10" x1="321.117" y1="759.102" x2="297.667" y2="718.846"/>
<line fill="none" stroke="#010101" stroke-linejoin="bevel" stroke-miterlimit="10" x1="356.624" y1="759.326" x2="340.038" y2="723.505"/>
<path fill="none" stroke="#010101" stroke-linejoin="bevel" stroke-miterlimit="10" d="M419.607,740.829
	c0,0-23.597,0.164-38.14-12.461c-14.537-12.625-21.668-9.122-21.668-9.122"/>
<path fill="none" stroke="#010101" stroke-linejoin="bevel" stroke-miterlimit="10" d="M394.426,710.801
	c0,0,50.596,24.551,73.589,21.566"/>
<line fill="none" stroke="#010101" stroke-linejoin="bevel" stroke-miterlimit="10" x1="438.128" y1="703.354" x2="491.505" y2="699.727"/>
<path fill="none" stroke="#010101" stroke-linejoin="bevel" stroke-miterlimit="10" d="M414.378,693.7l46.851-11.086
	c0,0,18.554-9.899,23.665-9.033"/>
<path fill="none" stroke="#010101" stroke-linejoin="bevel" stroke-miterlimit="10" d="M476.127,655.768
	c0,0-31.721,12.75-36.357,18.674"/>
<path fill="none" stroke="#010101" stroke-linejoin="bevel" stroke-miterlimit="10" d="M430.529,649.839
	c0,0,38.501-27.01,45.423-31.457"/>
<line fill="none" stroke="#010101" stroke-linejoin="bevel" stroke-miterlimit="10" x1="427.003" y1="564.917" x2="393.483" y2="596.759"/>
<polyline fill="none" stroke="#010101" stroke-linejoin="bevel" stroke-miterlimit="10" points="179.913,647.71 184.736,628.944 
	161.855,614.173 "/>
<path fill="none" stroke="#010101" stroke-linejoin="bevel" stroke-miterlimit="10" d="M164.117,652.096l-21.403-17.054
	c0,0,22.43-28.468,29.019-29.887c6.583-1.419-14.521-49.075-10.696-58.762"/>
<path fill="none" stroke="#010101" stroke-linejoin="bevel" stroke-miterlimit="10" d="M354.463,118.641
	c0,0,27.925,10.724,33.627,0.631c5.704-10.092,1.58-33.825-8.185-42.551c-9.766-8.727-48.656-33.831-46.586-47.082
	c2.065-13.251,2.065-13.251,2.065-13.251s-14.233,20.799,19.236,61.845C388.09,119.272,362.45,110.026,354.463,118.641z"/>
<path fill="none" stroke="#010101" stroke-linejoin="bevel" stroke-miterlimit="10" d="M309.757,121.382l12.535-33.226
	c0,0,7.563,25.938,13.481,30.575c5.924,4.632,17.364,12.016,7.559,25.95c-9.798,13.928-20.082,21.064-20.082,21.064
	s-5.698,10.098-8.32,11.649c-2.618,1.552-19.022,3.108-25.223-7.373c-6.205-10.481-1.438-20.37-1.438-20.37l-5.225,16.884
	c0,0-9.358-6.854-9.838-13.64c-0.474-6.787-0.835-31.332,2.042-40.82c2.877-9.482,11.074-17.155,9.912-31.681
	c-1.162-14.521-9.85-27.422-9.85-27.422l30.7,32.781C306.011,85.752,310.682,107.392,309.757,121.382z"/>
</svg>
