<?xml version="1.0" encoding="utf-8"?>
<!-- Generator: Adobe Illustrator 16.0.0, SVG Export Plug-In . SVG Version: 6.00 Build 0)  -->
<!DOCTYPE svg PUBLIC "-//W3C//DTD SVG 1.1//EN" "http://www.w3.org/Graphics/SVG/1.1/DTD/svg11.dtd">
<svg version="1.1" id="Layer_1" xmlns="http://www.w3.org/2000/svg" xmlns:xlink="http://www.w3.org/1999/xlink" x="0px" y="0px"
	 width="595.28px" height="841.89px" viewBox="0 0 595.28 841.89" enable-background="new 0 0 595.28 841.89" xml:space="preserve">
<path fill="none" stroke="#010101" stroke-miterlimit="10" d="M463.03,509.313c60.317-47.789,55.985-83.371,46.97-111.377
	c-9.016-27.993-34.804-149.591-34.647-154.021c0.143-4.424,6.083-16.403,7.835-35.173c-31.002,0.059-143.754,58.257-194.992,99.711
	c-137.722-86.629-208.82-80.182-208.82-80.182s12.751,15.936,3.113,38.87c-9.651,22.931-88.052,114.424-29.472,182.863
	c58.594,68.439,104.838,76.65,104.838,76.65"/>
<path fill="none" stroke="#010101" stroke-miterlimit="10" d="M129.355,517.938c-0.117,3.32,12.297,94.564,37.684,129.756
	c25.385,35.193,44.168,69.051,94.032,68.531"/>
<path fill="none" stroke="#010101" stroke-miterlimit="10" d="M482.317,495.574c0,0,18.628,103.631-46.71,168.984
	c-44.87,49.422-74.485,40.666-74.485,40.666"/>
<path fill="none" stroke="#010101" stroke-miterlimit="10" d="M213.166,593.875c0,0,53.548-11.469,64.341-35.467
	c10.779-24.01,19.457-51.406,19.457-51.406s11.662,48.035,38.825,63.355c27.176,15.307,51.485,17.238,51.485,17.238"/>
<path fill="none" stroke="#010101" stroke-miterlimit="10" d="M264.729,575.688c0,0,1.946,138.514,0.895,169.49
	s-5.721,70.697-11.623,81.566c-5.902,10.869,53.353-38.061,68.205-84.07c18.2,18.33,45.428,64.664,93.462,85.121
	C384.136,777.996,370.981,741,361.382,697.48c-9.586-43.521-29.316-49.721-25.593-127.123"/>
<path fill="none" stroke="#010101" stroke-miterlimit="10" d="M296.665,515.861c0,0-6.939,139.318,1.92,171.734"/>
<path fill="none" stroke="#010101" stroke-miterlimit="10" d="M408.185,689.1c0,0,17.421-89.115,23.439-103.32"/>
<path fill="none" stroke="#010101" stroke-miterlimit="10" d="M240.135,713.305c0,0-30.834-70.824-42.366-90.049"/>
<path fill="none" stroke="#010101" stroke-miterlimit="10" d="M431.857,317.753c0,0-36.918,10.936-53.962,23.647
	c-17.045,12.716-32.144,33.25-38.085,45.223c-5.941,11.986-6.071,48.529-6.188,51.849c-0.117,3.32,23.518,25.164,47.748,29.316
	c24.219,4.137,50.812,3.943,60.15-10.145c9.327-14.088,20.172-72.422,21.391-75.704s-34.337-0.052-44.441,4.034
	S430.003,339.857,431.857,317.753z"/>
<path fill="none" stroke="#010101" stroke-miterlimit="10" d="M113.491,332.437c0,0,42.742,13.621,62.316,24.261
	c19.575,10.637,55.597,26.255,60.449,46.348c4.852,20.106-1.881,55.325-19.951,65.78c-18.083,10.467-60.15,10.145-77.637,2.906
	c-17.473-7.238-48.761-31.561-48.761-31.561s30.315-12.26,50.266-12.688C160.125,427.057,101.959,378.555,113.491,332.437z"/>
<line fill="none" stroke="#010101" stroke-miterlimit="10" x1="463.12" y1="343.178" x2="414.009" y2="386.935"/>
<line fill="none" stroke="#010101" stroke-miterlimit="10" x1="141.471" y1="421.985" x2="81.567" y2="392.267"/>
<polyline fill="none" stroke="#010101" stroke-miterlimit="10" points="468.478,315.678 461.823,348.678 480.671,348.211 "/>
<polyline fill="none" stroke="#010101" stroke-miterlimit="10" points="82.657,360.187 86.977,395.782 58.296,392.578 "/>
<line fill="none" stroke="#010101" stroke-miterlimit="10" x1="392.372" y1="371.797" x2="377.519" y2="417.808"/>
<path fill="none" stroke="#010101" stroke-miterlimit="10" d="M163.77,385.093c0,0,24.802,19.666,28.732,34.194"/>
<line fill="none" stroke="#010101" stroke-miterlimit="10" x1="314.243" y1="487.662" x2="318.575" y2="457.902"/>
<line fill="none" stroke="#010101" stroke-miterlimit="10" x1="284.485" y1="483.328" x2="265.352" y2="459.422"/>
<path fill="none" stroke="#010101" stroke-miterlimit="10" d="M132.288,235.6c0,0-13.284-97.918,61.577-117.525
	c74.873-19.613,133.766,39.973,144.428,84.642"/>
<path fill="none" stroke="#010101" stroke-miterlimit="10" d="M249.851,165.383c0,0-46.984,79.258,19.173,88.144
	c66.144,8.892,111.804,1.589,133.687-23.148c21.884-24.737,57.621-98.826-11.973-136.632
	c-69.606-37.813-115.772,17.11-122.869,30.159"/>
<path fill="none" stroke="#010101" stroke-miterlimit="10" d="M473.237,208.404c0,0,4.048-54.138-38.137-51.135
	c0,0,26.774-5.74,26.942-43.391c0.156-37.644-10.364-86.736-110.766-97.898C250.875,4.825,185.666,33.616,184.81,91.184
	c-1.595,14.347,9.054,26.891,9.054,26.891"/>
<path fill="none" stroke="#010101" stroke-miterlimit="10" d="M114.775,229.47c0,0-33.026-38.779-10.546-81.21
	c22.493-42.431,50.889-63.626,78.817-70.424"/>
<path fill="none" stroke="#010101" stroke-miterlimit="10" d="M199.494,213.521c0,0,19.107-73.57,62.381-43.3
	c20.6,12.888,21.184,28.408,21.184,28.408"/>
<path fill="none" stroke="#010101" stroke-miterlimit="10" d="M342.067,124.21c0,0,27.474,6.473,30.042,28.707"/>
<path fill="none" stroke="#010101" stroke-miterlimit="10" d="M350.136,147.742c0,0,5.136-20.872,29.589-23.362"/>
<path fill="none" stroke="#010101" stroke-miterlimit="10" d="M167.389,180.307c0,0-16.656,33.766,16.241,43.748"/>
<path fill="none" stroke="#010101" stroke-miterlimit="10" d="M239.888,82.441c0,0,7.978-34.939,37.709-31.768"/>
<path fill="none" stroke="#010101" stroke-miterlimit="10" d="M231.482,54.007c0,0,38.993,25.691,45.635,25.911"/>
</svg>
