<?xml version="1.0" encoding="utf-8"?>
<!-- Generator: Adobe Illustrator 16.0.0, SVG Export Plug-In . SVG Version: 6.00 Build 0)  -->
<!DOCTYPE svg PUBLIC "-//W3C//DTD SVG 1.1//EN" "http://www.w3.org/Graphics/SVG/1.1/DTD/svg11.dtd">
<svg version="1.1" id="Layer_1" xmlns="http://www.w3.org/2000/svg" xmlns:xlink="http://www.w3.org/1999/xlink" x="0px" y="0px"
	 width="595.28px" height="841.89px" viewBox="0 0 595.28 841.89" enable-background="new 0 0 595.28 841.89" xml:space="preserve">
<path fill="none" stroke="#010101" stroke-miterlimit="10" d="M485.73,55.986c0,0-84.215-11.483-125.051-22.967
	c-40.836-11.484-58.688-3.82-66.345-1.271c-7.655,2.549-77.829,59.976-102.083,84.214c-24.239,24.239-17.854,20.411-26.795,37
	c-8.927,16.59-89.313,167.146,14.041,218.195c103.353,51.034,185.01-38.294,218.19-62.533
	c33.166-24.238,81.657-86.756,81.657-86.756s-133.977,2.557-204.149,12.755c21.681-21.697,53.591-53.587,77.829-76.555
	c0,0,57.419-40.835,84.215-63.803C464.033,71.298,488.271,67.47,485.73,55.986z"/>
<path fill="none" stroke="#010101" stroke-miterlimit="10" d="M335.155,109.577c0,0-43.378-3.828-58.689,1.278
	s-25.524,8.934-10.212,11.483C281.565,124.889,332.599,109.577,335.155,109.577z"/>
<path fill="none" stroke="#010101" stroke-miterlimit="10" d="M165.457,152.962c0,0-88.042,103.358-93.141,169.703
	c-5.114,66.345-7.655,140.346,43.378,173.528c51.034,33.18,85.485,37.007,173.527,0c88.042-36.994,89.328-16.584,82.942,15.311
	c-6.384,31.91-34.45,42.123-61.246,52.32c-26.795,10.212-96.969,16.597-122.493,53.59c-25.525,37.009-44.664,76.56-17.869,135.248
	c26.795,58.705,31.91,66.364,31.91,66.364s-33.181-98.258,39.55-132.709c72.73-34.452,102.083-59.976,130.148-63.805
	c28.066-3.827,85.485-11.483,125.051-68.902c39.549-57.417,67.632-107.181-6.384-151.83c-74.001-44.664-103.354,7.655-155.675,7.655
	c-52.305,0,26.811-66.36,52.321-93.155"/>
<path fill="none" stroke="#010101" stroke-miterlimit="10" d="M314.745,391.567c0,0-19.14,11.484-61.247,15.313"/>
<path fill="none" stroke="#010101" stroke-miterlimit="10" d="M324.958,406.88c0,0-33.181,35.722-44.664,35.722"/>
<line fill="none" stroke="#010101" stroke-miterlimit="10" x1="345.368" y1="411.979" x2="332.614" y2="445.158"/>
<path fill="none" stroke="#010101" stroke-miterlimit="10" d="M374.721,401.781c0,0-3.827,37.008-6.386,43.377"/>
<line fill="none" stroke="#010101" stroke-miterlimit="10" x1="410.443" y1="387.74" x2="407.887" y2="451.543"/>
<path fill="none" stroke="#010101" stroke-miterlimit="10" d="M461.478,390.297c0,0-24.238,34.451-26.797,45.936"/>
<path fill="none" stroke="#010101" stroke-miterlimit="10" d="M507.41,417.092c0,0-35.721,12.754-35.721,24.239"/>
<path fill="none" stroke="#010101" stroke-miterlimit="10" d="M534.207,475.781c0,0-25.524-6.384-34.452-1.271"/>
<line fill="none" stroke="#010101" stroke-miterlimit="10" x1="513.797" y1="525.546" x2="489.559" y2="510.232"/>
<line fill="none" stroke="#010101" stroke-miterlimit="10" x1="465.306" y1="590.619" x2="442.337" y2="548.514"/>
<line fill="none" stroke="#010101" stroke-miterlimit="10" x1="414.271" y1="611.029" x2="393.86" y2="582.962"/>
<line fill="none" stroke="#010101" stroke-miterlimit="10" x1="332.614" y1="632.728" x2="317.303" y2="614.858"/>
<line fill="none" stroke="#010101" stroke-miterlimit="10" x1="281.565" y1="662.077" x2="256.056" y2="639.112"/>
<line fill="none" stroke="#010101" stroke-miterlimit="10" x1="220.318" y1="696.529" x2="187.153" y2="693.974"/>
<path fill="none" stroke="#010101" stroke-miterlimit="10" d="M275.195,234.624c0,0,177.354-77.84,200.321-82.939l75.288-59.968"/>
<line fill="none" stroke="#010101" stroke-miterlimit="10" x1="571.215" y1="186.135" x2="475.517" y2="151.684"/>
</svg>
