<?xml version="1.0" encoding="utf-8"?>
<!-- Generator: Adobe Illustrator 16.0.0, SVG Export Plug-In . SVG Version: 6.00 Build 0)  -->
<!DOCTYPE svg PUBLIC "-//W3C//DTD SVG 1.1//EN" "http://www.w3.org/Graphics/SVG/1.1/DTD/svg11.dtd">
<svg version="1.1" id="Layer_1" xmlns="http://www.w3.org/2000/svg" xmlns:xlink="http://www.w3.org/1999/xlink" x="0px" y="0px"
	 width="595.28px" height="692px" viewBox="0 0 595.28 692" enable-background="new 0 0 595.28 692" xml:space="preserve">
<path fill="none" stroke="#010101" stroke-linejoin="bevel" stroke-miterlimit="10" d="M92.769,96.421L24.077,236.247
	c0,0-12.261,125.114,2.458,166.812c14.718,41.698,73.592,181.523,98.121,203.602c24.529,22.078,80.952,51.521,139.826,53.973
	c58.874,2.451,105.487,4.908,137.375-44.155c31.888-49.064,98.114-132.467,115.29-188.89c17.177-56.424,24.536-90.762,24.536-90.762
	l19.62-41.705l4.908-34.346l-7.359-49.057c0,0-34.338-9.81-24.528-22.078c9.81-12.268,41.697-14.718,46.606-31.895
	c4.908-17.169,9.81-44.148-14.719-49.057c-24.528-4.909-80.959,2.45-85.86,34.338c-4.901,31.895-29.43-51.515-19.62-58.874
	c9.811-7.359-34.346,9.817-34.346,9.817l-14.718-31.895c0,0-36.789,29.437-46.606,26.986c-9.817-2.451,2.45-36.797,2.45-36.797
	l-58.874,14.719l7.359-22.078c0,0-61.324,17.169-83.402,22.078c-22.078,4.909-51.521,0-61.332,2.451
	c-9.81,2.458-44.156,4.909-44.156,4.909s-9.81-49.064-31.888-44.155c-22.078,4.908-46.606,17.169-36.796,36.796
	C68.232,86.611,92.769,96.421,92.769,96.421z"/>
<path fill="none" stroke="#010101" stroke-linejoin="bevel" stroke-miterlimit="10" d="M181.079,125.858
	c0,0,88.304,61.332,93.212,152.094c-9.81,2.45-71.142-112.847-125.107-115.298c-12.261,34.346-17.162,73.593-4.901,95.671
	c12.26,22.077,36.796,39.254,98.121,34.345s34.346-2.458,34.346-2.458l-90.769,41.705"/>
<path fill="none" stroke="#010101" stroke-linejoin="bevel" stroke-miterlimit="10" d="M471.77,174.922
	c0,0-111.869,58.112-119.013,123.483c-7.137,65.371,19.045-55.69,154.717-75.059c4.758,26.634,9.529,38.737-7.144,55.684
	c-16.659,16.953-76.158,48.424-92.824,48.424s-59.5-19.368-42.841-4.844c16.659,14.532,45.22,38.744,45.22,38.744"/>
<path fill="none" stroke="#010101" stroke-linejoin="bevel" stroke-miterlimit="10" d="M217.875,380.981
	c0,0-22.078,12.261-14.718,24.528c7.359,12.268,7.359,29.438,7.359,29.438s19.627-31.889,29.437-24.529s19.62,22.078,19.62,22.078
	s14.726,12.268,31.895,0s19.62,2.451,19.62,2.451s19.62,0,22.078-12.269c2.457-12.261,0-24.528,0-24.528l-63.776,12.268
	C269.39,410.418,244.862,378.531,217.875,380.981z"/>
<path fill="none" stroke="#010101" stroke-linejoin="bevel" stroke-miterlimit="10" d="M217.875,380.981
	c0,0,26.986-56.423,58.874-90.769c31.887-34.339,36.789-44.156,56.417-31.888c19.627,12.268,22.077,71.142,19.627,78.501
	c-2.451,7.359-7.353,63.782-17.17,73.592"/>
<path fill="none" stroke="#010101" stroke-linejoin="bevel" stroke-miterlimit="10" d="M517.146,427.588
	c0,0-29.43-41.705-85.853-41.705c-56.424,0-98.128,36.796-98.128,36.796l-22.078,12.269c0,0-44.156-2.451-39.247,17.169
	c4.909,19.627,19.627,39.254,66.233,36.796c46.606-2.45,95.678-14.711,122.656-49.057c26.979-34.346-41.704,63.782-49.063,73.593"/>
<path fill="none" stroke="#010101" stroke-linejoin="bevel" stroke-miterlimit="10" d="M127.106,530.617
	c0,0-34.345-44.155-36.796-95.67c-14.719-26.986-17.169-41.705-17.169-41.705s12.268,66.233,88.311,78.501
	c76.043,12.268,107.938,19.627,103.029-9.81c-4.908-29.438-14.718-41.705-14.718-41.705s-17.169-19.627-39.247,14.719
	c-7.359-2.451-7.359-29.438-7.359-29.438s12.268-14.711,0-31.888c-12.268-17.177-115.297-41.705-181.531,17.169"/>
<path fill="none" stroke="#010101" stroke-linejoin="bevel" stroke-miterlimit="10" d="M122.205,461.934
	c0,0,12.268,83.402,14.719,100.571c2.451,17.177,9.81,29.437,9.81,29.437l49.064-58.873l26.979-53.966l7.359,46.606l31.895-44.156
	v49.064c0,0,29.437-7.359,39.248-51.515c4.908,7.359-2.451,58.874-2.451,58.874s24.528-19.627,39.247-49.064
	c14.719-29.437,12.268,105.487,7.359,130.016c-4.909,24.529,71.142-61.324,63.782-147.185"/>
<path fill="none" stroke="#010101" stroke-linejoin="bevel" stroke-miterlimit="10" d="M342.982,587.041
	c0,0-26.986,41.697-41.704,41.697c-14.719,0-73.593-4.901-95.67-14.719c-22.078-9.81-44.156-36.796-44.156-36.796"/>
<path fill="none" stroke="#010101" stroke-linejoin="bevel" stroke-miterlimit="10" d="M301.278,628.738v-58.874
	c0,0-44.156,34.346-44.156,51.515c0,17.176-7.359-44.155-7.359-44.155l-24.528,46.613l-12.268-53.973l-22.078,34.346"/>
<path fill="none" stroke="#010101" stroke-linejoin="bevel" stroke-miterlimit="10" d="M428.836,317.199l2.458-26.986
	c0,0,24.521,2.458,19.62,14.718"/>
<polyline fill="none" stroke="#010101" stroke-linejoin="bevel" stroke-miterlimit="10" points="185.98,282.854 198.249,253.416 
	171.262,255.874 161.452,270.593 "/>
<polyline fill="none" stroke="#010101" stroke-linejoin="bevel" stroke-miterlimit="10" points="549.042,123.408 504.886,152.845 
	534.323,155.295 529.415,172.465 "/>
<polyline fill="none" stroke="#010101" stroke-linejoin="bevel" stroke-miterlimit="10" points="97.67,49.815 117.297,84.153 
	87.86,74.344 105.029,93.971 "/>
</svg>
