<?xml version="1.0" encoding="utf-8"?>
<!-- Generator: Adobe Illustrator 16.0.0, SVG Export Plug-In . SVG Version: 6.00 Build 0)  -->
<!DOCTYPE svg PUBLIC "-//W3C//DTD SVG 1.1//EN" "http://www.w3.org/Graphics/SVG/1.1/DTD/svg11.dtd">
<svg version="1.1" id="Layer_1" xmlns="http://www.w3.org/2000/svg" xmlns:xlink="http://www.w3.org/1999/xlink" x="0px" y="0px"
	 width="595.28px" height="515px" viewBox="0 0 595.28 515" enable-background="new 0 0 595.28 515" xml:space="preserve">
<path fill="none" stroke="#010101" stroke-linejoin="bevel" stroke-miterlimit="10" d="M260.801,217.235
	c0,0,37.226-9.404,45.882-9.069c8.661,0.331,42.413,13.347,45.342,16.061c2.933,2.715,48.224,8.801,86.547-6.626
	c38.317-15.432,47.181-31.567,59.956-36.708c12.771-5.142,29.575-13.596,49.526-13.693c19.95-0.098,33.021-1.758,33.021-1.758
	l-14.602-3.601l-81.413-2.715c0,0-58.669-7.906-85.317,8.408c-26.643,16.314-49.141,15.011-49.141,15.011
	s35.852-18.994,46.548-26.383c10.69-7.393,53.765-33.48,64.369-38.707c10.609-5.223,32.463-20.856,48.213-13.312
	c15.754,7.549,29.089,21.506,29.089,21.506s-1.077-28.23,1.887-37.653c2.972-9.423,8.136-30.906,5.756-36.634
	c-2.385-5.725-11.306-21.682-19.414-25.03c-8.108-3.353-35.106-0.49-39.517,1.505c-4.413,1.995-76.555,28.697-76.555,28.697
	s-29.113,12.744-38.321,15.428c-9.21,2.68-28.099,8.887-39.972,24.47c-11.877,15.583-13.864,33.286-25.908,53.202
	c-12.044,19.915-21.669,33.418-44.797,37.291"/>
<path fill="none" stroke="#010101" stroke-linejoin="bevel" stroke-miterlimit="10" d="M236.825,220.642
	c-6.486,0.42-21.914-16.458-13.985-30.894c7.93-14.437,38.875-18.442,41.9,4.219C267.766,216.632,262.038,219.016,236.825,220.642z"
	/>
<path fill="none" stroke="#010101" stroke-linejoin="bevel" stroke-miterlimit="10" d="M242.588,206.12
	c0,0-3.278-16.174,0.502-12.989c3.78,3.186,10.189,5.601,6.626,8.062C246.155,203.654,242.588,206.12,242.588,206.12z"/>
<path fill="none" stroke="#010101" stroke-linejoin="bevel" stroke-miterlimit="10" d="M306.776,149.633
	c0,0-2.427-15.704-10.535-19.052c-8.108-3.352-38.369,5.452-38.369,5.452l-59.79,32.376c0,0-43.487,36.91-30.521,71.666
	c12.966,34.761,20.821,44.604,29.529,54.913c8.708,10.306,37.63,36.141,10.1,64.13"/>
<path fill="none" stroke="#010101" stroke-linejoin="bevel" stroke-miterlimit="10" d="M337.975,217.612
	c0,0-10.862,11.722-34.543,18.609c-23.684,6.891-41.803,15.729-41.803,15.729s16.435,12.34,21.708,32.93
	c5.274,20.584,14.748,33.522,6.779,60.096c-7.965,26.577-18.986,42.627-18.986,42.627"/>
<path fill="none" stroke="#010101" stroke-linejoin="bevel" stroke-miterlimit="10" d="M174.5,352.219c0,0-26.037-33.1-32.45-35.511
	c-6.409-2.416-43.525-29.432-43.525-29.432s-70.076-23.486-84.951-34.508c6.122,21.051,17.127,39.252,20.106,51.941
	c0,0,18.064,37.556,17.893,41.885c-0.167,4.333,27.449,52.665,27.449,52.665s32.364,37.672,36.91,43.486
	c4.542,5.814,40.729,34.53,45.439,36.009c4.709,1.485,54.251,9.901,64.693,9.006c10.442-0.898,33.874-1.291,49.608-15.863
	c15.739-14.563,16.544-24.072,19.974-34.347c3.435-10.271,5.216-11.508-3.877-23.132c-9.084-11.624-37.074-39.155-37.074-39.155
	l-57.864-17.414c0,0-60.711-22.296-84.691-18.886"/>
<path fill="none" stroke="#010101" stroke-linejoin="bevel" stroke-miterlimit="10" d="M296.319,420.232
	c0,0-34.087-4.352-44.312,2.19"/>
<path fill="none" stroke="#010101" stroke-linejoin="bevel" stroke-miterlimit="10" d="M270.958,391.936
	c0,0-24.921-17.002-44.358-7.785c-19.441,9.225-36.704,18.527-36.704,18.527"/>
<path fill="none" stroke="#010101" stroke-linejoin="bevel" stroke-miterlimit="10" d="M207.19,359.117
	c0,0-27.297-0.619-34.425,4.305c-7.125,4.928-14.806,12.873-14.806,12.873"/>
<path fill="none" stroke="#010101" stroke-linejoin="bevel" stroke-miterlimit="10" d="M125.534,306.526
	c0,0-30.988-5.966-42.783,7.451"/>
<path fill="none" stroke="#010101" stroke-linejoin="bevel" stroke-miterlimit="10" d="M60.723,311.827
	c0,0-8.003,38.719-6.557,46.143"/>
<path fill="none" stroke="#010101" stroke-linejoin="bevel" stroke-miterlimit="10" d="M83.066,339.575
	c0,0,2.007,26.526-0.109,36.421c-2.119,9.889,11.395,41.631,11.395,41.631"/>
<path fill="none" stroke="#010101" stroke-linejoin="bevel" stroke-miterlimit="10" d="M139.374,385.982
	c0,0,3.205,40.449,2.404,49.958c-0.801,9.509,17.508,40.569,24.769,43.447"/>
<path fill="none" stroke="#010101" stroke-linejoin="bevel" stroke-miterlimit="10" d="M207.692,424.612
	c0,0-15.852,50.984,9.244,63.666"/>
<path fill="none" stroke="#010101" stroke-linejoin="bevel" stroke-miterlimit="10" d="M244.459,438.173
	c0,0-0.789,31.625,6.386,36.67c7.175,5.052,15.451,4.067,15.451,4.067"/>
<path fill="none" stroke="#010101" stroke-linejoin="bevel" stroke-miterlimit="10" d="M263.593,346.987
	c-0.634,5.177,1.498,17.403,1.498,17.403"/>
<line fill="none" stroke="#010101" stroke-linejoin="bevel" stroke-miterlimit="10" x1="241.095" y1="345.688" x2="244.374" y2="361.852"/>
<line fill="none" stroke="#010101" stroke-linejoin="bevel" stroke-miterlimit="10" x1="240.648" y1="312.281" x2="247.71" y2="331.633"/>
<line fill="none" stroke="#010101" stroke-linejoin="bevel" stroke-miterlimit="10" x1="262.379" y1="310.952" x2="264.729" y2="328.821"/>
<line fill="none" stroke="#010101" stroke-linejoin="bevel" stroke-miterlimit="10" x1="276.174" y1="301.949" x2="276.785" y2="331.023"/>
<line fill="none" stroke="#010101" stroke-linejoin="bevel" stroke-miterlimit="10" x1="242.246" y1="271.148" x2="252.011" y2="287.571"/>
<line fill="none" stroke="#010101" stroke-linejoin="bevel" stroke-miterlimit="10" x1="218.896" y1="269.379" x2="234.993" y2="290.379"/>
<line fill="none" stroke="#010101" stroke-linejoin="bevel" stroke-miterlimit="10" x1="203.107" y1="273.972" x2="214.961" y2="292.639"/>
<polyline fill="none" stroke="#010101" stroke-linejoin="bevel" stroke-miterlimit="10" points="431.772,135.387 440.018,146.544 
	444.715,125.914 457.369,135.076 464.7,113.675 478.974,125.937 484.985,104.921 495.226,120.493 505.951,100.961 511.995,124.179 
	520.473,106.726 "/>
<polyline fill="none" stroke="#010101" stroke-linejoin="bevel" stroke-miterlimit="10" points="518.848,160 511.24,143.663 
	504.711,155.551 497.399,142.691 489.94,156.279 482.544,145.584 478.265,155.392 "/>
</svg>
