<?xml version="1.0" encoding="utf-8"?>
<!-- Generator: Adobe Illustrator 16.0.0, SVG Export Plug-In . SVG Version: 6.00 Build 0)  -->
<!DOCTYPE svg PUBLIC "-//W3C//DTD SVG 1.1//EN" "http://www.w3.org/Graphics/SVG/1.1/DTD/svg11.dtd">
<svg version="1.1" id="Layer_1" xmlns="http://www.w3.org/2000/svg" xmlns:xlink="http://www.w3.org/1999/xlink" x="0px" y="0px"
	 width="475px" height="841.89px" viewBox="0 0 475 841.89" enable-background="new 0 0 475 841.89" xml:space="preserve">
<g>
	<path fill="none" stroke="#010101" stroke-linejoin="bevel" stroke-miterlimit="10" d="M201.843,533.658
		c45.566-55.587,9.112-123.94-12.759-141.256c-21.872-17.317-85.663-58.321-98.422-66.522c-12.76-8.202-19.137-19.138-21.872-93.867
		c-2.734-74.729,47.387-109.357,47.387-109.357s43.743-36.455,31.896-18.225c-11.846,18.229-11.846,81.105-11.846,81.105
		s36.452-21.872,39.186-24.605c2.734-2.734,23.695-17.317,23.695-17.317s-7.289,26.432-10.936,37.367
		c-3.648,10.936-26.432,45.563-39.189,51.032c-12.757,5.468,1.821,24.6,13.669,45.564c11.85,20.963,42.833,51.944,64.704,66.527
		c21.872,14.583,44.655,31.894,55.592,78.371c10.936,46.477,16.404,88.394-20.05,114.825
		c-36.452,26.432-46.478,30.986-46.478,30.986"/>
	<path fill="none" stroke="#010101" stroke-linejoin="bevel" stroke-miterlimit="10" d="M206.397,324.054
		c0,0,30.073,2.739,42.833-3.642c12.756-6.381,20.958-37.367,20.958-37.367s-18.225-27.339-15.491-49.21
		c2.734-21.872,1.822-43.744,12.757-54.679c3.647,7.294,15.496,47.39,15.496,47.39l20.046,22.785c0,0,15.495-27.345,19.137-37.368
		c3.646-10.022,0-40.096,0-40.096s10.937,0.908,19.138,15.491c8.202,14.583,14.583,50.129,11.85,67.44
		c-2.734,17.312-10.023,49.211-20.96,62.881c-10.935,13.669-66.527,55.586-66.527,55.586"/>
	<path fill="none" stroke="#010101" stroke-linejoin="bevel" stroke-miterlimit="10" d="M189.084,392.402
		c0,0-53.769-5.468-61.97,24.604c-8.202,30.074-17.314,41.922,12.759,66.529c30.073,24.604,56.502,30.073,67.438,60.146
		s15.493,42.828,2.734,86.572c-12.76,43.743,22.782,34.633,22.782,34.633"/>
	<path fill="none" stroke="#010101" stroke-linejoin="bevel" stroke-miterlimit="10" d="M132.582,351.393
		c0,0-30.073-7.294-58.323,21.872s-43.74,52.863-41.919,72.908c1.821,20.046,11.844,60.146,34.628,86.572
		c22.785,26.427,52.858,24.606,61.06,54.68c8.201,30.073-2.734,55.592-5.468,71.082c-2.733,15.491,2.734,44.656,30.984,58.326
		c28.25,13.67,52.855,18.219,52.855,18.219"/>
	<path fill="none" stroke="#010101" stroke-linejoin="bevel" stroke-miterlimit="10" d="M127.114,591.979
		c0,0-34.631,29.165-49.211,45.569c-14.58,16.403-38.271,62.875-10.022,110.265c28.25,47.385,38.272,57.412,64.702,63.788
		c26.429,6.387,58.326,3.642,77.463-0.907c19.138-4.561,37.364-43.743,55.588-69.257c10.718-15.015,23.96-39.785,36.204-60.989
		c8.57-14.851,16.654-27.943,23.03-34.698c15.496-16.403,26.432-30.073,41.922-14.582c15.49,15.489,21.871,18.229,5.468,33.72
		s-27.334,22.779-41.922,23.692c-14.577,0.912-24.606-4.555-24.606-4.555"/>
	<path fill="none" stroke="#010101" stroke-linejoin="bevel" stroke-miterlimit="10" d="M118.001,663.061
		c0,0-29.163,37.368-13.669,66.522c15.494,29.165,34.631,51.037,51.944,47.396c17.314-3.653,48.298-30.982,55.589-54.68
		s31.896-90.225,42.832-108.448c10.936-18.226,50.124-70.164,90.22-69.257c40.097,0.908,61.061,8.196,73.816,39.184
		c12.757,30.985,21.877,83.844-6.381,118.472c-28.247,34.628-61.054,54.673-79.283,60.141c-18.226,5.469-71.99-6.376-71.99-6.376"/>
	<path fill="none" stroke="#010101" stroke-linejoin="bevel" stroke-miterlimit="10" d="M136.228,181.889
		c0,0,17.314-41.009,28.25-51.945c10.936-10.936,49.211-45.563,90.219-23.692c41.01,21.871,59.234,49.205,82.019,48.298
		c22.785-0.908,49.211-8.202,54.679-27.339c5.468-19.138,20.051-33.715,29.16-33.715"/>
	<path fill="none" stroke="#010101" stroke-linejoin="bevel" stroke-miterlimit="10" d="M381.372,89.848
		c0,0,19.138,17.311,10.022,37.362"/>
	<path fill="none" stroke="#010101" stroke-linejoin="bevel" stroke-miterlimit="10" d="M302.996,249.33
		c0,0,9.114-34.634-4.556-53.771c-13.67-19.138-18.224-38.275-55.589-48.298c-37.364-10.022-56.505-45.564-55.592-70.169
		c0.914-24.605,24.608-71.083,50.124-63.794c25.517,7.289,38.271,30.987,35.539,44.656"/>
	
		<line fill="none" stroke="#010101" stroke-linejoin="bevel" stroke-miterlimit="10" x1="299.354" y1="44.285" x2="269.281" y2="40.638"/>
	
		<line fill="none" stroke="#010101" stroke-linejoin="bevel" stroke-miterlimit="10" x1="103.421" y1="187.357" x2="110.71" y2="172.779"/>
	
		<line fill="none" stroke="#010101" stroke-linejoin="bevel" stroke-miterlimit="10" x1="97.953" y1="175.513" x2="101.598" y2="165.485"/>
	
		<line fill="none" stroke="#010101" stroke-linejoin="bevel" stroke-miterlimit="10" x1="325.779" y1="250.237" x2="327.601" y2="234.747"/>
	
		<line fill="none" stroke="#010101" stroke-linejoin="bevel" stroke-miterlimit="10" x1="342.184" y1="244.769" x2="343.097" y2="232.013"/>
	<path fill="none" stroke="#010101" stroke-linejoin="bevel" stroke-miterlimit="10" d="M134.405,311.297
		c-3.644,1.821-33.72,20.958-31.896,23.692"/>
	<path fill="none" stroke="#010101" stroke-linejoin="bevel" stroke-miterlimit="10" d="M182.705,349.572
		c0,0-25.519,14.583-23.695,20.051"/>
	
		<line fill="none" stroke="#010101" stroke-linejoin="bevel" stroke-miterlimit="10" x1="256.52" y1="425.208" x2="214.6" y2="437.058"/>
	
		<line fill="none" stroke="#010101" stroke-linejoin="bevel" stroke-miterlimit="10" x1="254.697" y1="484.447" x2="221.891" y2="487.182"/>
	<path fill="none" stroke="#010101" stroke-linejoin="bevel" stroke-miterlimit="10" d="M78.816,427.035
		c0,0,48.298-6.376,47.387,2.733"/>
	<path fill="none" stroke="#010101" stroke-linejoin="bevel" stroke-miterlimit="10" d="M87.018,494.47
		c0,0,30.981-23.691,40.096-19.138"/>
	<path fill="none" stroke="#010101" stroke-linejoin="bevel" stroke-miterlimit="10" d="M144.43,550.97
		c0,0,36.449-44.651,45.564-33.715"/>
	<path fill="none" stroke="#010101" stroke-linejoin="bevel" stroke-miterlimit="10" d="M184.525,640.282
		c0,0,25.52-15.497,25.52-10.028"/>
	<path fill="none" stroke="#010101" stroke-linejoin="bevel" stroke-miterlimit="10" d="M248.316,622.964
		c2.734,0.914,23.697,4.556,25.519,15.491"/>
	<path fill="none" stroke="#010101" stroke-linejoin="bevel" stroke-miterlimit="10" d="M282.95,581.043
		c0,0,15.49,7.288,18.225,24.605"/>
	<path fill="none" stroke="#010101" stroke-linejoin="bevel" stroke-miterlimit="10" d="M390.481,597.446
		c0,0,18.229-31.89,11.849-39.183"/>
	
		<line fill="none" stroke="#010101" stroke-linejoin="bevel" stroke-miterlimit="10" x1="402.33" y1="660.327" x2="428.756" y2="656.686"/>
	<path fill="none" stroke="#010101" stroke-linejoin="bevel" stroke-miterlimit="10" d="M352.206,749.638
		c0,0,2.734-13.669-6.375-19.136"/>
	<path fill="none" stroke="#010101" stroke-linejoin="bevel" stroke-miterlimit="10" d="M189.084,786.996
		c0.91,2.732,2.734,26.43,2.734,26.43"/>
	<path fill="none" stroke="#010101" stroke-linejoin="bevel" stroke-miterlimit="10" d="M55.121,709.537
		c0,0,14.58-3.642,22.781-9.108"/>
	<path fill="none" stroke="#010101" stroke-linejoin="bevel" stroke-miterlimit="10" d="M77.902,637.548
		c0,0,24.606-2.734,29.163,1.82"/>
</g>
</svg>
