<?xml version="1.0" encoding="utf-8"?>
<!-- Generator: Adobe Illustrator 16.0.0, SVG Export Plug-In . SVG Version: 6.00 Build 0)  -->
<!DOCTYPE svg PUBLIC "-//W3C//DTD SVG 1.1//EN" "http://www.w3.org/Graphics/SVG/1.1/DTD/svg11.dtd">
<svg version="1.1" id="Layer_1" xmlns="http://www.w3.org/2000/svg" xmlns:xlink="http://www.w3.org/1999/xlink" x="0px" y="0px"
	 width="595.28px" height="391px" viewBox="0 0 595.28 391" enable-background="new 0 0 595.28 391" xml:space="preserve">
<g>
	<path fill="none" stroke="#010101" stroke-linejoin="bevel" stroke-miterlimit="10" d="M146.726,132.525
		c0,0,21.791-6.636,37.896-8.531s45.476,6.632,55.897,9.474c10.421,2.842,25.58,16.106,35.054,27.475
		c9.474,11.369,18,20.843,11.369,37.896c-6.632,17.054-17.053,32.213-38.844,48.318c-21.791,16.106-55.897,10.422-83.373,6.632
		c-27.475-3.789-42.633-35.998-51.16-52.104c-8.527-16.106-4.737-31.265-10.421-48.318c-5.685-17.053-6.632-22.738-16.106-34.107
		c-9.474-11.369-31.265-10.421-41.686-6.632s-7.579,28.422-6.632,37.896s8.527,16.106,22.738,25.58
		c14.211,9.474,16.106,31.265,16.106,31.265s1.895,14.211-32.212,0.947c-8.527-5.685-22.738-27.475-26.527-36.002
		c-3.79-8.526-13.264-30.317-7.58-50.213s19.896-34.107,25.58-37.896c5.685-3.79,43.581-16.106,68.214-0.947
		c24.633,15.158,26.528,14.211,34.107,36.001c7.58,21.791,8.527,51.161,14.211,72.003c5.685,20.84,20.843,38.841,44.528,36.945
		c23.686-1.895,41.686-6.632,49.266-27.475c7.579-20.843-7.58-35.055-23.686-45.476s-61.582-18.948-72.951,0.004"/>
	<path fill="none" stroke="#010101" stroke-linejoin="bevel" stroke-miterlimit="10" d="M108.829,201.687
		c0,0-15.159,18.001,27.475,61.578c42.634,43.581,72.003,31.265,91.899,27.475c19.896-3.789,61.582-9.474,71.056-60.634
		c9.475-51.161-0.947-103.269-8.526-117.479c-7.58-14.211-20.843-36.949-36.949-48.318s-41.687-24.633-41.687-24.633
		s1.895,31.265,13.264,45.476c-14.211-4.737-40.739,0.947-40.739,0.947s6.632,7.58,18.948,18.001s37.896,16.106,40.739,14.211
		c2.842-1.895,2.842,17.054,2.842,17.054"/>
	<path fill="none" stroke="#010101" stroke-linejoin="bevel" stroke-miterlimit="10" d="M210.202,83.256
		c0,0-24.633-13.264-34.107-14.211c-9.474-0.948-18.001-2.843-18.001-2.843s24.633-7.579,32.212-1.895
		c7.579,5.685-13.264-23.686-13.264-23.686l43.581,35.055"/>
	
		<line fill="none" stroke="#010101" stroke-linejoin="bevel" stroke-miterlimit="10" x1="242.414" y1="77.571" x2="261.362" y2="88.94"/>
	<path fill="none" stroke="#010101" stroke-linejoin="bevel" stroke-miterlimit="10" d="M437.583,187.472
		c0,0-12.316,12.316-31.265,14.211s-43.583-2.843-50.215-13.264c-6.632-10.422-6.632-28.422,12.316-36.002
		c18.95-7.579,42.636-17.053,59.689,9.474c17.054,26.528,22.737,54.95,1.895,65.372s-66.321,14.211-83.374-6.632
		c-17.054-20.843-22.738-63.477-19.896-83.373c2.842-19.896,9.474-18,9.474-18s29.37-8.527,36.002-20.843s14.213-29.37,14.213-29.37
		l-44.53,7.579c0,0-0.947-30.317,2.843-36.949c3.789-6.632-18.001,8.527-19.896,11.369c-1.895,2.842-13.264,13.264-15.158,18.001
		c-1.896,4.737-18.948,43.581-18.948,43.581l11.369,45.476l-2.843,72.004c0,0,12.316,45.476,81.478,46.423
		c69.163,0.947,81.479-31.265,86.217-46.423c4.737-15.159,21.79-51.161-3.79-75.793s-46.423-41.686-71.056-33.16
		c-24.635,8.527-43.583,10.422-54.005,25.58c-10.421,15.159-8.526,12.316-8.526,12.316"/>
	<path fill="none" stroke="#010101" stroke-linejoin="bevel" stroke-miterlimit="10" d="M476.427,206.42
		c0,0,15.159-3.79,21.791-27.475c6.632-23.686,11.369-44.529,26.527-58.74c15.159-14.211,15.159-26.527,30.317-5.685
		c15.159,20.843,11.369,39.792,10.422,43.581s-12.316,36.949-17.054,36.002s4.737,16.105,4.737,16.105s13.264,8.527,18.948,1.896
		s14.211-35.055,14.211-35.055s4.737-20.843-0.947-40.739c-5.685-19.896-11.369-59.687-36.949-56.845s-36.949-3.79-52.107,37.896
		c-15.159,41.686-26.528,41.686-26.528,41.686"/>
	<path fill="none" stroke="#010101" stroke-linejoin="bevel" stroke-miterlimit="10" d="M349.472,73.782
		c0,0,9.475-10.421,20.844-19.896c11.368-9.474,21.792-17.054,21.792-17.054l-20.845,6.632l4.736-25.58l-32.212,48.318"/>
	<path fill="none" stroke="#010101" stroke-linejoin="bevel" stroke-miterlimit="10" d="M300.207,311.583
		c0,0-14.212-1.896-13.265-9.475c0.948-7.579,1.895-12.316,1.895-12.316L300.207,311.583z"/>
	<path fill="none" stroke="#010101" stroke-linejoin="bevel" stroke-miterlimit="10" d="M315.365,304.003l9.474-18.948
		c0,0,2.843,17.054-1.895,23.686S315.365,304.003,315.365,304.003z"/>
	<path fill="none" stroke="#010101" stroke-linejoin="bevel" stroke-miterlimit="10" d="M248.099,331.479
		c0,0,16.106,26.527,46.423,26.527c30.317,0,73.898-22.738,78.635-40.738"/>
</g>
</svg>
