<?xml version="1.0" encoding="utf-8"?>
<!-- Generator: Adobe Illustrator 15.0.0, SVG Export Plug-In . SVG Version: 6.00 Build 0)  -->
<!DOCTYPE svg PUBLIC "-//W3C//DTD SVG 1.1//EN" "http://www.w3.org/Graphics/SVG/1.1/DTD/svg11.dtd">
<svg version="1.1" id="Calque_1" xmlns="http://www.w3.org/2000/svg" xmlns:xlink="http://www.w3.org/1999/xlink" x="0px" y="0px"
	 width="198.43px" height="283.46px" viewBox="0 0 198.43 283.46" enable-background="new 0 0 198.43 283.46" xml:space="preserve">
<path fill="none" stroke="#060809" stroke-miterlimit="10" d="M68.394,35.582c0,0-25.514,2.651-29.49,13.254
	s-11.597,31.479-0.332,46.72c6.958,9.608,23.194,9.278,28.827,9.94s26.839-2.983,24.851-35.786S77.339,38.896,73.695,36.576
	s2.319,5.301,2.319,5.301s8.616,3.313,7.953,18.887s-0.332,26.839-4.308,30.815s-27.502,10.935-36.117-4.639
	s-1.325-23.857,1.657-31.81s19.88-12.26,21.206-12.26S68.394,35.582,68.394,35.582z"/>
<path fill="none" stroke="#060809" stroke-miterlimit="10" d="M67.731,44.859c0,0,0,3.313,2.65,3.313s4.639-4.97,4.639-4.97
	s0.331-5.301-1.326-6.627s-5.301-0.994-5.301-0.994l-1.988,7.289L67.731,44.859z"/>
<path fill="none" stroke="#060809" stroke-miterlimit="10" d="M113.787,9.074c0,0-10.934-3.312-13.916-3.645
	c-2.982-0.332-9.609,0.661-11.928,1.987s-17.23,10.604-17.23,10.604L60.11,37.238c0,0,15.573-3.312,20.543,0.332
	s1.325-1.988,1.325-1.988s2.319-5.634,0-6.296s-6.296-5.965-4.97-8.615s4.97-5.964,6.295-4.97s5.964,2.981,6.958,3.976
	s7.621,2.319,9.278,2.982c1.657,0.663,12.259,3.645,14.91,3.313s5.634,0.331,5.634,0.331l-1.988-5.301c0,0,3.645-5.302,5.633-5.302
	s6.958-0.994,7.621,0c0.662,0.994,2.65,5.633,2.65,5.633s6.627-1.657,8.283-3.977s-4.307-4.639-5.301-4.639
	S113.787,9.074,113.787,9.074z"/>
<path fill="none" stroke="#060809" stroke-miterlimit="10" d="M81.647,47.842c0,0-9.94,8.947-12.26,8.615s-6.627-0.663-6.627-0.663
	L49.838,93.567c0,0-5.633-3.976-6.295-6.627s13.917-41.418,13.917-41.418l8.946-2.651c0,0,1.325,6.627,3.976,5.302
	s5.633-6.296,5.633-6.296L81.647,47.842z"/>
<path fill="none" stroke="#060809" stroke-miterlimit="10" d="M39.898,98.206L20.68,182.368l5.302,7.62
	c0,0,18.555-14.246,27.17-13.253s2.651,0.662,2.651,0.662"/>
<polyline fill="none" stroke="#060809" stroke-miterlimit="10" points="26.644,188.663 26.975,178.723 48.181,102.845 "/>
<path fill="none" stroke="#060809" stroke-miterlimit="10" d="M143.939,16.695l-7.62,53.678c0,0-8.283,2.983-17.893,3.977
	s-23.194-0.663-25.514-2.651"/>
<path fill="none" stroke="#060809" stroke-miterlimit="10" d="M120.084,26.304c0,0,2.318,3.977,1.987,7.29s1.657,5.303,5.302,3.977
	s5.301-7.621,5.301-7.621s1.989-8.284,1.326-8.615"/>
<path fill="none" stroke="#060809" stroke-miterlimit="10" d="M83.967,68.717c0,0-2.319,0.663-3.313,2.319
	s-7.621,23.856-7.621,23.856"/>
<path fill="none" stroke="#060809" stroke-miterlimit="10" d="M136.319,67.723c0,0,1.987-0.995,3.645,2.981s9.278,22.2,9.278,22.2
	s-14.58,9.277-22.201,10.271s-42.081-2.649-43.406-2.981"/>
<line fill="none" stroke="#060809" stroke-miterlimit="10" x1="124.06" y1="103.839" x2="125.385" y2="140.949"/>
<line fill="none" stroke="#060809" stroke-miterlimit="10" x1="119.42" y1="113.779" x2="121.74" y2="149.896"/>
<path fill="none" stroke="#060809" stroke-miterlimit="10" d="M69.388,143.932l-11.266-1.656l-0.663-29.49
	c0,0,0.994-6.295,2.982-7.289"/>
<polyline fill="none" stroke="#060809" stroke-miterlimit="10" points="164.814,145.92 175.75,153.541 178.068,182.036 
	177.406,192.64 139.964,198.604 135.988,161.493 132.344,150.89 125.385,140.949 121.74,149.896 119.42,151.553 83.967,146.582 
	83.304,139.624 69.388,143.932 72.038,107.483 91.256,101.52 80.984,110.797 119.42,113.779 124.06,103.839 133.668,112.122 
	134,151.553 176.743,143.601 171.441,101.188 149.242,92.904 "/>
<path fill="none" stroke="#060809" stroke-miterlimit="10" d="M175.75,153.541c0,0-5.634,2.649-7.291,2.981
	c-1.656,0.332-32.471,4.971-32.471,4.971"/>
<path fill="none" stroke="#060809" stroke-miterlimit="10" d="M125.717,143.601l0.33,18.224l2.651,36.779
	c0,0-46.057,2.981-47.382,1.325s-1.326-9.277-0.994-10.271s1.657-31.809,1.657-31.809l4.639-10.935l-13.585,9.94l-14.248-4.971
	c0,0-2.319,41.088-1.325,42.744s12.922,1.325,12.922,1.325l8.615-1.657"/>
<line fill="none" stroke="#060809" stroke-miterlimit="10" x1="126.047" y1="161.824" x2="81.979" y2="157.849"/>
<line fill="none" stroke="#060809" stroke-miterlimit="10" x1="58.784" y1="151.884" x2="71.375" y2="143.932"/>
<path fill="none" stroke="#060809" stroke-miterlimit="10" d="M166.472,195.621l7.952,7.29l-4.308,38.768
	c0,0-23.524,5.301-29.489,4.97s0.662-37.773,0.662-37.773l-10.934-9.94l-0.663,10.604l-49.039-0.331l4.308-7.952l-12.923,7.62
	l-17.561-3.645l15.904-9.277l2.651-39.099"/>
<line fill="none" stroke="#060809" stroke-miterlimit="10" x1="128.367" y1="191.314" x2="139.964" y2="198.604"/>
<polyline fill="none" stroke="#060809" stroke-miterlimit="10" points="140.627,246.648 130.687,243.335 84.629,244.992 
	80.653,209.207 "/>
<line fill="none" stroke="#060809" stroke-miterlimit="10" x1="129.692" y1="209.538" x2="130.687" y2="243.335"/>
<path fill="none" stroke="#060809" stroke-miterlimit="10" d="M141.289,208.875c1.657-0.331,33.135-5.964,33.135-5.964"/>
<polyline fill="none" stroke="#060809" stroke-miterlimit="10" points="72.038,208.875 72.038,244.992 83.635,240.021 "/>
<polyline fill="none" stroke="#060809" stroke-miterlimit="10" points="72.038,244.992 61.435,241.679 54.477,205.23 "/>
<polyline fill="none" stroke="#060809" stroke-miterlimit="10" points="129.361,243.335 139.633,254.933 162.826,252.613 
	155.537,244.329 "/>
<polyline fill="none" stroke="#060809" stroke-miterlimit="10" points="162.826,252.613 145.928,270.506 134.662,270.837 
	139.633,254.933 "/>
<polyline fill="none" stroke="#060809" stroke-miterlimit="10" points="125.717,269.181 88.937,271.5 82.641,254.27 
	130.355,253.607 125.717,269.181 134.662,270.837 "/>
<line fill="none" stroke="#060809" stroke-miterlimit="10" x1="130.355" y1="253.607" x2="130.355" y2="244.66"/>
<polyline fill="none" stroke="#060809" stroke-miterlimit="10" points="80.322,254.27 84.629,244.992 75.021,253.938 
	63.423,250.294 69.719,245.323 "/>
<polyline fill="none" stroke="#060809" stroke-miterlimit="10" points="63.423,250.294 78.334,271.5 83.304,272.162 87.611,268.849 
	"/>
<line fill="none" stroke="#060809" stroke-miterlimit="10" x1="75.021" y1="253.938" x2="83.304" y2="272.162"/>
<line fill="none" stroke="#060809" stroke-miterlimit="10" x1="83.304" y1="139.624" x2="80.984" y2="110.797"/>
</svg>
