<?xml version="1.0" encoding="utf-8"?>
<!-- Generator: Adobe Illustrator 15.0.0, SVG Export Plug-In . SVG Version: 6.00 Build 0)  -->
<!DOCTYPE svg PUBLIC "-//W3C//DTD SVG 1.1//EN" "http://www.w3.org/Graphics/SVG/1.1/DTD/svg11.dtd">
<svg version="1.1" xmlns="http://www.w3.org/2000/svg" xmlns:xlink="http://www.w3.org/1999/xlink" x="0px" y="0px"
	 width="396.85px" height="170.08px" viewBox="0 0 396.85 170.08" enable-background="new 0 0 396.85 170.08" xml:space="preserve">
<g id="Calque_1" display="none">
	<path display="inline" fill="none" stroke="#060809" stroke-miterlimit="10" d="M233,64.417c0,0-95.25-17.5-153.5,12
		c-63.75,23.25-68.75,48.25-68.75,48.25s55.25-6.25,75,19.75c17.25-4.25,93.5-13.75,129.75-10.5
		C219.25,127.667,233,64.417,233,64.417z"/>
	<path display="inline" fill="none" stroke="#060809" stroke-miterlimit="10" d="M220.25,75.417c0,0-58,4.5-81.75,16.5
		s6.5-12,2.75-16s-43,15.75-69,19.5c-20.75,7.5-32.75,18.75-32.75,18.75"/>
	<path display="inline" fill="none" stroke="#060809" stroke-miterlimit="10" d="M212.5,61.917c0,0,5.25-37.25,23.75-43.5
		c11.25-4.25,13,3.75,13.25,9.5c0,0-7,44.75-9.25,56s-15.25,76-27.5,81.25s-18.75-5.25-17.5-14s1.5-17.25,1.5-17.25"/>
	<path display="inline" fill="none" stroke="#060809" stroke-miterlimit="10" d="M242.5,16.917c0,0,11.5-0.25,12.75,6.75
		s-3.75,40-5,46.75s-18.75,73.5-22.5,81s-5.25,14.25-12,15s-9.75,0.75-9.75,0.75"/>
	<path display="inline" fill="none" stroke="#060809" stroke-miterlimit="10" d="M251.5,64.917c0,0,13.5-6,19.5-1
		s13.25,3.25,3.25,40.25c-9.5,30.25-16,28.25-18,29.5c0,0-14.25-0.25-21-3.5"/>
	<path display="inline" fill="none" stroke="#060809" stroke-miterlimit="10" d="M276.5,68.417c0,0,10.25-6.5,17-0.25
		s12,11.75,12,17.5s-6.75,30.25-14.25,37.5s-13.5,11-27.5,5.5"/>
	<path display="inline" fill="none" stroke="#060809" stroke-miterlimit="10" d="M296.75,70.667c0,0,2-4.75,9-3.75s18,3,20.75,11.5
		s7.25,23.25,1.25,36.25s-14.25,20.25-27.75,20.5s-15.5-6-15.5-6"/>
	<path display="inline" fill="none" stroke="#060809" stroke-miterlimit="10" d="M322.5,72.667c0,0,7-7.75,18.75-2.75
		s16,17.25,16.25,24.25s-3.25,37.25-12.75,42.25s-23,0.75-24,1l-10-4"/>
	<path display="inline" fill="none" stroke="#060809" stroke-miterlimit="10" d="M350.75,76.417c0,0,6.25-7,15-4.75
		S380,82.417,380,106.417s4.5,25.5-7.25,38.25s-22.25-1.5-22.25-1.5l-1.75-10.5"/>
</g>
<g id="Calque_2">
	<path fill="none" stroke="#060809" stroke-miterlimit="10" d="M232.666,66.333l-11,53.5c0,0-53-4.5-117,8.5c-7,1-10,3-10,3
		s-33.5-27.5-62.5-37.999C48.167,71.333,172.167,12.333,232.666,66.333z"/>
	<path fill="none" stroke="#060809" stroke-miterlimit="10" d="M221.166,74.333c0,0-39.5-15-52-14.5s-26.5,25-39.5,26
		c-13,1,9.5-18,1.5-22.5s-68,16.5-78.5,25"/>
	<path fill="none" stroke="#060809" stroke-miterlimit="10" d="M104.667,128.333c0,0-21-28.5-72.5-34.999"/>
	<path fill="none" stroke="#060809" stroke-miterlimit="10" d="M221.666,119.833l-5,7.5c0,0-43.5-12-98-0.5"/>
	<path fill="none" stroke="#060809" stroke-miterlimit="10" d="M202.332,48.667c0,0,5-47.666,29.334-44.333
		S257.332,21.667,250.332,70c-7,48.333-25.998,77-37.332,85s-36.333,5.666-31.667-11.334c4.668-17,6.668-20.334,6.668-20.334"/>
	<path fill="none" stroke="#060809" stroke-miterlimit="10" d="M226,3c0,0,23.666-1.334,28,7.666c4.332,9,4,32.334,2.332,40.334
		c-1.666,8-9.332,66.334-22.666,87s-42,37.998-53,13.666"/>
	<path fill="none" stroke="#060809" stroke-miterlimit="10" d="M255.666,58c0,0,16.666-1.334,19.666,7.666s-0.332,40-8.666,52.667
		c-8.334,12.668-21.666,25.668-33,19.668"/>
	<path fill="none" stroke="#060809" stroke-miterlimit="10" d="M276.332,67c0,0,17.002-7.334,18.668,10.666
		c1.666,18-1,35.667-5.334,43s-25.334,35-39.334,16.334"/>
	<path fill="none" stroke="#060809" stroke-miterlimit="10" d="M296,76c0,0,18-6,23,6c5,12,5,24.333-0.334,39.667
		c-5.332,15.334-8.332,24.334-18.666,25.334s-19-0.002-24.334-9.334"/>
	<path fill="none" stroke="#060809" stroke-miterlimit="10" d="M321,82.667c0,0,18-1.334,23,13c5,14.334,6,26.666-2,41
		s-27.666,20.334-34.666,8.666"/>
	<path fill="none" stroke="#060809" stroke-miterlimit="10" d="M344,93.334c0,0,9.334-11.333,16.666,1.667
		c7.334,13,7.668,28.332,4,40.332c-3.666,12-10.666,28-18.332,28c-7.668,0-12-9.666-16-14.332"/>
</g>
</svg>
