<?xml version="1.0" encoding="utf-8"?>
<!-- Generator: Adobe Illustrator 15.0.0, SVG Export Plug-In . SVG Version: 6.00 Build 0)  -->
<!DOCTYPE svg PUBLIC "-//W3C//DTD SVG 1.1//EN" "http://www.w3.org/Graphics/SVG/1.1/DTD/svg11.dtd">
<svg version="1.1" id="Calque_1" xmlns="http://www.w3.org/2000/svg" xmlns:xlink="http://www.w3.org/1999/xlink" x="0px" y="0px"
	 width="119.06px" height="119.06px" viewBox="0 0 119.06 119.06" enable-background="new 0 0 119.06 119.06" xml:space="preserve">
<path fill="none" stroke="#060809" stroke-miterlimit="10" d="M34.5,44c0,0,2-20.5,19-8c5-8.5,16.5-13,23-8S84,38,84,40
	s15.5-8,17.5,5S89,60.5,89,60.5s16.5,15,1,24s-25.5-6.5-26.5-9C67,89,48,95.5,40.5,92s-6-18.5-6-18.5s-18,7-19.5-7.5
	c-1.5-9.5,9-10,9-10s-8-8-3-12S34.5,44,34.5,44z"/>
</svg>
