<?xml version="1.0" encoding="utf-8"?>
<!-- Generator: Adobe Illustrator 15.0.0, SVG Export Plug-In . SVG Version: 6.00 Build 0)  -->
<!DOCTYPE svg PUBLIC "-//W3C//DTD SVG 1.1//EN" "http://www.w3.org/Graphics/SVG/1.1/DTD/svg11.dtd">
<svg version="1.1" id="Calque_1" xmlns="http://www.w3.org/2000/svg" xmlns:xlink="http://www.w3.org/1999/xlink" x="0px" y="0px"
	 width="119.06px" height="119.06px" viewBox="0 0 119.06 119.06" enable-background="new 0 0 119.06 119.06" xml:space="preserve">
<path display="none" fill="none" stroke="#060809" stroke-miterlimit="10" d="M34.5,44c0,0,2-20.5,19-8c5-8.5,16.5-13,23-8
	S84,38,84,40s15.5-8,17.5,5S89,60.5,89,60.5s16.5,15,1,24s-25.5-6.5-26.5-9C67,89,48,95.5,40.5,92s-6-18.5-6-18.5s-18,7-19.5-7.5
	c-1.5-9.5,9-10,9-10s-8-8-3-12S34.5,44,34.5,44z"/>
<path fill="none" stroke="#060809" stroke-miterlimit="10" d="M34.045,21c0,0,11.104,25.256,31.646,25.256
	c20.543,0,22.764-22.792,26.649-24.64C90.676,27.776,73.465,59.808,104,68.432c-21.652-2.464-26.094,9.857-22.764,26.488
	C76.795,82.6,50.146,81.984,51.256,98c0,0-6.662-36.344-32.756-27.72C40.153,57.344,49.036,48.72,34.045,21z"/>
</svg>
