<?xml version="1.0" encoding="utf-8"?>
<!-- Generator: Adobe Illustrator 16.0.0, SVG Export Plug-In . SVG Version: 6.00 Build 0)  -->
<!DOCTYPE svg PUBLIC "-//W3C//DTD SVG 1.1//EN" "http://www.w3.org/Graphics/SVG/1.1/DTD/svg11.dtd">
<svg version="1.1" id="Layer_1" xmlns="http://www.w3.org/2000/svg" xmlns:xlink="http://www.w3.org/1999/xlink" x="0px" y="0px"
	 width="595.28px" height="728px" viewBox="0 0 595.28 728" enable-background="new 0 0 595.28 728" xml:space="preserve">
<g>
	<path fill="none" stroke="#231F20" stroke-linecap="round" stroke-linejoin="round" stroke-miterlimit="10" d="M194.645,442.248
		c-87.466,41.374-163.648,48.901-178.695-73.362C0.902,246.62,192.766,225.928,231.324,297.407c38.558,71.479,0,105.361,0,105.361"
		/>
	
		<line fill="none" stroke="#231F20" stroke-linecap="round" stroke-linejoin="round" stroke-miterlimit="10" x1="94.951" y1="201.477" x2="102.479" y2="256.363"/>
	<path fill="none" stroke="#231F20" stroke-linecap="round" stroke-linejoin="round" stroke-miterlimit="10" d="M131.784,256.363
		c-23.36-48.566,76.968-132.946,76.968-132.946s17.32,107.216-40.244,135.431"/>
	
		<line fill="none" stroke="#231F20" stroke-linecap="round" stroke-linejoin="round" stroke-miterlimit="10" x1="143.858" y1="256.363" x2="199.346" y2="150.69"/>
	<polyline fill="none" stroke="#231F20" stroke-linecap="round" stroke-linejoin="round" stroke-miterlimit="10" points="
		199.346,185.49 172.679,201.477 165.488,180.784 	"/>
	<polyline fill="none" stroke="#231F20" stroke-linecap="round" stroke-linejoin="round" stroke-miterlimit="10" points="
		182.417,225.327 154.549,236.007 143.858,214.642 	"/>
	<path fill="none" stroke="#231F20" stroke-linecap="round" stroke-linejoin="round" stroke-miterlimit="10" d="M59.214,372.647
		l35.737-9.702c0,0-7.451-42.967-29.119-42.967S59.214,372.647,59.214,372.647z"/>
	
		<line fill="none" stroke="#231F20" stroke-linecap="round" stroke-linejoin="round" stroke-miterlimit="10" x1="74.539" y1="341.277" x2="80.386" y2="366.897"/>
	<path fill="none" stroke="#231F20" stroke-linecap="round" stroke-linejoin="round" stroke-miterlimit="10" d="M128.257,346.309
		c0,0,40.052,22.572,57.923-21.629"/>
	
		<line fill="none" stroke="#231F20" stroke-linecap="round" stroke-linejoin="round" stroke-miterlimit="10" x1="143.858" y1="351.439" x2="143.858" y2="366.897"/>
	
		<line fill="none" stroke="#231F20" stroke-linecap="round" stroke-linejoin="round" stroke-miterlimit="10" x1="163.14" y1="352.073" x2="165.488" y2="366.897"/>
	
		<line fill="none" stroke="#231F20" stroke-linecap="round" stroke-linejoin="round" stroke-miterlimit="10" x1="182.417" y1="341.277" x2="190.881" y2="351.439"/>
	<path fill="none" stroke="#231F20" stroke-linecap="round" stroke-linejoin="round" stroke-miterlimit="10" d="M143.858,272.014
		c0,0,53.608-9.407,81.823,56.43"/>
	<path fill="none" stroke="#231F20" stroke-linecap="round" stroke-linejoin="round" stroke-miterlimit="10" d="M54.125,400.014
		c0,0,87.094,49.133,157.069-40.843"/>
	<polyline fill="none" stroke="#231F20" stroke-linecap="round" stroke-linejoin="round" stroke-miterlimit="10" points="
		69.552,406.516 74.539,429.143 84.133,410.539 	"/>
	<polyline fill="none" stroke="#231F20" stroke-linecap="round" stroke-linejoin="round" stroke-miterlimit="10" points="
		190.881,381.2 211.193,390.513 204.845,366.897 	"/>
	<path fill="none" stroke="#231F20" stroke-linecap="round" stroke-linejoin="round" stroke-miterlimit="10" d="M157.222,417.824
		l192.604,113.289l10.344,46.565l11.286,41.374l12.228,48.913l-37.621,24.445c0,0-26.336,12.234-31.979,14.107
		c-5.643,1.885,69.6-3.758,69.6-3.758l31.037-18.813l89.345-13.16l-90.287-8.464l-27.272-137.315l134.488-178.649L157.222,417.824z"
		/>
	<polyline fill="none" stroke="#231F20" stroke-linecap="round" stroke-linejoin="round" stroke-miterlimit="10" points="
		393.085,366.897 381.8,107.431 464.564,30.309 	"/>
	
		<line fill="none" stroke="#231F20" stroke-linecap="round" stroke-linejoin="round" stroke-miterlimit="10" x1="245.432" y1="203.526" x2="252.954" y2="251.326"/>
	
		<line fill="none" stroke="#231F20" stroke-linecap="round" stroke-linejoin="round" stroke-miterlimit="10" x1="232.261" y1="236.007" x2="264.239" y2="236.007"/>
	
		<line fill="none" stroke="#231F20" stroke-linecap="round" stroke-linejoin="round" stroke-miterlimit="10" x1="457.043" y1="258.849" x2="464.564" y2="319.979"/>
	
		<line fill="none" stroke="#231F20" stroke-linecap="round" stroke-linejoin="round" stroke-miterlimit="10" x1="489.016" y1="285.184" x2="443.872" y2="285.184"/>
	<path fill="none" stroke="#231F20" stroke-linecap="round" stroke-linejoin="round" stroke-miterlimit="10" d="M331.019,563.252
		c0,0-10.35-52.926-54.551-12.201c-12.229-24.159-54.545-48.615-69.595,6.877c-24.457-7.527-56.408-15-54.55,34.795
		c-41.38-13.17-52.832,43.546-24.065,51.867c28.766,8.32,62.624-26.926,62.624-26.926s11.292,73.811,78.065-7.075
		c10.343,12.233,32.916,25.404,47.023-13.16"/>
	<path fill="none" stroke="#231F20" stroke-linecap="round" stroke-linejoin="round" stroke-miterlimit="10" d="M409.077,251.326
		c7.522-52.671,68.647-46.091,79.938-5.648c24.457-8.464,47.034-4.695,47.971,35.743c15.044,0,40.438,9.401,26.33,47.023
		c17.871,7.522,28.006,32.915,4.128,44.204c-0.364,23.509-18.235,55.173-46.45,40.757c-5.643,16.609-19.75,37.429-44.201,15.738"/>
	
		<line fill="none" stroke="#231F20" stroke-linecap="round" stroke-linejoin="round" stroke-miterlimit="10" x1="475.702" y1="406.516" x2="211.193" y2="449.576"/>
	
		<line fill="none" stroke="#231F20" stroke-linecap="round" stroke-linejoin="round" stroke-miterlimit="10" x1="485.258" y1="366.897" x2="435.413" y2="438.456"/>
	
		<line fill="none" stroke="#231F20" stroke-linecap="round" stroke-linejoin="round" stroke-miterlimit="10" x1="417.542" y1="454.471" x2="385.563" y2="499.371"/>
	<path fill="none" stroke="#231F20" stroke-linecap="round" stroke-linejoin="round" stroke-miterlimit="10" d="M373.341,285.184
		c-19.751,32.916-15.05,48.896-6.586,61.125c-20.692-10.343-37.616-2.805-35.736,13.177"/>
	<path fill="none" stroke="#231F20" stroke-linecap="round" stroke-linejoin="round" stroke-miterlimit="10" d="M267.061,198.6
		c0,0,47.97-13.115,94.994,19.806"/>
	<path fill="none" stroke="#231F20" stroke-linecap="round" stroke-linejoin="round" stroke-miterlimit="10" d="M283.053,228.92
		c0,0,40.299-5.814,69.054,17.7"/>
	<path fill="none" stroke="#231F20" stroke-linecap="round" stroke-linejoin="round" stroke-miterlimit="10" d="M252.954,271.551
		c0,0,42.983-19.293,90.497,13.633"/>
	<path fill="none" stroke="#231F20" stroke-linecap="round" stroke-linejoin="round" stroke-miterlimit="10" d="M252.954,308.693
		c0,0,53.084-15.987,90.497,11.286"/>
</g>
</svg>
