<?xml version="1.0" encoding="utf-8"?>
<!-- Generator: Adobe Illustrator 16.0.0, SVG Export Plug-In . SVG Version: 6.00 Build 0)  -->
<!DOCTYPE svg PUBLIC "-//W3C//DTD SVG 1.1//EN" "http://www.w3.org/Graphics/SVG/1.1/DTD/svg11.dtd">
<svg version="1.1" id="Layer_1" xmlns="http://www.w3.org/2000/svg" xmlns:xlink="http://www.w3.org/1999/xlink" x="0px" y="0px"
	 width="595.28px" height="698px" viewBox="0 0 595.28 698" enable-background="new 0 0 595.28 698" xml:space="preserve">
<g id="New_Symbol">
	<path fill="none" stroke="#010101" stroke-linecap="round" stroke-linejoin="round" stroke-miterlimit="10" d="M100.616,400.605
		c0,0,41.71-281.585,194.264-282.059c152.55-0.473,149.126,244.452,155.32,253.876c6.193,9.424,117.908,19.188,117.318,31.084
		c-0.587,11.887-38.909,13.841-42.258,24.89c-3.359,11.058,61.612,65.485,55.91,74.318c-5.704,8.841-53.17-23.697-58.872-14.857
		c-5.701,8.834-7.573,74.663-15.614,81.273c-8.041,6.616-15.522-33.379-33.831-17.811c-18.305,15.566-21.336,55.4-31.726,59.791
		c-10.388,4.391-19.537-30.077-41.274-23.099c-21.739,6.98-22.672,39.901-35.823,43.454c-13.152,3.545-22.722-29.543-40.022-27.241
		c-17.295,2.292-39.7,61.896-51.838,64.248c-12.136,2.344-27.728-50.688-48.036-58.353c-20.311-7.675-42.904,51.873-60.745,50.982
		c-17.839-0.888-23.715-66.051-40.416-75.646c-16.701-9.593-43.517,29.03-58.002,17.101c-14.483-11.938,25.167-82.905,15.247-94.969
		c-9.92-12.065-55.197,2.868-55.197,2.868L100.616,400.605z"/>
	<path fill="none" stroke="#010101" stroke-linecap="round" stroke-linejoin="round" stroke-miterlimit="10" d="M376.575,217.273
		c0,0-58.946,50.02-58.57,63.717c0.368,13.689,62.837,26.617,62.837,26.617"/>
	<path fill="none" stroke="#010101" stroke-linecap="round" stroke-linejoin="round" stroke-miterlimit="2" d="M202.11,235.251
		c0,0,83.072,44.494,88.555,46.322c-10.317,9.121-69.259,59.131-69.259,59.131"/>
	<path fill="none" stroke="#010101" stroke-linecap="round" stroke-linejoin="round" stroke-miterlimit="10" d="M424.173,231.724
		c0,0,91.429-109.564,86.634-198.163c-10.566,7.826-66.912,101.839-121.98,130.386"/>
	<path fill="none" stroke="#010101" stroke-linecap="round" stroke-linejoin="round" stroke-miterlimit="10" d="M191.535,172.449
		c0,0-153.849-101.417-170.541-135.911c16.113,51.297,66.077,152.468,150.834,200.828"/>
	
		<line fill="none" stroke="#010101" stroke-linecap="round" stroke-linejoin="round" stroke-miterlimit="10" x1="297.053" y1="348.936" x2="302.587" y2="365.35"/>
	
		<line fill="none" stroke="#010101" stroke-linecap="round" stroke-linejoin="round" stroke-miterlimit="10" x1="335.328" y1="340.188" x2="335.691" y2="360.671"/>
	<path fill="none" stroke="#010101" stroke-linecap="round" stroke-linejoin="round" stroke-miterlimit="10" d="M470.686,460.303
		c-2.97-32.152-79.442-61.264-156.113-51.721c-76.675,9.544-184,31.296-184.576,48.09c-0.571,16.811,2.999,34.866,19.767,46.744
		c16.765,11.879,34.846,34.351,56.418,34.104c21.579-0.237,77.757,12.285,97.484,6.956c19.726-5.331,60.936-14.324,84.396-20.788
		C411.528,517.233,474.639,503.18,470.686,460.303z"/>
	
		<line fill="none" stroke="#010101" stroke-linecap="round" stroke-linejoin="round" stroke-miterlimit="10" x1="391.998" y1="410.063" x2="381.787" y2="443.702"/>
	
		<line fill="none" stroke="#010101" stroke-linecap="round" stroke-linejoin="round" stroke-miterlimit="10" x1="433.229" y1="423.955" x2="423.398" y2="456.334"/>
	
		<line fill="none" stroke="#010101" stroke-linecap="round" stroke-linejoin="round" stroke-miterlimit="10" x1="323.568" y1="407.66" x2="319.385" y2="453.051"/>
	
		<line fill="none" stroke="#010101" stroke-linecap="round" stroke-linejoin="round" stroke-miterlimit="10" x1="256.896" y1="417.179" x2="259.454" y2="455.226"/>
	
		<line fill="none" stroke="#010101" stroke-linecap="round" stroke-linejoin="round" stroke-miterlimit="10" x1="199.749" y1="428.5" x2="207.032" y2="467.611"/>
	
		<line fill="none" stroke="#010101" stroke-linecap="round" stroke-linejoin="round" stroke-miterlimit="10" x1="238.845" y1="540.694" x2="226.557" y2="492.781"/>
	
		<line fill="none" stroke="#010101" stroke-linecap="round" stroke-linejoin="round" stroke-miterlimit="10" x1="291.244" y1="545.753" x2="286.892" y2="499.771"/>
	
		<line fill="none" stroke="#010101" stroke-linecap="round" stroke-linejoin="round" stroke-miterlimit="10" x1="349.869" y1="530.212" x2="351.018" y2="492.866"/>
	
		<line fill="none" stroke="#010101" stroke-linecap="round" stroke-linejoin="round" stroke-miterlimit="10" x1="404.303" y1="519.237" x2="399.673" y2="489.185"/>
</g>
</svg>
