<?xml version="1.0" encoding="utf-8"?>
<!-- Generator: Adobe Illustrator 16.0.0, SVG Export Plug-In . SVG Version: 6.00 Build 0)  -->
<!DOCTYPE svg PUBLIC "-//W3C//DTD SVG 1.1//EN" "http://www.w3.org/Graphics/SVG/1.1/DTD/svg11.dtd">
<svg version="1.1" id="Layer_1" xmlns="http://www.w3.org/2000/svg" xmlns:xlink="http://www.w3.org/1999/xlink" x="0px" y="0px"
	 width="245px" height="841.89px" viewBox="0 0 245 841.89" enable-background="new 0 0 245 841.89" xml:space="preserve">
<g>
	<path fill="none" stroke="#231F20" stroke-miterlimit="10" d="M182.011,492.219c0,0,23.468-9.388,20.651-19.713
		c-2.816-10.326-91.993,2.815-113.583,9.855c-21.59,7.041-21.59,14.551-12.203,17.366
		C86.263,502.544,182.011,492.219,182.011,492.219z"/>
	<path fill="none" stroke="#231F20" stroke-miterlimit="10" d="M94.711,500.219c0,0,21.59,272.672,64.771,297.078
		c0,0,45.996,31.916,49.751-10.326c3.755-42.241-17.836-263.775-27.223-294.752"/>
	<line fill="none" stroke="#231F20" stroke-miterlimit="10" x1="120.937" y1="498.056" x2="136.895" y2="759.147"/>
	<line fill="none" stroke="#231F20" stroke-miterlimit="10" x1="159.482" y1="498.056" x2="178.887" y2="806.845"/>
	<line fill="none" stroke="#231F20" stroke-miterlimit="10" x1="97.491" y1="530.713" x2="188.135" y2="525.945"/>
	<line fill="none" stroke="#231F20" stroke-miterlimit="10" x1="102.147" y1="573.886" x2="193.715" y2="569.896"/>
	<line fill="none" stroke="#231F20" stroke-miterlimit="10" x1="111.835" y1="645.638" x2="202.896" y2="652.458"/>
	<line fill="none" stroke="#231F20" stroke-miterlimit="10" x1="123.246" y1="708.252" x2="209.666" y2="708.252"/>
	<line fill="none" stroke="#231F20" stroke-miterlimit="10" x1="136.895" y1="765.381" x2="209.666" y2="765.381"/>
	<path fill="none" stroke="#231F20" stroke-linecap="round" stroke-linejoin="round" stroke-miterlimit="10" d="M173.283,468.691
		L112.547,74.499c0,0-11.265-43.18-58.2-43.18c-11.264,13.142,3.754,43.18,18.774,60.077c-15.02,15.02-22.705,30.039-22.705,30.039
		s22.705,26.283,22.705,35.67s-22.705,28.161-22.705,28.161c0.176,11.264,28.337,35.67,28.337,48.813s-28.616,8.76-28.337,22.529
		c0.257,12.797,33.97,26.284,33.97,41.303c0,15.02-24.685,0-22.529,22.529c2.156,22.529,37.548,20.651,37.548,43.18
		s-28.161,24.406-28.161,24.406s39.059,26.284,40.181,41.303c1.122,15.016-23.284,26.28-19.529,52.563"/>
</g>
</svg>
