<?xml version="1.0" encoding="utf-8"?>
<!-- Generator: Adobe Illustrator 16.0.0, SVG Export Plug-In . SVG Version: 6.00 Build 0)  -->
<!DOCTYPE svg PUBLIC "-//W3C//DTD SVG 1.1//EN" "http://www.w3.org/Graphics/SVG/1.1/DTD/svg11.dtd">
<svg version="1.1" id="Layer_1" xmlns="http://www.w3.org/2000/svg" xmlns:xlink="http://www.w3.org/1999/xlink" x="0px" y="0px"
	 width="595.28px" height="622px" viewBox="0 0 595.28 622" enable-background="new 0 0 595.28 622" xml:space="preserve">
<g>
	<path fill="none" stroke="#231F20" stroke-linecap="round" stroke-linejoin="round" stroke-miterlimit="10" d="M313.786,206.161
		c-67.501,8.999-59.125-52.79-111.915-73.906c-52.79-21.116-259.727,14.781-158.37,331.518
		c44.344,61.236,80.241,122.473,270.285,126.696c190.044,4.223,230.165-118.25,257.616-190.045
		c27.45-71.795,25.05-210.595-46.456-247.053C417.255,98.469,377.135,197.714,313.786,206.161z"/>
	<path fill="none" stroke="#231F20" stroke-linecap="round" stroke-linejoin="round" stroke-miterlimit="10" d="M96.291,315.96
		c0,0,63.348,38.009,118.25,31.674"/>
	<path fill="none" stroke="#231F20" stroke-linecap="round" stroke-linejoin="round" stroke-miterlimit="10" d="M404.585,358.967
		c0,0,86.576-0.775,120.361-43.007"/>
	<path fill="none" stroke="#231F20" stroke-linecap="round" stroke-linejoin="round" stroke-miterlimit="10" d="M503.83,210.384
		c0,0,48.567,16.893,52.791,95.022"/>
	<path fill="none" stroke="#231F20" stroke-linecap="round" stroke-linejoin="round" stroke-miterlimit="10" d="M427.813,358.967
		c0,0-31.674-76.788,0-83.123s57.896,45.791,60.618,66.182"/>
	<path fill="none" stroke="#231F20" stroke-linecap="round" stroke-linejoin="round" stroke-miterlimit="10" d="M129.73,332.16
		c0,0,13.016-77.433,42.578-74.265s31.633,73.375,18.984,90.003"/>
	<path fill="none" stroke="#231F20" stroke-linecap="round" stroke-linejoin="round" stroke-miterlimit="10" d="M138.523,179.419
		c0,0-81.652,25.331-71.795,152.741"/>
	<path fill="none" stroke="#231F20" stroke-linecap="round" stroke-linejoin="round" stroke-miterlimit="10" d="M86.438,445.477
		c0,0,4.219,52.098,68.978,90.106"/>
	<path fill="none" stroke="#231F20" stroke-linecap="round" stroke-linejoin="round" stroke-miterlimit="10" d="M120.929,424.361
		c0,0,42.933,29.563,93.612,38.009c50.678,8.446,74.615,14.088,106.99,12.669c32.375-1.402,139.539-15.474,166.899-50.678"/>
	<path fill="none" stroke="#231F20" stroke-linecap="round" stroke-linejoin="round" stroke-miterlimit="10" d="M539.728,415.914
		c0,0-23.929,44.08-35.897,59.34"/>
	<polyline fill="none" stroke="#231F20" stroke-linecap="round" stroke-linejoin="round" stroke-miterlimit="10" points="
		276.482,383.548 304.68,424.361 341.237,383.548 	"/>
	<polyline fill="none" stroke="#231F20" stroke-linecap="round" stroke-linejoin="round" stroke-miterlimit="10" points="
		182.116,454.072 192.019,508.825 225.957,464.3 	"/>
	<polyline fill="none" stroke="#231F20" stroke-linecap="round" stroke-linejoin="round" stroke-miterlimit="10" points="
		404.585,462.897 445.406,501.797 451.082,449.815 	"/>
	<path fill="none" stroke="#231F20" stroke-linecap="round" stroke-linejoin="round" stroke-miterlimit="10" d="M243.394,168.275
		c0,0-27.339-76.133-39.357-94.437c58.37,57.715,100.644,133.089,100.644,133.089s37.968-95.08,85.825-133.089
		c-5.625,45.045-21.792,105.58-21.792,105.58"/>
	<path fill="none" stroke="#231F20" stroke-linecap="round" stroke-linejoin="round" stroke-miterlimit="10" d="M381.068,127.347
		c1.072-5.105,54.49-53.508,54.49-53.508l-27.245,78.93"/>
	<path fill="none" stroke="#231F20" stroke-linecap="round" stroke-linejoin="round" stroke-miterlimit="10" d="M284.38,174.148
		c0,0,4.776-124.238,24.481-142.542c19.706-18.303,32.376-8.447,32.376,0c0,8.446-39.411,146.55-32.376,165.48"/>
	<path fill="none" stroke="#231F20" stroke-linecap="round" stroke-linejoin="round" stroke-miterlimit="10" d="M451.082,353.507
		c0,0-6.995-33.802,0-36.376c6.994-2.573,13.684,30.768,13.684,30.768"/>
	<path fill="none" stroke="#231F20" stroke-linecap="round" stroke-linejoin="round" stroke-miterlimit="10" d="M155.416,335.245
		c0,0,0.644-27.731,8.768-29.839c8.125-2.104,5.312,32.049,5.312,32.049"/>
</g>
</svg>
