<?xml version="1.0" encoding="utf-8"?>
<!-- Generator: Adobe Illustrator 16.0.0, SVG Export Plug-In . SVG Version: 6.00 Build 0)  -->
<!DOCTYPE svg PUBLIC "-//W3C//DTD SVG 1.1//EN" "http://www.w3.org/Graphics/SVG/1.1/DTD/svg11.dtd">
<svg version="1.1" id="Layer_1" xmlns="http://www.w3.org/2000/svg" xmlns:xlink="http://www.w3.org/1999/xlink" x="0px" y="0px"
	 width="595.28px" height="463px" viewBox="0 0 595.28 463" enable-background="new 0 0 595.28 463" xml:space="preserve">
<g>
	<path fill="none" stroke="#231F20" stroke-linecap="round" stroke-linejoin="round" stroke-miterlimit="10" d="M339.972,37.954
		c0,0,136.227-49,191.569,59.554c21.291,57.475-21.282,100.034-21.282,100.034l-12.771-36.177l-42.573,46.83l-16.177-42.574
		c0,0-26.396,55.344-73.219,53.211c-46.83-2.132,6.381-76.899-25.548-95.921c-31.924-19.021-68.105-59.463-148.992,0"/>
	<path fill="none" stroke="#231F20" stroke-linecap="round" stroke-linejoin="round" stroke-miterlimit="10" d="M350.625,141.918
		c0,0-138.362,19.454-93.664,104.594c44.697,85.132,214.98,72.362,274.58,65.974c59.601-6.389,45.973,65.988,5.964,65.988
		c21.708,19.159,8.733,30.979-5.964,31.929c0,0-191.569,12.77-276.705,12.77c-85.139,0-200.09-93.652-189.444-189.43
		c10.645-95.785,80.894-180.917,219.245-185.181c42.566-31.929,125.581,14.887,148.996,53.203"/>
	<path fill="none" stroke="#231F20" stroke-linecap="round" stroke-linejoin="round" stroke-miterlimit="10" d="M190.979,255.018
		c0,0,12.763,93.66,155.381,93.66"/>
	<path fill="none" stroke="#231F20" stroke-linecap="round" stroke-linejoin="round" stroke-miterlimit="10" d="M137.769,159.232
		c0,0-104.306,219.241,193.694,232.012"/>
	
		<line fill="none" stroke="#231F20" stroke-linecap="round" stroke-linejoin="round" stroke-miterlimit="10" x1="16.44" y1="440.198" x2="520.941" y2="411.093"/>
</g>
</svg>
