<?xml version="1.0" encoding="utf-8"?>
<!-- Generator: Adobe Illustrator 16.0.0, SVG Export Plug-In . SVG Version: 6.00 Build 0)  -->
<!DOCTYPE svg PUBLIC "-//W3C//DTD SVG 1.1//EN" "http://www.w3.org/Graphics/SVG/1.1/DTD/svg11.dtd">
<svg version="1.1" id="Layer_1" xmlns="http://www.w3.org/2000/svg" xmlns:xlink="http://www.w3.org/1999/xlink" x="0px" y="0px"
	 width="595.28px" height="768px" viewBox="0 0 595.28 768" enable-background="new 0 0 595.28 768" xml:space="preserve">
<g>
	<path fill="none" stroke="#231F20" stroke-linecap="round" stroke-linejoin="round" stroke-miterlimit="10" d="M244.86,235.749
		c-1.545,4.64-82.746,187.146-75.786,326.348c6.96,139.201,96.281,174.002,154.282,172.842c58-1.16,153.121-46.4,182.121-209.962
		c29-163.559-27.84-238.96-49.88-274.92"/>
	<path fill="none" stroke="#231F20" stroke-linecap="round" stroke-linejoin="round" stroke-miterlimit="10" d="M222.711,292.231
		l61.204,7.706c0,0,31.32,10.44,62.641,10.44s133.913-18.146,133.913-18.146"/>
	<path fill="none" stroke="#231F20" stroke-linecap="round" stroke-linejoin="round" stroke-miterlimit="10" d="M507.507,371.692
		c0,0-26.391,23.363-58.87,21.043c-32.48-2.32-76.933-4.313-97.047,0.163s-159.207-4.866-157.635-10.604"/>
	<path fill="none" stroke="#231F20" stroke-linecap="round" stroke-linejoin="round" stroke-miterlimit="10" d="M513.543,455.63
		c0,0-45.187,7.866-66.066,15.986c-20.881,8.12-85.841,27.478-111.361,13.739c-25.521-13.739-85.841-34.112-93.961-29.726
		c-8.12,4.386-63.324-8.283-63.324-8.283"/>
	<path fill="none" stroke="#231F20" stroke-linecap="round" stroke-linejoin="round" stroke-miterlimit="10" d="M168.675,544.697
		c0,0,59.559,22.039,90.879,20.88c31.32-1.16,54.049,13.92,81.545,11.6c27.496-2.319,98.257-2.319,112.177-8.12
		c13.92-5.8,44.275-7.993,44.275-7.993"/>
	<path fill="none" stroke="#231F20" stroke-linecap="round" stroke-linejoin="round" stroke-miterlimit="10" d="M178.83,623.098
		c0,0,54.044,9.76,87.685,9.76c33.641,0,53.777,6.96,79.669,10.44c25.893,3.479,42.132,11.6,64.172,6.96
		c22.041-4.641,56.791-12.878,56.791-12.878"/>
	<path fill="none" stroke="#231F20" stroke-linecap="round" stroke-linejoin="round" stroke-miterlimit="10" d="M297.835,257.017
		c0,0-12.76,23.78-13.92,42.92s0.58,92.581,0,94.139c-0.58,1.56,0.58,78.057-4.06,96.073c-4.64,18.007-22.022,85.197-16.811,142.663
		c1.731,34.266,15.959,87.137,23.345,98.111"/>
	<path fill="none" stroke="#231F20" stroke-linecap="round" stroke-linejoin="round" stroke-miterlimit="10" d="M420.796,257.017
		c0,0,28.421,55.101,30.16,93.961c1.74,38.857,6.38,77.718,6.38,82.938c0,5.22,0,56.233,0,56.233s-12.18,63.827-18.27,84.708
		c-6.09,20.88-7.25,47.561-18.271,67.28c-11.02,19.72-30.083,73.923-34.687,76.198"/>
	<path fill="none" stroke="#231F20" stroke-linecap="round" stroke-linejoin="round" stroke-miterlimit="10" d="M196.334,101.575
		c0,0-42.34,8.12-51.62,11.02c-9.28,2.9-27.84,30.74-39.44,62.641S26.973,509.316,26.973,509.316s-15.66,79.461-15.66,110.201
		c20.88,40.021,41.76,35.96,49.88,32.136s-2.9-35.036,0-41.407s43.5-0.589,58.581-0.009s16.82-31.32,15.66-41.181
		c-1.16-9.859-39.44-35.38-45.24-59.74c-5.8-24.36,62.641-19.721,74.82-23.961c12.18-4.242,5.22-24.76,3.639-46.22
		c-1.581-21.46-18.139-27.26-18.139-27.26s-37.12-40.019-38.28-64.379c-1.16-24.36,36.54-23.2,45.82-25.52
		s31.32-22.04,35.888-36.541c4.568-14.5-27.188-38.28-25.266-58c1.921-19.721,42.739-12.181,42.739-12.181"/>
	<path fill="none" stroke="#231F20" stroke-linecap="round" stroke-linejoin="round" stroke-miterlimit="10" d="M475.896,124.195
		c-3.462,23.073-84.681,33.64-111.361,24.94c-26.68-8.7-183.281-22.62-161.241-56.841c22.041-34.22,129.559-2.32,147.431,0
		C368.596,94.615,479.377,100.995,475.896,124.195z"/>
	<path fill="none" stroke="#231F20" stroke-linecap="round" stroke-linejoin="round" stroke-miterlimit="10" d="M201.174,93.455
		c0,0-27.46,33.061,10.24,119.481c33.446,22.813,61.48,41.18,84.101,44.081c22.62,2.9,67.861-4.06,86.42-2.9
		c0,0-4.64,25.521-3.479,47.189c1.159,21.669-5.221,93.17-9.86,126.81c-4.641,33.641-5.8,30.74-5.8,44.081
		c0,13.34-8.7,81.2-11.17,96.28s-1.011,58.001-0.036,75.637s-18.501,86.72-18.488,90.227"/>
	<path fill="none" stroke="#231F20" stroke-linecap="round" stroke-linejoin="round" stroke-miterlimit="10" d="M475.979,118.396
		c0,0,27.4,38.597,14.418,86.42c-14.418,53.107-72.5,60.901-108.461,49.3"/>
	<path fill="none" stroke="#231F20" stroke-linecap="round" stroke-linejoin="round" stroke-miterlimit="10" d="M220.114,142.176
		c0,0,17.749,0.299,38.516,20.617c8.07,7.896,16.593,18.812,24.705,33.903c-14.5,3.48-37.7,11.02-49.88-13.34
		C221.274,158.996,220.114,142.176,220.114,142.176z"/>
	<path fill="none" stroke="#231F20" stroke-linecap="round" stroke-linejoin="round" stroke-miterlimit="10" d="M247.955,171.38
		c5.515,8.439,14.174-5.035,12.425-6.811C258.63,162.793,246.074,168.502,247.955,171.38z"/>
	<path fill="none" stroke="#231F20" stroke-linecap="round" stroke-linejoin="round" stroke-miterlimit="10" d="M398.176,208.876
		c0-1.74,11.601-29.462,27.261-34.741c15.66-5.279,31.899-2.755,31.899-2.755s-5.791,23.812-19.425,29.204
		C424.276,205.976,398.176,208.876,398.176,208.876z"/>
	<path fill="none" stroke="#231F20" stroke-linecap="round" stroke-linejoin="round" stroke-miterlimit="10" d="M421.721,178.716
		c0,0-5.456,15.683,0,9.872C427.176,182.776,421.721,178.716,421.721,178.716z"/>
	<path fill="none" stroke="#231F20" stroke-linecap="round" stroke-linejoin="round" stroke-miterlimit="10" d="M320.455,184.298
		c0,0-26.1-3.262-22.62,46.038c8.7-12.76,11.151-20.314,11.151-20.314s15.529,9.874,21.909,20.314c6.96-5.8,23.78-17.4,23.78-17.4
		l16.82,22.813l10.439-22.813l18.561,22.813c0,0-12.181-50.508-37.12-51.451"/>
	<path fill="none" stroke="#231F20" stroke-linecap="round" stroke-linejoin="round" stroke-miterlimit="10" d="M357.082,216.201
		c0,0-1.6-65.906,29.027-86.786c30.627-20.88,53.827-23.2,99.647-27.84s48.141-13.92,66.12-34.22
		c17.98-20.3,20.301-24.94,33.061-27.84c-22.62,4.64-36.54,9.86-43.5,22.04c4.64-19.14,9.859-34.22,20.88-42.34
		c-25.521,11.02-51.04,54.521-71.341,60.321c-20.3,5.8-117.609-7.516-141.97,34.825c-24.36,42.34-31.959,65.874-28.493,104.398"/>
</g>
</svg>
