<?xml version="1.0" encoding="utf-8"?>
<!-- Generator: Adobe Illustrator 16.0.0, SVG Export Plug-In . SVG Version: 6.00 Build 0)  -->
<!DOCTYPE svg PUBLIC "-//W3C//DTD SVG 1.1//EN" "http://www.w3.org/Graphics/SVG/1.1/DTD/svg11.dtd">
<svg version="1.1" id="Layer_1" xmlns="http://www.w3.org/2000/svg" xmlns:xlink="http://www.w3.org/1999/xlink" x="0px" y="0px"
	 width="595.28px" height="614px" viewBox="0 0 595.28 614" enable-background="new 0 0 595.28 614" xml:space="preserve">
<g>
	<path fill="none" stroke="#231F20" stroke-linecap="round" stroke-linejoin="round" stroke-miterlimit="10" d="M426.737,76.135
		c0,0-41.829-29.048-104.573,31.372c-29.048,4.648-16.267-23.238-39.506-13.943c-23.238,9.295-48.801,27.721-48.801,27.721
		l-32.534-14.939c0,0-26.725-10.458-33.696,5.229c-11.039-10.458-57.516-38.925-82.497-19.753s-26.724,13.612-31.372,29.464
		c-4.647,15.852-6.972,22.823-6.391,36.185c0.581,13.362,7.553,13.943,5.81,24.4c-1.743,10.458-18.591,25.563-22.657,49.963
		c-4.067,24.4,2.324,37.763,0,47.058c-2.324,9.295-29.629,18.591-20.334,57.516c9.295,38.924,66.23,33.115,80.173,48.22
		c13.943,15.105,22.658,52.287,47.058,59.839"/>
	<path fill="none" stroke="#231F20" stroke-linecap="round" stroke-linejoin="round" stroke-miterlimit="10" d="M129.479,440.672
		c0,0-7.167,10.766,2.709,23.547s26.143,16.848,26.724,27.306c0.581,10.457-17.429,33.114-3.485,47.058
		c13.943,13.943,59.258,37.763,106.316-26.724"/>
	<path fill="none" stroke="#231F20" stroke-linecap="round" stroke-linejoin="round" stroke-miterlimit="10" d="M227.826,544.837
		c1.252-0.771,11.841,23.956,28.108,26.86s34.858,11.619,44.734,15.686c9.877,4.067,16.849,3.486,25.563-3.485
		c8.715-6.972,51.706-39.079,51.706-39.079"/>
	<path fill="none" stroke="#231F20" stroke-linecap="round" stroke-linejoin="round" stroke-miterlimit="10" d="M366.898,520.572
		c0,0-1.162,22.077,16.848,28.468s55.191,2.323,63.325-6.972c8.134-9.296,20.334-19.753,25.563-32.534s4.647-22.657,12.2-33.696
		c7.553-11.038,12.2-18.591,15.686-25.563c3.486-6.971,8.134-10.457,11.039-30.791c2.904-20.333,1.161-28.467,13.361-36.02
		c12.2-7.552,37.763-19.172,35.439-41.248c-2.324-22.077-23.239-40.667-22.658-51.706c0.581-11.038,16.268-30.273,5.229-50.575
		c-11.038-20.302-42.991-28.254-47.058-42.869c-4.066-14.615-2.324-52.958-17.429-61.673"/>
	<path fill="none" stroke="#231F20" stroke-linecap="round" stroke-linejoin="round" stroke-miterlimit="10" d="M282.078,358.483
		c0,0-2.905-110.383,0-112.126c2.905-1.743,28.467-50.543,37.762-55.772c9.296-5.229,45.896-17.429,52.868-19.752
		s54.029-19.739,61.001-38.337s4.647-31.379,0-41.255c-4.647-9.876-29.629-50.543,32.534-70.296
		c-22.077,25.563-18.01,38.906-14.524,48.211c9.877-17.42,37.182-34.268,51.706-31.944c0,0-29.629,12.781-31.372,38.924
		c-1.743,26.144,12.781,49.382,4.647,63.325s-70.297,44.734-97.021,61.001c-26.725,16.267-55.191,19.172-54.03,88.888
		c1.162,69.715,4.067,85.401,4.067,85.401"/>
	<path fill="none" stroke="#231F20" stroke-linecap="round" stroke-linejoin="round" stroke-miterlimit="10" d="M305.316,278.311
		c-0.581-1.162-2.905,37.953,0,65.454"/>
	<path fill="none" stroke="#231F20" stroke-linecap="round" stroke-linejoin="round" stroke-miterlimit="10" d="M134.513,132.496
		c0,0,42.41,2.317,77.849,40.08c-22.508,5.102-76.687-15.105-77.849-37.182"/>
	
		<line fill="none" stroke="#231F20" stroke-linecap="round" stroke-linejoin="round" stroke-miterlimit="10" x1="186.219" y1="143.707" x2="177.504" y2="173.372"/>
	<path fill="none" stroke="#231F20" stroke-linecap="round" stroke-linejoin="round" stroke-miterlimit="10" d="M333.783,165.604
		c-1.743-0.002,14.524-41.829,80.173-56.934C392.461,138.879,373.811,165.681,333.783,165.604z"/>
	
		<line fill="none" stroke="#231F20" stroke-linecap="round" stroke-linejoin="round" stroke-miterlimit="10" x1="361.116" y1="131.956" x2="370.216" y2="156.088"/>
	<path fill="none" stroke="#231F20" stroke-linecap="round" stroke-linejoin="round" stroke-miterlimit="10" d="M254.772,215.566
		c0,0,12.2-9.295,6.971-17.719c-5.229-8.424-8.714-10.167-15.105-5.519s1.307,15.196,8.206,10.357"/>
	<path fill="none" stroke="#231F20" stroke-linecap="round" stroke-linejoin="round" stroke-miterlimit="10" d="M297.764,189.807
		c8.134,1.359,10.457-5.612,7.553-10.841c-2.905-5.229-31.953,6.391-13.943,32.534"/>
	<path fill="none" stroke="#231F20" stroke-linecap="round" stroke-linejoin="round" stroke-miterlimit="10" d="M94.426,211.5
		c-13.362,11.619-5.81,44.734-14.524,61.001c-6.44,12.028-34.794,48.71-31.063,66.865c1.312,6.404,8.987,14.47,18.282,10.403"/>
	<path fill="none" stroke="#231F20" stroke-linecap="round" stroke-linejoin="round" stroke-miterlimit="10" d="M120.57,288.187
		c0,0-2.905,15.35-11.62,22.78"/>
	<path fill="none" stroke="#231F20" stroke-linecap="round" stroke-linejoin="round" stroke-miterlimit="10" d="M173.438,519.991
		l33.696-22.335l20.692-17.751l5.451-19.753c0,0-85.982-34.277-98.764-55.772c-2.324,20.334,15.105,77.849,51.706,102.249"/>
	<path fill="none" stroke="#231F20" stroke-linecap="round" stroke-linejoin="round" stroke-miterlimit="10" d="M177.504,421.809
		c0,0-34.857-27.886-26.143-102.25c6.391,9.876,48.356,95.278,76.465,110.964"/>
	<path fill="none" stroke="#231F20" stroke-linecap="round" stroke-linejoin="round" stroke-miterlimit="10" d="M186.219,374.75
		c0,0-34.277-69.715-27.306-103.992c16.848,24.4,94.733,118.516,94.733,118.516l2.869-35.438l18.01,29.629l10.998-27.886l17.36,24.4
		l12.891-25.563l9.295,27.305l20.915-30.854v27.95"/>
	<path fill="none" stroke="#231F20" stroke-linecap="round" stroke-linejoin="round" stroke-miterlimit="10" d="M345.983,366.036
		c0,0,43.572-76.106,51.706-106.897c9.295-5.229,6.972,77.85,2.904,97.021"/>
	<path fill="none" stroke="#231F20" stroke-linecap="round" stroke-linejoin="round" stroke-miterlimit="10" d="M353.536,437.494
		c0,0,66.811-120.259,77.849-132.459c11.039-12.2,6.391,126.922-4.647,143.771"/>
	<path fill="none" stroke="#231F20" stroke-linecap="round" stroke-linejoin="round" stroke-miterlimit="10" d="M382.003,471.771
		c0,0-3.612,28.467,10.104,39.506c13.716,11.038,34.05,5.229,41.603,0s59.258-80.754,53.448-109.802
		c-10.457-18.591-56.054,67.392-105.585,67.392"/>
	<path fill="none" stroke="#231F20" stroke-linecap="round" stroke-linejoin="round" stroke-miterlimit="10" d="M503.425,353.255
		c15.104-17.429,6.972-34.613,3.485-42.288c-3.485-7.675-59.703-47.762-43.214-79.134"/>
	<path fill="none" stroke="#231F20" stroke-linecap="round" stroke-linejoin="round" stroke-miterlimit="10" d="M100.699,400.263
		c0,0-46.94,96.49-49.264,111.595c0,0-2.932-36.601-0.581-46.478c-15.078,19.753-24.981,38.925-24.981,38.925
		s8.714-81.866,56.354-127.762"/>
	<path fill="none" stroke="#231F20" stroke-linecap="round" stroke-linejoin="round" stroke-miterlimit="10" d="M521.525,385.902
		c0,0,59.167,48.106,68.463,88.193c-15.687-11.619-27.006-18.428-29.479-15.896c-2.474,2.533,12.051,26.997,7.403,39.456
		c-11.039-22.398-56.354-78.172-56.354-78.172"/>
	<path fill="none" stroke="#231F20" stroke-linecap="round" stroke-linejoin="round" stroke-miterlimit="10" d="M141.484,222.538
		c0,0,46.613,109.221,86.341,125.488c-10.816-33.115-15.464-92.736-7.331-112.889"/>
	<path fill="none" stroke="#231F20" stroke-linecap="round" stroke-linejoin="round" stroke-miterlimit="10" d="M413.956,211.5
		c0,0-33.695,102.831-56.354,118.517c-4.647-13.943-1.743-76.106-8.714-98.183"/>
	<polyline fill="none" stroke="#231F20" stroke-linecap="round" stroke-linejoin="round" stroke-miterlimit="10" points="
		353.781,275.419 339.593,307.94 325.854,275.419 	"/>
	<polyline fill="none" stroke="#231F20" stroke-linecap="round" stroke-linejoin="round" stroke-miterlimit="10" points="
		280.789,268.435 263.046,312.47 246.639,275.419 237.924,312.47 217.5,278.283 	"/>
</g>
</svg>
