<?xml version="1.0" encoding="utf-8"?>
<!-- Generator: Adobe Illustrator 16.0.0, SVG Export Plug-In . SVG Version: 6.00 Build 0)  -->
<!DOCTYPE svg PUBLIC "-//W3C//DTD SVG 1.1//EN" "http://www.w3.org/Graphics/SVG/1.1/DTD/svg11.dtd">
<svg version="1.1" id="Layer_1" xmlns="http://www.w3.org/2000/svg" xmlns:xlink="http://www.w3.org/1999/xlink" x="0px" y="0px"
	 width="595.28px" height="566px" viewBox="0 0 595.28 566" enable-background="new 0 0 595.28 566" xml:space="preserve">
<g>
	<path fill="none" stroke="#010101" stroke-linecap="round" stroke-linejoin="round" stroke-miterlimit="10" d="M356.309,78.689
		c0,0,12.631,5.728,34.932,8.971c22.302,3.243,18.613-5.208,4.272-13.105C381.173,66.658,352.723,67.452,356.309,78.689z"/>
	<path fill="none" stroke="#010101" stroke-linecap="round" stroke-linejoin="round" stroke-miterlimit="10" d="M380.47,84.148
		c0,0-0.274-9.754,2.848-8.737C386.443,76.431,380.47,84.148,380.47,84.148z"/>
	<path fill="none" stroke="#010101" stroke-linecap="round" stroke-linejoin="round" stroke-miterlimit="10" d="M181.973,77.056
		c0,0-4.111-11.43-1-11.09C184.083,66.308,181.973,77.056,181.973,77.056"/>
	<path fill="none" stroke="#010101" stroke-linecap="round" stroke-linejoin="round" stroke-miterlimit="10" d="M151.189,133.446
		c0,0-28.891,208.054,17.766,305.42c9.787,15.272,54.185,42.154,75.533,3.845c14.958,20.822,37.895,46.824,68.597,2.062
		c20.007,22.632,53.01,32.584,63.247,6.12c32.953,2.688,47.832,18.813,53.497-3.503c5.664-22.317,0.515-125.123,7-159.837
		c6.482-34.714-1.127-100.021-12.144-129.386c-7.45-3.234-16.425-5.354-16.425-5.354"/>
	<path fill="none" stroke="#010101" stroke-linecap="round" stroke-linejoin="round" stroke-miterlimit="10" d="M239.666,432.92
		c0,0,1.053-18.182,7.874-37.705c6.818-19.525,14.051-46.969,28.179-59.279c1.245,17.321,15.835,38.992,15.835,38.992
		s6.899-18.693,11.868-36.404c3.262,17.174,30.075,43.635,30.075,43.635s5.968-13.36,11.9-31.562
		c28.668,50.424,30.666,96.181,30.666,96.181s17.105-50.001,22.548-69.168c5.442-19.168,7.584-238.223,7.584-238.223l-28.203,53.497
		l-25.033-53.266l-28.347,46.335l-17.932-50.146l-18.134,55.625l-31.771-58.2c0,0-12.125,44.608-24.151,51.848
		c-17.077-24.209-35.645-48.788-37.829-49.5s0.96,49.559,0.96,49.559s-50.941-27.191-42.429-58.245
		c20.765-9.34,41.469,8.686,41.469,8.686s33.58-50.504,61.98-2.348c20.614-13.819,39.352-24.357,49.905,2.576
		c14.212-13.949,43.722-28.968,46.278,3.811c12.797-24.426,49.068-19.567,53.236-0.231"/>
	<path fill="none" stroke="#010101" stroke-linecap="round" stroke-linejoin="round" stroke-miterlimit="10" d="M165.546,431.204
		l14.446-44.317l64.496,55.824c0,0,5.949-23.193,20.398-35.397c20.721,20.447,48.198,37.459,48.198,37.459
		s15.777-31.102,26.856-40.379c10.272,15.433,36.391,46.499,36.391,46.499l22.278-73.283c0,0,27.951,59.748,29.647,74.453"/>
	<path fill="none" stroke="#010101" stroke-linecap="round" stroke-linejoin="round" stroke-miterlimit="10" d="M372.423,181.031
		c0,0-30.365,106.695-19.842,157.41c-15.536-23.993-23.467-33.022-23.467-33.022L310.188,336.3l-3.913-29.26l-21.19,23.493
		l-7.165-28.513l-18.859,30.097c0,0-7.584-66.505-17.842-79.514c-10.257-13.009-87.092-86.831-90.75-113.575"/>
	<path fill="none" stroke="#010101" stroke-linecap="round" stroke-linejoin="round" stroke-miterlimit="10" d="M351.954,284.681
		c0,0-100.446-0.509-100.373-0.177"/>
	<path fill="none" stroke="#010101" stroke-linecap="round" stroke-linejoin="round" stroke-miterlimit="10" d="M356.6,251.507
		c0,0,26.626,56.935,5.48,134.852"/>
	<path fill="none" stroke="#010101" stroke-linecap="round" stroke-linejoin="round" stroke-miterlimit="10" d="M228.354,238.533
		c0,0-10.898,41.781-12.994,82.157c-1.151,22.178,9.794,53.201,33.722,69.791"/>
	<path fill="none" stroke="#010101" stroke-linecap="round" stroke-linejoin="round" stroke-miterlimit="10" d="M193.125,200.692
		c0,0-30.527,83.065-21.834,115.701c8.692,32.636,24.687,84.333,24.687,84.333"/>
	
		<line fill="none" stroke="#010101" stroke-linecap="round" stroke-linejoin="round" stroke-miterlimit="10" x1="405.943" y1="160.974" x2="359.266" y2="237.044"/>
	
		<line fill="none" stroke="#010101" stroke-linecap="round" stroke-linejoin="round" stroke-miterlimit="10" x1="405.566" y1="188.324" x2="357.809" y2="254.377"/>
	
		<line fill="none" stroke="#010101" stroke-linecap="round" stroke-linejoin="round" stroke-miterlimit="10" x1="405.188" y1="212.197" x2="361.737" y2="265.771"/>
	
		<line fill="none" stroke="#010101" stroke-linecap="round" stroke-linejoin="round" stroke-miterlimit="10" x1="404.768" y1="235.258" x2="367.748" y2="278.145"/>
	
		<line fill="none" stroke="#010101" stroke-linecap="round" stroke-linejoin="round" stroke-miterlimit="10" x1="402.609" y1="262.032" x2="367.791" y2="293.008"/>
	
		<line fill="none" stroke="#010101" stroke-linecap="round" stroke-linejoin="round" stroke-miterlimit="10" x1="403.787" y1="279.479" x2="369.411" y2="306.645"/>
	
		<line fill="none" stroke="#010101" stroke-linecap="round" stroke-linejoin="round" stroke-miterlimit="10" x1="403.264" y1="298.494" x2="370.152" y2="319.671"/>
	
		<line fill="none" stroke="#010101" stroke-linecap="round" stroke-linejoin="round" stroke-miterlimit="10" x1="402.656" y1="317.482" x2="370.07" y2="334.457"/>
	
		<line fill="none" stroke="#010101" stroke-linecap="round" stroke-linejoin="round" stroke-miterlimit="10" x1="401.835" y1="338.192" x2="368.986" y2="349.539"/>
	
		<line fill="none" stroke="#010101" stroke-linecap="round" stroke-linejoin="round" stroke-miterlimit="10" x1="400.641" y1="359.858" x2="367.222" y2="362.67"/>
	
		<line fill="none" stroke="#010101" stroke-linecap="round" stroke-linejoin="round" stroke-miterlimit="10" x1="398.61" y1="377.609" x2="366.744" y2="372.055"/>
	
		<line fill="none" stroke="#010101" stroke-linecap="round" stroke-linejoin="round" stroke-miterlimit="10" x1="393.661" y1="393.892" x2="364.033" y2="378.64"/>
	
		<line fill="none" stroke="#010101" stroke-linecap="round" stroke-linejoin="round" stroke-miterlimit="10" x1="386.743" y1="414.014" x2="365.631" y2="396.527"/>
	
		<line fill="none" stroke="#010101" stroke-linecap="round" stroke-linejoin="round" stroke-miterlimit="10" x1="188.725" y1="213.473" x2="227.026" y2="243.956"/>
	
		<line fill="none" stroke="#010101" stroke-linecap="round" stroke-linejoin="round" stroke-miterlimit="10" x1="183.596" y1="229.798" x2="225.085" y2="252.542"/>
	
		<line fill="none" stroke="#010101" stroke-linecap="round" stroke-linejoin="round" stroke-miterlimit="10" x1="177.198" y1="253.183" x2="222.739" y2="263.979"/>
	
		<line fill="none" stroke="#010101" stroke-linecap="round" stroke-linejoin="round" stroke-miterlimit="10" x1="172.296" y1="276.285" x2="220.066" y2="278.938"/>
	
		<line fill="none" stroke="#010101" stroke-linecap="round" stroke-linejoin="round" stroke-miterlimit="10" x1="171.959" y1="293.34" x2="218.216" y2="291.254"/>
	
		<line fill="none" stroke="#010101" stroke-linecap="round" stroke-linejoin="round" stroke-miterlimit="10" x1="169.946" y1="307.9" x2="217.116" y2="300.031"/>
	
		<line fill="none" stroke="#010101" stroke-linecap="round" stroke-linejoin="round" stroke-miterlimit="10" x1="174.67" y1="322.503" x2="216.001" y2="311.291"/>
	
		<line fill="none" stroke="#010101" stroke-linecap="round" stroke-linejoin="round" stroke-miterlimit="10" x1="177.418" y1="335.172" x2="215.361" y2="320.69"/>
	
		<line fill="none" stroke="#010101" stroke-linecap="round" stroke-linejoin="round" stroke-miterlimit="10" x1="180.668" y1="349.729" x2="215.052" y2="332.873"/>
	
		<line fill="none" stroke="#010101" stroke-linecap="round" stroke-linejoin="round" stroke-miterlimit="10" x1="184.755" y1="363.622" x2="218.543" y2="345.849"/>
	
		<line fill="none" stroke="#010101" stroke-linecap="round" stroke-linejoin="round" stroke-miterlimit="10" x1="189.48" y1="379.402" x2="222.489" y2="356.919"/>
	
		<line fill="none" stroke="#010101" stroke-linecap="round" stroke-linejoin="round" stroke-miterlimit="10" x1="193.448" y1="392.477" x2="227.637" y2="367.029"/>
	
		<line fill="none" stroke="#010101" stroke-linecap="round" stroke-linejoin="round" stroke-miterlimit="10" x1="202.004" y1="405.943" x2="233.651" y2="375.817"/>
	
		<line fill="none" stroke="#010101" stroke-linecap="round" stroke-linejoin="round" stroke-miterlimit="10" x1="214.557" y1="416.807" x2="241.906" y2="384.738"/>
	<path fill="none" stroke="#010101" stroke-linecap="round" stroke-linejoin="round" stroke-miterlimit="10" d="M448.362,119.952
		c0,0,18.378-39.36,32.154-41.313c13.775-1.953,64.734,9.288,90.615,67.664c-26.956,3.027-47.604,2.123-74.604-38.589"/>
	<path fill="none" stroke="#010101" stroke-linecap="round" stroke-linejoin="round" stroke-miterlimit="10" d="M505.484,120.069
		c0,0-15.465,33.104-28.224,37.258"/>
	<path fill="none" stroke="#010101" stroke-linecap="round" stroke-linejoin="round" stroke-miterlimit="10" d="M247.112,100.279
		c0,0,14.623-34.971,30.428-37.335c15.805-2.364,35.855,2.023,56.442,39.342"/>
	<polyline fill="none" stroke="#010101" stroke-linecap="round" stroke-linejoin="round" stroke-miterlimit="10" points="
		274.259,79.595 283.899,86.267 276.198,91.768 	"/>
	<polyline fill="none" stroke="#010101" stroke-linecap="round" stroke-linejoin="round" stroke-miterlimit="10" points="
		302.676,79.73 297.004,90.54 308.963,96.678 	"/>
	<path fill="none" stroke="#010101" stroke-linecap="round" stroke-linejoin="round" stroke-miterlimit="10" d="M209.954,56.955
		c0,0,17.063,19.312,25.957,21.679c8.894,2.367,21.302,2.599,21.302,2.599"/>
	<path fill="none" stroke="#010101" stroke-linecap="round" stroke-linejoin="round" stroke-miterlimit="10" d="M220.636,67.884
		c0,0-10.941-41.017-48.895-30.837c-37.953,10.181-40.088,35.259-52.218,50.233c-12.131,14.974-21.99,25.453-21.99,25.453
		s-28.918,76.354-25.099,122.704c3.819,46.351,14.262,105.733,20.026,134.998c5.764,29.265,33.629,141.447,118.736,157.108
		c85.105,15.662,95.219,6.876,135.199,10.244c39.98,3.369,62.423-8.647,75.193-18.176c12.772-9.529,47.513-29.617,55.547-96.268
		c8.035-66.65,15.501-136.499,17.69-158.039c2.188-21.54-3.745-94.758-27.129-124.329c-23.384-29.572-44.752-38.148-46.305-53.152
		c-1.552-15.004,0.604-36.993-30.297-40.484c-37.808-4.271-37.884,24.084-53.422,30.453c-15.539,6.368-15.539,6.368-15.539,6.368"/>
	<path fill="none" stroke="#010101" stroke-linecap="round" stroke-linejoin="round" stroke-miterlimit="10" d="M100.66,109.325
		c0,0-9.778-31.784-34.335-46.636c-11.72,3.832-28.404,25.363-31.263,32.895c-2.858,7.532-21.746,49.413-0.35,50.491
		c12.43,0.169,31.783-39.433,35.723-47.814"/>
	
		<line fill="none" stroke="#010101" stroke-linecap="round" stroke-linejoin="round" stroke-miterlimit="10" x1="60.663" y1="117.144" x2="88.867" y2="138.215"/>
	<path fill="none" stroke="#010101" stroke-linecap="round" stroke-linejoin="round" stroke-miterlimit="10" d="M152.641,78.343
		c0,0,17.418-21.311,29.636-22.963c12.218-1.652,22.538,2.517,25.775,16.057C199.973,76.455,154.833,80.266,152.641,78.343z"/>
</g>
</svg>
