<?xml version="1.0" encoding="utf-8"?>
<!-- Generator: Adobe Illustrator 16.0.0, SVG Export Plug-In . SVG Version: 6.00 Build 0)  -->
<!DOCTYPE svg PUBLIC "-//W3C//DTD SVG 1.1//EN" "http://www.w3.org/Graphics/SVG/1.1/DTD/svg11.dtd">
<svg version="1.1" id="Layer_1" xmlns="http://www.w3.org/2000/svg" xmlns:xlink="http://www.w3.org/1999/xlink" x="0px" y="0px"
	 width="595.28px" height="841.89px" viewBox="0 0 595.28 841.89" enable-background="new 0 0 595.28 841.89" xml:space="preserve">
<g>
	<path fill="none" stroke="#231F20" stroke-linecap="round" stroke-linejoin="round" stroke-miterlimit="10" d="M132.008,438.313
		c-45.934-63.521-45.929-90.88-38.113-207.171c7.816-116.29,98.706-79.157,135.839-49.839
		c23.454-100.658,111.406-116.291,163.198-54.724c51.792,61.566,23.454,229.649,23.454,229.649l27.364,82.085
		c0,0,3.545,85.514-40.431,106.402c-43.977,20.889-142.189,39.578-185.066-5.864c-21.696-24.954-27.852-43.243-27.852-43.243
		l-21.622-20.155"/>
	<path fill="none" stroke="#231F20" stroke-linecap="round" stroke-linejoin="round" stroke-miterlimit="10" d="M191.622,428.545
		c-42.023-3.906-32.249-30.294-27.365-32.247c4.884-1.952,47.887,6.837,72.32,20.522c-24.427-18.564-27.365-22.48-25.412-40.071
		c7.816,3.905,87.952,0,87.952,0s24.433-12.701,46.908-18.564c22.475-5.863,63.524,18.564,63.524,18.564
		s-29.443,13.765-60.65,16.165s-145.264,32.206-175.698,40.027c-30.434,7.811-53.894,22.47-54.38,23.936
		c-0.487,1.466,28.063,21.015,28.063,21.015l58.915-16.125"/>
	<path fill="none" stroke="#231F20" stroke-linecap="round" stroke-linejoin="round" stroke-miterlimit="10" d="M234.619,298.572
		c0,0-5.623,6.837,0,11.967c5.623,5.131,10.753,3.665,15.151,0c4.398-3.665,0.733-9.276-2.565-11.967
		C243.907,295.88,237.087,292.479,234.619,298.572z"/>
	<path fill="none" stroke="#231F20" stroke-linecap="round" stroke-linejoin="round" stroke-miterlimit="10" d="M175.698,314.078
		c0,0-5.623,6.837,0,11.967c5.623,5.13,10.753,3.665,15.151,0s0.733-9.276-2.565-11.967
		C184.985,311.387,178.166,307.985,175.698,314.078z"/>
	<path fill="none" stroke="#231F20" stroke-linecap="round" stroke-linejoin="round" stroke-miterlimit="10" d="M278.354,289.284
		c0,0,11.36,24.553-28.218,42.144"/>
	<path fill="none" stroke="#231F20" stroke-linecap="round" stroke-linejoin="round" stroke-miterlimit="10" d="M296.678,286.353
		c0.733,1.099,18.015,28.218-12.064,47.274"/>
	<path fill="none" stroke="#231F20" stroke-linecap="round" stroke-linejoin="round" stroke-miterlimit="10" d="M151.923,304.51
		c0,0-23.534,44.142,31.11,44.509"/>
	<path fill="none" stroke="#231F20" stroke-linecap="round" stroke-linejoin="round" stroke-miterlimit="10" d="M132.134,315.67
		c0,0-17.224,45.075,21.255,52.771"/>
	<path fill="none" stroke="#231F20" stroke-linecap="round" stroke-linejoin="round" stroke-miterlimit="10" d="M146.885,248.24
		c0,0-16.033-15.392-6.047-26.385c7.787-3.665,26.523-7.33,24.118,21.255"/>
	<path fill="none" stroke="#231F20" stroke-linecap="round" stroke-linejoin="round" stroke-miterlimit="10" d="M193.031,230.649
		c-1.93,12.689-31.396,15.025-52.193,21.255c-20.797,6.23-24.095-0.732-24.462-11.727c-0.366-10.994,23.454-32.616,50.939-27.852
		C194.8,217.09,193.449,227.901,193.031,230.649z"/>
	
		<line fill="none" stroke="#231F20" stroke-linecap="round" stroke-linejoin="round" stroke-miterlimit="10" x1="128.292" y1="207.195" x2="132.867" y2="219.386"/>
	
		<line fill="none" stroke="#231F20" stroke-linecap="round" stroke-linejoin="round" stroke-miterlimit="10" x1="149.725" y1="192.537" x2="153.389" y2="211.65"/>
	
		<line fill="none" stroke="#231F20" stroke-linecap="round" stroke-linejoin="round" stroke-miterlimit="10" x1="170.979" y1="195.102" x2="170.979" y2="211.65"/>
	<path fill="none" stroke="#231F20" stroke-linecap="round" stroke-linejoin="round" stroke-miterlimit="10" d="M309.504,221.488
		c0,0-15.025-28.584,9.528-42.144c24.554-13.559,68.163,6.625,68.896,26.02C363.009,202.094,321.231,228.084,309.504,221.488z"/>
	
		<line fill="none" stroke="#231F20" stroke-linecap="round" stroke-linejoin="round" stroke-miterlimit="10" x1="319.398" y1="156.989" x2="324.529" y2="174.924"/>
	
		<line fill="none" stroke="#231F20" stroke-linecap="round" stroke-linejoin="round" stroke-miterlimit="10" x1="346.443" y1="154.058" x2="346.443" y2="173.48"/>
	
		<line fill="none" stroke="#231F20" stroke-linecap="round" stroke-linejoin="round" stroke-miterlimit="10" x1="368.506" y1="156.989" x2="363.117" y2="180.3"/>
	<path fill="none" stroke="#231F20" stroke-linecap="round" stroke-linejoin="round" stroke-miterlimit="10" d="M321.964,180.3
		c0,0-11.36,15.901,0,25.063c11.36,9.162,13.09,9.66,21.988,7.925c8.898-1.735,4.855-33.956-4.718-38.348"/>
	<path fill="none" stroke="#231F20" stroke-linecap="round" stroke-linejoin="round" stroke-miterlimit="10" d="M372.032,389.261
		c0,0-107.117,86.673-130.078,95.468s-58.629-4.879-25.893-32.73s69.411-34.874,91.628-51.886"/>
	<path fill="none" stroke="#231F20" stroke-linecap="round" stroke-linejoin="round" stroke-miterlimit="10" d="M112.471,459.809
		l-41.044-45.926c0,0,3.911,23.938-8.795,26.869S0.578,396.785,9.374,373.817c8.795-22.967,36.154-30.291,55.21-10.748
		C59.7,327.883,23.54,173.973,96.347,114.846s87.465-54.231,104.076-60.587c16.611-6.356,89.412-31.271,118.976-14.659
		c29.564,16.611,74.52,47.4,87.712,57.169s44.949,43.667,56.189,106.607c11.24,62.941,9.774,91.789,9.774,91.789
		c8.795-41.062,16.611-54.003,34.202-48.265c17.59,5.738,22.961,40.46,14.658,82.466c-4.884,24.416,12.706,41.514,9.774,51.775
		c-2.932,10.261-21.501,34.201-52.284-10.262c-2.932,22.968,1.472,114.341,1.472,114.341l-8.309,44.469l-2.445,71.827
		c0,0,38.6,76.718-17.104,109.94c-113.846,60.581-132.907,49.347-143.655,46.415c-28.338,8.303-109.94,0.481-112.872-2.932
		c-17.098-0.492-59.248,16.251-82.701,4.523c-2.199-5.13,32.982-12.093,32.982-12.093s-37.746,6.963-39.579-0.367
		c-1.832-7.329,38.479-8.063,38.479-8.063s-38.479,2.199-38.845-5.496c-0.367-7.696,63.032-15.393,63.032-15.393
		s-78.058,5.131-92.35-6.596c9.162-8.795,76.958-2.565,95.281-8.795c18.323-6.23,126.431,4.764,126.797,5.863
		c0.367,1.1,147.32-48.008,145.854-62.3"/>
	<polyline fill="none" stroke="#231F20" stroke-linecap="round" stroke-linejoin="round" stroke-miterlimit="10" points="
		417.48,664.916 394.158,609.579 375.394,682.312 	"/>
	<path fill="none" stroke="#231F20" stroke-linecap="round" stroke-linejoin="round" stroke-miterlimit="10" d="M275.423,698.264
		c0,0-12.826-54.236-23.82-64.131c-7.696,23.087-16.491,56.436-16.491,61.199"/>
	
		<line fill="none" stroke="#231F20" stroke-linecap="round" stroke-linejoin="round" stroke-miterlimit="10" x1="282.752" y1="624.971" x2="285.317" y2="634.133"/>
	
		<line fill="none" stroke="#231F20" stroke-linecap="round" stroke-linejoin="round" stroke-miterlimit="10" x1="341.753" y1="629.552" x2="341.753" y2="637.797"/>
	<path fill="none" stroke="#231F20" stroke-linecap="round" stroke-linejoin="round" stroke-miterlimit="10" d="M349.815,656.854
		c0,0-27.852,25.286-38.112-19.057c-1.1,17.225-4.764,28.951-22.354,23.82"/>
	<path fill="none" stroke="#231F20" stroke-linecap="round" stroke-linejoin="round" stroke-miterlimit="10" d="M199.559,700.783
		l-2.193-45.029l32.249-99.679c0,0-68.163-35.88-85.387-68.701"/>
	<polyline fill="none" stroke="#231F20" stroke-linecap="round" stroke-linejoin="round" stroke-miterlimit="10" points="
		191.777,700.783 134.316,656.04 175.377,700.783 	"/>
	<path fill="none" stroke="#231F20" stroke-linecap="round" stroke-linejoin="round" stroke-miterlimit="10" d="M369.972,491.943
		c0,0-21.622-35.181-45.809-23.454c-24.187,11.728-21.255,42.877-21.255,42.877"/>
	<path fill="none" stroke="#231F20" stroke-linecap="round" stroke-linejoin="round" stroke-miterlimit="10" d="M144.228,487.374"/>
	<path fill="none" stroke="#231F20" stroke-linecap="round" stroke-linejoin="round" stroke-miterlimit="10" d="M29.89,382.367
		c0,0,22.354,16.491,26.385,32.982"/>
	<path fill="none" stroke="#231F20" stroke-linecap="round" stroke-linejoin="round" stroke-miterlimit="10" d="M500.434,282.441
		c0,0-11.234,25.899,0,59.614"/>
	<path fill="none" stroke="#231F20" stroke-linecap="round" stroke-linejoin="round" stroke-miterlimit="10" d="M587.652,142.697
		c0,0-21.255,30.05-59.367,14.292c-38.112-15.758-27.846-36.767-44.949-41.651c-17.104-4.884-31.763-2.445-31.763-2.445"/>
	<path fill="none" stroke="#231F20" stroke-linecap="round" stroke-linejoin="round" stroke-miterlimit="10" d="M449.134,90.235
		c0,0,11.728-22.292,46.307-22.784c34.579-0.492,45.063,52.771,54.838,69.469s37.374,3.338,37.374,3.338"/>
	<path fill="none" stroke="#231F20" stroke-linecap="round" stroke-linejoin="round" stroke-miterlimit="10" d="M432.03,116.317
		c0,0,6.969,13.193,11.79,7.329c4.821-5.863,13.256-29.317,0-36.16c-13.256-6.843-16.045,18.878-11.79,26.873"/>
	
		<line fill="none" stroke="#231F20" stroke-linecap="round" stroke-linejoin="round" stroke-miterlimit="10" x1="118.815" y1="462.26" x2="110.513" y2="477.892"/>
	<path fill="none" stroke="#231F20" stroke-linecap="round" stroke-linejoin="round" stroke-miterlimit="10" d="M137.563,491.576
		l-47.566-13.685l8.79,23.946l3.665,56.436l8.063,47.641l23.803-8.063c-2.548-2.198-10.61-54.236-10.61-54.236L137.563,491.576
		l6.665-13.685"/>
	
		<line fill="none" stroke="#231F20" stroke-linecap="round" stroke-linejoin="round" stroke-miterlimit="10" x1="124.438" y1="506.235" x2="98.786" y2="501.838"/>
	<path fill="none" stroke="#231F20" stroke-linecap="round" stroke-linejoin="round" stroke-miterlimit="10" d="M183.033,561.938
		c0,0-31.236,65.07-68.369,94.102c-20.276-16.411-37.866-61.956-37.866-61.956l-23.454-32.146c0,0,71.645,5.863,87.494,0
		S183.033,561.938,183.033,561.938z"/>
	<path fill="none" stroke="#231F20" stroke-linecap="round" stroke-linejoin="round" stroke-miterlimit="10" d="M159.619,589.057
		c0,0-33.715-19.056-90.151,8.795"/>
	<polyline fill="none" stroke="#231F20" stroke-linecap="round" stroke-linejoin="round" stroke-miterlimit="10" points="
		114.664,656.04 110.513,793.545 65.804,797.21 128.292,810.402 	"/>
</g>
</svg>
