<?xml version="1.0" encoding="utf-8"?>
<!-- Generator: Adobe Illustrator 16.0.0, SVG Export Plug-In . SVG Version: 6.00 Build 0)  -->
<!DOCTYPE svg PUBLIC "-//W3C//DTD SVG 1.1//EN" "http://www.w3.org/Graphics/SVG/1.1/DTD/svg11.dtd">
<svg version="1.1" id="Layer_1" xmlns="http://www.w3.org/2000/svg" xmlns:xlink="http://www.w3.org/1999/xlink" x="0px" y="0px"
	 width="595.28px" height="622px" viewBox="0 0 595.28 622" enable-background="new 0 0 595.28 622" xml:space="preserve">
<g>
	<path fill="none" stroke="#231F20" stroke-linecap="round" stroke-linejoin="round" stroke-miterlimit="10" d="M486.053,445.129
		c0,0,28.5-49.637,24.821-87.33c0,0-29.416-171.909-58.837-202.246c-29.415-30.336-48.715-53.32-107.557-16.547"/>
	<path fill="none" stroke="#231F20" stroke-linecap="round" stroke-linejoin="round" stroke-miterlimit="10" d="M312.307,104.074
		c0,0,6.438-40.446,106.637-44.125c-30.622,12.017-93.305,33.18-87.789,62.967c5.813,31.403,44.584,56.073,87.417,3.2
		c0,0,1.293,43.221-52.943,50.115c0,0-55.157,31.258-83.199-22.521c-28.037-53.778,0.463-96.983,13.331-107.557
		c12.868-10.574,42.753-21.605,66.646-21.605c-14.247,9.652-30.794,28.958-30.794,28.958"/>
	<path fill="none" stroke="#231F20" stroke-linecap="round" stroke-linejoin="round" stroke-miterlimit="10" d="M364.669,67.107
		l24.4-21.875c0,0-62.515-12.869-91.473,40.91"/>
	<path fill="none" stroke="#231F20" stroke-linecap="round" stroke-linejoin="round" stroke-miterlimit="10" d="M405.153,123.374
		c0,0-33.094,23.447-47.799,28.5"/>
	<polyline fill="none" stroke="#231F20" stroke-linecap="round" stroke-linejoin="round" stroke-miterlimit="10" points="
		389.069,120.072 371.602,104.909 332.991,120.072 	"/>
	<path fill="none" stroke="#231F20" stroke-linecap="round" stroke-linejoin="round" stroke-miterlimit="10" d="M283.872,60.568
		h-29.48c0,0-97.904,34.774-140.651,77.059C70.994,179.91,54.447,217.142,58.583,246.1"/>
	<path fill="none" stroke="#231F20" stroke-linecap="round" stroke-linejoin="round" stroke-miterlimit="10" d="M237.845,210.247
		c0,0-38.61,16.547-57.915,0c-19.305-16.547-48.263-45.505-48.263-45.505"/>
	<path fill="none" stroke="#231F20" stroke-linecap="round" stroke-linejoin="round" stroke-miterlimit="10" d="M264.044,237.826
		c0,0,24.304,24.74,24.304,40.635c5.516-19.957,30.854-21.33,30.854-21.33"/>
	<path fill="none" stroke="#231F20" stroke-linecap="round" stroke-linejoin="round" stroke-miterlimit="10" d="M157.177,185.265
		c0,0,17.926-54.759,47.573-47.638s8.591,69.334,8.43,79.251"/>
	<path fill="none" stroke="#231F20" stroke-linecap="round" stroke-linejoin="round" stroke-miterlimit="10" d="M357.354,258.144
		c0,0,26.657,30.703,36.31,45.871c9.652,15.168,46.884,22.063,60.673,21.373"/>
	<path fill="none" stroke="#231F20" stroke-linecap="round" stroke-linejoin="round" stroke-miterlimit="10" d="M433.653,323.319
		c0,0,24.821-57.915,17.236-71.015c-7.584-13.1-24.131-31.716-40.679-14.479c-16.547,17.237-35.814,40.635-35.814,40.635"/>
	<path fill="none" stroke="#231F20" stroke-linecap="round" stroke-linejoin="round" stroke-miterlimit="10" d="M393.664,304.015
		c0,0,2.295-33.095,12.179-35.163c9.885-2.068,8.731,23.689,0,45.284"/>
	<path fill="none" stroke="#231F20" stroke-linecap="round" stroke-linejoin="round" stroke-miterlimit="10" d="M176.482,201.974
		c0,0,0-16.989,8.273-25.042s11.031,7.59,7.584,12.523C188.893,194.39,176.482,201.974,176.482,201.974z"/>
	<path fill="none" stroke="#231F20" stroke-linecap="round" stroke-linejoin="round" stroke-miterlimit="10" d="M157.177,314.136
		c0,0-102.041-77.129-144.099-83.27c2.758,43.501,12.411,100.038,72.049,144.853c59.639,44.815,209.253,122.036,264.41,111.693
		c55.157-10.342,71.802-11.721,78.304-50.33c-43.141-17.927-76.925-32.405-76.925-32.405"/>
	<path fill="none" stroke="#231F20" stroke-linecap="round" stroke-linejoin="round" stroke-miterlimit="10" d="M319.202,391.576
		c0,0-70.428-43.086-95.938-43.086s-38.508-16.896-38.508-16.896"/>
	<path fill="none" stroke="#231F20" stroke-linecap="round" stroke-linejoin="round" stroke-miterlimit="10" d="M405.843,425.36
		c0,0,44.126-74.462-46.42-84.114c-16.09-30.337-50.563-27.11-50.563-27.11s-13.789-14.258-31.715-9.432
		c-1.379-22.101-13.79-21.374-25.166-17.237c-9.998-13.1-58.95-46.496-123.759-1.185"/>
	<path fill="none" stroke="#231F20" stroke-linecap="round" stroke-linejoin="round" stroke-miterlimit="10" d="M47.552,282.604
		c0,0,27.579,5.553,37.921,24.858c10.342,19.305,28.958,74.462,62.741,84.114c33.784,9.653,64.81,0.69,81.357,0
		c1.379,9.653-3.447,28.269,0,33.784c3.447,5.517,62.052,28.269,62.052,28.269s64.891,1.379,82.773,0"/>
	<path fill="none" stroke="#231F20" stroke-linecap="round" stroke-linejoin="round" stroke-miterlimit="10" d="M223.775,268.733
		c0,0-58.325,98.022-61.772,102.849c-5.516-27.578-5.516-91.246,0-102.849"/>
	<polyline fill="none" stroke="#231F20" stroke-linecap="round" stroke-linejoin="round" stroke-miterlimit="10" points="
		210.977,295.052 205.44,320.158 226.813,317.114 251.979,287.467 	"/>
	<path fill="none" stroke="#231F20" stroke-linecap="round" stroke-linejoin="round" stroke-miterlimit="10" d="M226.813,317.114
		c0,13.79,11.721,24.605,25.166,20.576c7.929-10.234,25.166-32.986,25.166-32.986"/>
	<polyline fill="none" stroke="#231F20" stroke-linecap="round" stroke-linejoin="round" stroke-miterlimit="10" points="
		255.082,337.69 264.044,354.346 283.872,349.52 308.859,314.136 	"/>
	<path fill="none" stroke="#231F20" stroke-linecap="round" stroke-linejoin="round" stroke-miterlimit="10" d="M283.872,349.52
		l7.751,18.9l27.579-3.043l38.152-27.687c0,0-56.769,86.98-56.079,87.67s85.726-35.981,103.878-66.598"/>
	<path fill="none" stroke="#231F20" stroke-linecap="round" stroke-linejoin="round" stroke-miterlimit="10" d="M85.128,375.719
		c0,0-14.824,68.258,81.012,108.246c95.836,39.989,128.958,64.121,178.588,7.585"/>
	<path fill="none" stroke="#231F20" stroke-linecap="round" stroke-linejoin="round" stroke-miterlimit="10" d="M418.943,430.188
		c0,0,21.604-31.716,35.394-38.611c13.79-6.895,12.411,19.995,0,48.264c-12.41,28.268-36.31,91.01-49.184,90.32
		c-12.868-0.689-25.278-20.685-11.489-48.953"/>
	<path fill="none" stroke="#231F20" stroke-linecap="round" stroke-linejoin="round" stroke-miterlimit="10" d="M459.164,437.771
		c0,0,47.572,11.289,88.251,12.539s36.763,33.735,33.095,43.308c-7.584,19.769-61.362,34.473-92.389,26.199
		c-31.025-8.273-56.617-27.288-57.226-26.017"/>
	<path fill="none" stroke="#231F20" stroke-linecap="round" stroke-linejoin="round" stroke-miterlimit="10" d="M464.168,438.896
		c0,0,10.854,60.237,28.09,77.474"/>
	
		<line fill="none" stroke="#231F20" stroke-linecap="round" stroke-linejoin="round" stroke-miterlimit="10" x1="516.39" y1="450.311" x2="544.819" y2="513.387"/>
	<path fill="none" stroke="#231F20" stroke-linecap="round" stroke-linejoin="round" stroke-miterlimit="10" d="M547.415,450.311
		c0,0-92.351,46.9-106.28,49.006"/>
	<path fill="none" stroke="#231F20" stroke-linecap="round" stroke-linejoin="round" stroke-miterlimit="10" d="M582.099,474.813
		c0,0-81.034,44.961-97.425,41.557"/>
	<path fill="none" stroke="#231F20" stroke-linecap="round" stroke-linejoin="round" stroke-miterlimit="10" d="M49.497,340.804
		c-2.887,27.827,18.05,159.709,55.281,189.361c37.231,29.652,97.904,56.53,167.632,58.599c37.145,1.104,94.877-7.519,132.744-29.646
		c33.213-19.402,49.184-52.615,49.184-52.615"/>
</g>
</svg>
