<?xml version="1.0" encoding="utf-8"?>
<!-- Generator: Adobe Illustrator 15.0.0, SVG Export Plug-In . SVG Version: 6.00 Build 0)  -->
<!DOCTYPE svg PUBLIC "-//W3C//DTD SVG 1.1//EN" "http://www.w3.org/Graphics/SVG/1.1/DTD/svg11.dtd">
<svg version="1.1" id="Layer_1" xmlns="http://www.w3.org/2000/svg" xmlns:xlink="http://www.w3.org/1999/xlink" x="0px" y="0px"
	 width="277.343px" height="281.552px" viewBox="0 0 277.343 281.552" enable-background="new 0 0 277.343 281.552"
	 xml:space="preserve">
<path fill="none" stroke="#000000" stroke-miterlimit="10" d="M56.217,177.552l-16,13.5c0,0,6-59-3-86.5c0,0-22.5-15-21-46.5
	c5.371-22.317,13-19.5,13.5-45.5c0,0,34,21,34.5,43c0,0,50.5-32.5,74,2.5c0,0,10.5-40.5,75.5-11c0,0,19.5-25,46.5-34.5
	c0,0-9,18,0,27.5s6,22-4.5,34.5c0,0,3.5,22.5-0.5,36s-9.5,19-9.5,35s8.5,76.5,8.5,76.5l-37-24.5c0,0-15.5,44-14.5,71
	c0,0-14.5-18.5-25.5-21s-55.5,34-55.5,34l-29-40l-21,9.5C71.717,251.052,57.217,190.552,56.217,177.552z"/>
<path fill="none" stroke="#000000" stroke-miterlimit="10" d="M27.916,28.435c0,0,3.801,13.451,3.801,23.784s-8.667,24.001,0,29.667
	s9-17.667,9-23.667S33.943,22.876,29.33,19.881"/>
<path fill="none" stroke="#000000" stroke-miterlimit="10" d="M93.717,88.219c0,0,9-10.333,11,0s-20,14.667-20,0
	s30.001-17.333,29.667-1s-36.667,34.946-35.667-0.36s49.667-21.64,49.667,0.36s-17.334,33.334-35.667,23.667"/>
<path fill="none" stroke="#000000" stroke-miterlimit="10" d="M171.717,86.886c0,0-10.999-9.333-11.333,0
	s23.999,18.852,22.666-2.074s-31-15.926-31,1.407s42.976,39.056,47.667-2.004s-62-22.662-61,2.671s33,24,33,24"/>
<path fill="none" stroke="#000000" stroke-miterlimit="10" d="M120.214,108.708c0,0-8.83,22.51-9.83,32.344
	s7.645,25.166,28.322,24.5s26.011-3.667,26.011-15s-19-32.575-18-46.954"/>
<path fill="none" stroke="#000000" stroke-miterlimit="10" d="M131.05,147.052c0,0,17,24.5-11,37.167s-49.374-11.001-41.354-40.667"
	/>
<path fill="none" stroke="#000000" stroke-miterlimit="10" d="M148.05,147.052c0,0-17,17.834,1.667,38.167
	s46.666-2.333,55.333-21.333"/>
<path fill="none" stroke="#000000" stroke-miterlimit="10" d="M250.089,16.96c0,0-6.372,11.592-11.372,15.259
	s-14.333,26.667,9.667,46c0,0,3.666-17.458-2.667-26.896s1.276-26.198,11.472-30.151"/>
<path fill="none" stroke="#000000" stroke-miterlimit="10" d="M91.537,184.185c0,0,3.513,27.034-1.487,39.701
	c0,0,43.83,6.999,50.915,29.333c0,0,32.753-25.033,42.419-34.517c0,0-4.402-20.247,3.299-32.865"/>
<path fill="none" stroke="#000000" stroke-miterlimit="10" d="M116.826,185.523c0,0,15.89,22.328,8.224,33.179
	c0,0,24.668-8.661,3.334-39.572"/>
<path fill="none" stroke="#000000" stroke-miterlimit="10" d="M156.037,190.348c0,0-14.013,20.537,0,32.871
	c0,0-26.578-11.845-10.949-44.089"/>
<path fill="none" stroke="#000000" stroke-miterlimit="10" d="M102.083,226.642c0,0,5.613-10.755,1.457-17.089
	c0,0,11.689,4.04,6.767,19.687"/>
<path fill="none" stroke="#000000" stroke-miterlimit="10" d="M173.008,227.821c-6.709-6.731-3.679-22.269-3.679-22.269
	s5.359,12.705,11.707,15.353"/>
<line fill="none" stroke="#000000" stroke-miterlimit="10" x1="177.217" y1="149.552" x2="177.217" y2="152.552"/>
<line fill="none" stroke="#000000" stroke-miterlimit="10" x1="177.217" y1="165.632" x2="181.036" y2="170.131"/>
<line fill="none" stroke="#000000" stroke-miterlimit="10" x1="186.217" y1="154.552" x2="186.217" y2="162.552"/>
<line fill="none" stroke="#000000" stroke-miterlimit="10" x1="95.384" y1="154.552" x2="99.384" y2="158.552"/>
<line fill="none" stroke="#000000" stroke-miterlimit="10" x1="107.217" y1="167.552" x2="107.217" y2="174.552"/>
<line fill="none" stroke="#000000" stroke-miterlimit="10" x1="91.384" y1="167.552" x2="95.384" y2="171.052"/>
</svg>
