<?xml version="1.0" encoding="utf-8"?>
<!-- Generator: Adobe Illustrator 15.0.0, SVG Export Plug-In . SVG Version: 6.00 Build 0)  -->
<!DOCTYPE svg PUBLIC "-//W3C//DTD SVG 1.1//EN" "http://www.w3.org/Graphics/SVG/1.1/DTD/svg11.dtd">
<svg version="1.1" id="Layer_1" xmlns="http://www.w3.org/2000/svg" xmlns:xlink="http://www.w3.org/1999/xlink" x="0px" y="0px"
	 width="191px" height="175.5px" viewBox="0 0 191 175.5" enable-background="new 0 0 191 175.5" xml:space="preserve">
<path fill="none" stroke="#000000" stroke-miterlimit="10" d="M37.001,81c0,0-24.333-47.666-23.333-62.666s7.999-20,16.666-6
	s31.667,41,33.667,61l17-13.334l2,19l12.667-17.334l7,15.668l7.333-17L127.668,79c0,0,9-20.333,21.333-31.666
	c12.333-11.334,10.667-21.667,11.667-29c1-7.334,12.334-7.334,13,8C174.334,41.666,182,87,159.334,101l21.334,20.333l-21,1.334
	l26.666,18.666c0,0-20.667,6.334-37,1.334c0,0,21.001,14.667,31.334,14c0,0-15.668,8-38.334,3.333c0,0-25.667,20.334-61,9.667
	s-34.334-20.001-41-24.334S10.001,128,4.001,114.667c0,0,12.333,4.666,24,1.333c0,0-15.334-9.666-21.667-18
	c0,0,20.667,9,29.667,1.334L15.334,86.666L37.001,81z"/>
<path fill="none" stroke="#000000" stroke-miterlimit="10" d="M28.334,27.666c0,0,8.668,35.668,20.334,48.334"/>
<line fill="none" stroke="#000000" stroke-miterlimit="10" x1="38.501" y1="58.52" x2="44.668" y2="51.833"/>
<line fill="none" stroke="#000000" stroke-miterlimit="10" x1="32.364" y1="41.764" x2="38.501" y2="35.666"/>
<path fill="none" stroke="#000000" stroke-miterlimit="10" d="M141.668,87c0,0,21.347-14.945,19.666-36.666"/>
<line fill="none" stroke="#000000" stroke-miterlimit="10" x1="146.334" y1="68.667" x2="151.548" y2="77.527"/>
<line fill="none" stroke="#000000" stroke-miterlimit="10" x1="151.548" y1="55.177" x2="158.767" y2="65.708"/>
<path fill="none" stroke="#000000" stroke-miterlimit="10" d="M52.334,92.666c0,0,6.668-5.333,15.334,0
	c8.666,5.334,13.666,8.668,13.666,8.668S71.665,112.455,52.334,92.666z"/>
<path fill="none" stroke="#000000" stroke-miterlimit="10" d="M107.001,103c0,0,13.334-10.667,27.667-1.334
	C134.668,101.666,126.668,112,107.001,103z"/>
<path fill="none" stroke="#000000" stroke-miterlimit="10" d="M44.668,122.667c0,0,31.666,5.666,36.666,2.333s6.001-16,11.334-16
	s1.667,14.334,11,18.667S130.001,134,131.001,136s1.333,6.333-8,6.333s-10.666,0-19.333,1.667s-10.667,8.667-10.667,10.667
	s-8.333,6.999-8.333-2.334s-21.001-22-30.334-22.333S40.335,127.001,44.668,122.667z"/>
<line fill="none" stroke="#000000" stroke-miterlimit="10" x1="78.478" y1="125.836" x2="81.334" y2="132.25"/>
<line fill="none" stroke="#000000" stroke-miterlimit="10" x1="97.587" y1="120.136" x2="93.5" y2="125.836"/>
<line fill="none" stroke="#000000" stroke-miterlimit="10" x1="109.611" y1="129.886" x2="108.25" y2="135"/>
<line fill="none" stroke="#000000" stroke-miterlimit="10" x1="97.587" y1="139.75" x2="100.361" y2="145.01"/>
<line fill="none" stroke="#000000" stroke-miterlimit="10" x1="78.776" y1="142.38" x2="83.75" y2="138.25"/>
<line fill="none" stroke="#000000" stroke-miterlimit="10" x1="66.834" y1="92.184" x2="62.5" y2="101.001"/>
<line fill="none" stroke="#000000" stroke-miterlimit="10" x1="120.834" y1="98" x2="122.756" y2="106.654"/>
</svg>
