<?xml version="1.0" encoding="utf-8"?>
<!-- Generator: Adobe Illustrator 15.0.0, SVG Export Plug-In . SVG Version: 6.00 Build 0)  -->
<!DOCTYPE svg PUBLIC "-//W3C//DTD SVG 1.1//EN" "http://www.w3.org/Graphics/SVG/1.1/DTD/svg11.dtd">
<svg version="1.1" id="Layer_1" xmlns="http://www.w3.org/2000/svg" xmlns:xlink="http://www.w3.org/1999/xlink" x="0px" y="0px"
	 width="240.5px" height="265px" viewBox="0 0 240.5 265" enable-background="new 0 0 240.5 265" xml:space="preserve">
<path fill="none" stroke="#000000" stroke-miterlimit="10" d="M228.25,223l4.917,7.666c13.667-27.333-5.607-51.166-5.607-51.166
	C234.284,37.666,106.833,5,106.833,5C-6.834,80.667,21.5,194.334,21.5,194.334C-6.5,217,6.166,246,6.166,246
	C7.832,230.333,26.5,224.667,26.5,224.667C22.5,247.334,36.917,259,36.917,259c20.751-15,55.583,2,78.249,2s45-14.333,60.667-13.666
	C191.5,248,205.5,256,205.5,256s20.666-16,22-36.333s-20.334-39.333-20.334-39.333s3.334-61.667-36-63.667s-24.666,88-24.666,88
	L126.833,223l-22-26.666c0,0,11.667-75.667-34-75.334s-32,105-32,105s20.667-13.75,48.417-3s45,12.75,70.25,1.75
	s38.25,12.75,38.25,12.75s-9.75-7.75-24.75-1.25s-31,15-54,11.5S59.25,226,32.5,243c0,0-0.814,6.926,4.417,16"/>
<path fill="none" stroke="#000000" stroke-miterlimit="10" d="M100.776,142.356c0,0-10.277-97.356-13.943-116.356"/>
<path fill="none" stroke="#000000" stroke-miterlimit="10" d="M130.833,17.666c0,0,17.668,52.001,14.334,90.668
	c0,0-1.652,9,4.007,24.666"/>
<ellipse fill="none" stroke="#000000" stroke-miterlimit="10" cx="120.687" cy="57.666" rx="2.187" ry="4.332"/>
<ellipse fill="none" stroke="#000000" stroke-miterlimit="10" cx="124.5" cy="116" rx="3.813" ry="5.666"/>
<ellipse fill="none" stroke="#000000" stroke-miterlimit="10" cx="124.5" cy="165.666" rx="3.813" ry="6.332"/>
<path fill="none" stroke="#000000" stroke-miterlimit="10" d="M63.5,148.334c0,0,18.333,2.666,31,19.332
	C94.5,167.666,72.833,166.334,63.5,148.334z"/>
<path fill="none" stroke="#000000" stroke-miterlimit="10" d="M161.5,169.334c0,0,2.333-11.668,22.333-17.668
	C183.833,151.666,176.833,167.334,161.5,169.334z"/>
<line fill="none" stroke="#000000" stroke-miterlimit="10" x1="76.75" y1="162" x2="81.25" y2="155.5"/>
<line fill="none" stroke="#000000" stroke-miterlimit="10" x1="170.25" y1="158" x2="174.5" y2="163.75"/>
<polyline fill="none" stroke="#000000" stroke-miterlimit="10" points="92.107,224.829 97.501,239.5 102.867,228.387 "/>
<polyline fill="none" stroke="#000000" stroke-miterlimit="10" points="146.265,228.943 154.501,233.667 155.618,225.551 "/>
</svg>
