<?xml version="1.0" encoding="utf-8"?>
<!-- Generator: Adobe Illustrator 15.0.0, SVG Export Plug-In . SVG Version: 6.00 Build 0)  -->
<!DOCTYPE svg PUBLIC "-//W3C//DTD SVG 1.1//EN" "http://www.w3.org/Graphics/SVG/1.1/DTD/svg11.dtd">
<svg version="1.1" id="Layer_1" xmlns="http://www.w3.org/2000/svg" xmlns:xlink="http://www.w3.org/1999/xlink" x="0px" y="0px"
	 width="253.898px" height="199.489px" viewBox="0 0 253.898 199.489" enable-background="new 0 0 253.898 199.489"
	 xml:space="preserve">
<path fill="none" stroke="#000000" stroke-miterlimit="10" d="M46.333,25.136c0,0-10.667,119.834-5.167,153.334c0,0,167-1,183.5-9
	c0,0,3-112.667-13.5-144.334l-12.5,22.834l-142-0.5L46.333,25.136z"/>
<path fill="none" stroke="#000000" stroke-miterlimit="10" d="M173.333,97.804c0,0-13.334,10-12.667-4.667
	s25.001-7.005,24.334,3.997c-0.667,11.003-30.333,23.566-33-4.049s42.666-20.615,42.333-0.948s-42.333,39.296-47,0.147
	c-4.667-39.147,54.667-20.814,53,0.186"/>
<path fill="none" stroke="#000000" stroke-miterlimit="10" d="M101.333,101.803c0,0-14.001-15.334-14.667,0s19,9.334,19-1.999
	c0-11.334-27.334-18.334-28,0.333s30.667,28.333,31.667-0.333c1-28.667-37.333-23.334-39.333,0c-1.334,14,9.333,18.086,9.333,18.086
	"/>
<path fill="none" stroke="#000000" stroke-miterlimit="10" d="M97.333,136.137c0,0-5.333,0.667-5.333,7s17.705,9,17.353-3.5
	s-28.354-18.851-29.687,2.657c-1.333,21.51,58,23.509,55-28.824"/>
<path fill="none" stroke="#000000" stroke-miterlimit="10" d="M172,134.992c0,0,6.333-0.855,6.333,4.145
	s-17.334,12.134-17.667-2.101C160.333,122.804,186,119.803,185,138.47s-49.955,20.821-51.065-11.512"/>
<path fill="none" stroke="#000000" stroke-miterlimit="10" d="M134.666,113.47c-34.833-6-25.999,18-15.499,18.334
	c10.5,0.333,8.999-7.668,8.999-7.668s0.667-8-8.395-7.666s-6.438,12.5-1.938,12.834c4.5,0.333,5.334-2.834,5.334-4.834
	s-0.334-4.334-4-4.334s-2.667,5.273-2.667,5.273"/>
<path fill="none" stroke="#000000" stroke-miterlimit="10" d="M147.071,121.611c0,0-0.071-3.803-2.071-3.722
	c-2,0.08-2.167,3.08-2.167,4.414c0,1.332,9,6.084,9-2.208S139.5,111.952,140,121.378s17.001,9.259,16.667-1.074
	c-0.334-10.334-13.668-8.061-22.001-6.834"/>
<line fill="none" stroke="#000000" stroke-miterlimit="10" x1="14.999" y1="112.366" x2="56.999" y2="131.813"/>
<line fill="none" stroke="#000000" stroke-miterlimit="10" x1="50.666" y1="142.47" x2="10.666" y2="134.992"/>
<line fill="none" stroke="#000000" stroke-miterlimit="10" x1="0" y1="154.47" x2="50.666" y2="156.515"/>
<line fill="none" stroke="#000000" stroke-miterlimit="10" x1="203.333" y1="125.409" x2="237.999" y2="110.137"/>
<line fill="none" stroke="#000000" stroke-miterlimit="10" x1="208.666" y1="134.97" x2="250.666" y2="134.97"/>
<line fill="none" stroke="#000000" stroke-miterlimit="10" x1="206.999" y1="152.001" x2="250.666" y2="159.47"/>
</svg>
