<?xml version="1.0" encoding="utf-8"?>
<!-- Generator: Adobe Illustrator 15.0.0, SVG Export Plug-In . SVG Version: 6.00 Build 0)  -->
<!DOCTYPE svg PUBLIC "-//W3C//DTD SVG 1.1//EN" "http://www.w3.org/Graphics/SVG/1.1/DTD/svg11.dtd">
<svg version="1.1" id="Layer_1" xmlns="http://www.w3.org/2000/svg" xmlns:xlink="http://www.w3.org/1999/xlink" x="0px" y="0px"
	 width="122px" height="236px" viewBox="0 0 122 236" enable-background="new 0 0 122 236" xml:space="preserve">
<path fill="none" stroke="#000000" stroke-miterlimit="10" d="M58.667,58.334l-17,93c0,0,21,8,37,0l24.334-93"/>
<path fill="none" stroke="#000000" stroke-miterlimit="10" d="M100.001,28.666c5.333,13.334-12,11.668-12,11.668
	C102.668,50,89.334,55,78.668,53.666c-10.666-1.333-15.334-4-15.334-11.666s10.667-6,10.667-6s-14.333-13.334,2.667-14
	c0,0-9.001-5.334-4.334-11.334s19.667-8.999,30.667-5.332c11,3.666,8,27.945-16,23.473"/>
<path fill="none" stroke="#000000" stroke-miterlimit="10" d="M63.334,37.667c0,0-21.666-8.333-25.666,3.667S65.001,61,77.001,63
	s40.001-7.817,42.667-14.075s-12.79-7.669-22.729-9.797"/>
<path fill="none" stroke="#000000" stroke-miterlimit="10" d="M41.973,149.662c0,0-12.972-1.217-12.972,5.227
	c0,6.445,6.666,11.445,27.333,11.445s35.334-0.098,36.334-8.383c1-8.284-6.982-12.701-12.158-13.659"/>
<path fill="none" stroke="#000000" stroke-miterlimit="10" d="M74.001,83.334c0,0-10.001,39.333-10.667,44
	c-0.666,4.666-2.725,23.415-5.695,27.374"/>
<line fill="none" stroke="#000000" stroke-miterlimit="10" x1="53" y1="139.5" x2="70" y2="139.5"/>
<line fill="none" stroke="#000000" stroke-miterlimit="10" x1="58" y1="119.5" x2="74" y2="119.5"/>
<line fill="none" stroke="#000000" stroke-miterlimit="10" x1="59" y1="125.5" x2="69" y2="125.5"/>
<line fill="none" stroke="#000000" stroke-miterlimit="10" x1="58" y1="133.5" x2="66" y2="133.5"/>
<line fill="none" stroke="#000000" stroke-miterlimit="10" x1="61.5" y1="106.611" x2="72.334" y2="109"/>
<line fill="none" stroke="#000000" stroke-miterlimit="10" x1="64" y1="100.334" x2="76.001" y2="102.667"/>
<line fill="none" stroke="#000000" stroke-miterlimit="10" x1="63.334" y1="91.667" x2="78.645" y2="93.334"/>
<path fill="none" stroke="#000000" stroke-miterlimit="10" d="M38.644,164.422c0,0-12.645,14.245,14.356,14.245L41.667,210
	c0,0,3.667,4.334,9.334,2.334L62,179c0,0,16.304,0.383,14.001-12.666"/>
<path fill="none" stroke="#000000" stroke-miterlimit="10" d="M39.334,222.334c0,0-5.999,11.999-17.666,9.666
	s-22.667-14.667-16.667-21s7.643,9.634,16.321,10.65S32,225.667,39.334,222.334z"/>
<path fill="none" stroke="#000000" stroke-miterlimit="10" d="M49.668,219.334c0,0,9.331,13,24.332,8s15.334-15.612,9.001-14.473
	C76.668,214,63.002,225.667,49.668,219.334z"/>
</svg>
