<?xml version="1.0" encoding="utf-8"?>
<!-- Generator: Adobe Illustrator 15.0.0, SVG Export Plug-In . SVG Version: 6.00 Build 0)  -->
<!DOCTYPE svg PUBLIC "-//W3C//DTD SVG 1.1//EN" "http://www.w3.org/Graphics/SVG/1.1/DTD/svg11.dtd">
<svg version="1.1" id="Layer_1" xmlns="http://www.w3.org/2000/svg" xmlns:xlink="http://www.w3.org/1999/xlink" x="0px" y="0px"
	 width="166px" height="146.833px" viewBox="0 0 166 146.833" enable-background="new 0 0 166 146.833" xml:space="preserve">
<path fill="none" stroke="#000000" stroke-miterlimit="10" d="M4,43c0,0,146.334-11.333,155.667-11l2,106L9,144L4,43z"/>
<path fill="none" stroke="#000000" stroke-miterlimit="10" d="M5.238,68.021c0,0,23.708-2.721,25.068-27.037"/>
<path fill="none" stroke="#000000" stroke-miterlimit="10" d="M130.996,33.606c0,0,2.494,24.347,29.249,29.037"/>
<path fill="none" stroke="#000000" stroke-miterlimit="10" d="M135.309,139.036c0,0,4.025-26.37,26.358-26.703"/>
<path fill="none" stroke="#000000" stroke-miterlimit="10" d="M7.631,116.335c0,0,22.706,5.445,25.371,26.722"/>
<polygon fill="none" stroke="#000000" stroke-miterlimit="10" points="50.082,102.229 49.333,81.833 69.5,81.833 69.5,58.833 
	99.5,58.833 99.5,80.333 122.5,80.489 122.5,100.333 100.667,99.917 102,121.833 69,121.833 67.667,103 "/>
<path fill="none" stroke="#000000" stroke-miterlimit="10" d="M51.031,39.413c0,0-6.364-33.414,29.636-34.08
	s29.646,29.715,29.646,29.715"/>
<path fill="none" stroke="#000000" stroke-miterlimit="10" d="M64.646,38.393c0,0-4.305-20.726,16.024-21.393
	s20.309,18.718,20.309,18.718"/>
</svg>
