<?xml version="1.0" encoding="utf-8"?>
<!-- Generator: Adobe Illustrator 15.0.0, SVG Export Plug-In . SVG Version: 6.00 Build 0)  -->
<!DOCTYPE svg PUBLIC "-//W3C//DTD SVG 1.1//EN" "http://www.w3.org/Graphics/SVG/1.1/DTD/svg11.dtd">
<svg version="1.1" id="Layer_1" xmlns="http://www.w3.org/2000/svg" xmlns:xlink="http://www.w3.org/1999/xlink" x="0px" y="0px"
	 width="260.5px" height="241.633px" viewBox="0 0 260.5 241.633" enable-background="new 0 0 260.5 241.633" xml:space="preserve">
<path fill="none" stroke="#000000" stroke-miterlimit="10" d="M149.992,194.969c-17,16-26.825,22.33-50.491,27.164
	c-17.666,5-30.667-0.334-43.334-1.666c-12.667-1.334-31,3.332-31,3.332s10.667,5,45.667,11.668c35,6.666,63.333-8.334,71.667-13.668
	c8.334-5.333,11.333-6,29-10.332c17.667-4.334,34-34.334,36.333-44.334s16.667-37.666,16.667-37.666s-16.333,14.666-41.333,6.333
	s-66,0.333-83,15.667c-17,15.333-28,21.666-51.334,28.333S3.501,211.467,3.501,211.467s45.332,1.333,49.832,1.5
	c4.5,0.166,32.667,2.833,52.667-8c20-10.834,51.833-10.168,51.833-10.168"/>
<path fill="none" stroke="#000000" stroke-miterlimit="10" d="M105.207,147.57c0,0-19.957-5.938-19.707-20.938s3.75-10.5-4.5-27.75
	s-0.293-27.75,12.104-37s29.146-16.25,19.146-55.25c0,0,14.5,26.25,13.25,41.25s-13.25,19.75-21.75,26.25s-8,21.25-8,21.25
	s5-10.5,22-11s30.25-13,26-36.75c0,0,9,13.75,6.25,28.25s-17.5,16.5-27.5,21s-23,12.5-23,24.5s14.501,21.253,14.501,21.253"/>
<line fill="none" stroke="#000000" stroke-miterlimit="10" x1="112.5" y1="95.133" x2="116.69" y2="99.772"/>
<line fill="none" stroke="#000000" stroke-miterlimit="10" x1="100" y1="103.883" x2="106.19" y2="107.324"/>
<line fill="none" stroke="#000000" stroke-miterlimit="10" x1="93.5" y1="118.633" x2="99.5" y2="118.633"/>
<line fill="none" stroke="#000000" stroke-miterlimit="10" x1="95" y1="131.633" x2="101.039" y2="128.255"/>
<line fill="none" stroke="#000000" stroke-miterlimit="10" x1="101.039" y1="140.383" x2="106.19" y2="135.906"/>
<path fill="none" stroke="#000000" stroke-miterlimit="10" d="M199.852,184.608c22.019-6.858,43.981-28.809,43.981-44.226
	s-6-26.916-25.666-28.25s-42.334-9-42.667-39s25-44.75,25-44.75s-14.001,9.084-12.667,36.084S213.5,97.453,213.5,97.453
	s-17.667-22.654,4-46.32c0,0-14.333,31.973,13,46.32c27.333,14.347,31.333,44.014,25,62.014s-24.513,38.355-62.09,34.678"/>
<path fill="none" stroke="#000000" stroke-miterlimit="10" d="M202.833,150.467c0,0-5.334,5.999-7,17.666s-12,17-12,17"/>
<path fill="none" stroke="#000000" stroke-miterlimit="10" d="M44.167,202.133c0,0,9-3,20,0s23.666-1.334,23.666-1.334"/>
<path fill="none" stroke="#000000" stroke-miterlimit="10" d="M98.02,197.133c0,0,17.813-2,28.813-7.666
	c11-5.667,36.333-5.667,42,3.833"/>
<path fill="none" stroke="#000000" stroke-miterlimit="10" d="M71.833,192.8c0,0,14.334-2,23.167-3.333
	c8.833-1.334,17.5-4.334,17.5-4.334"/>
<path fill="none" stroke="#000000" stroke-miterlimit="10" d="M153.5,150.467c0,0-22.292,6.557-23,26.666"/>
<path fill="none" stroke="#000000" stroke-miterlimit="10" d="M153.5,170.467c0,0-6.148,8.666-20.074,9
	C133.426,179.467,137.833,169.133,153.5,170.467z"/>
<path fill="none" stroke="#000000" stroke-miterlimit="10" d="M82.5,229.8c0,0,24.332,3.333,41.666-6.333"/>
<path fill="none" stroke="#000000" stroke-miterlimit="10" d="M158.09,214.857c0,0,4.077,12.608,13.41,20.275
	c0,0-4.664-15.666,0.001-23.666"/>
<line fill="none" stroke="#000000" stroke-miterlimit="10" x1="34" y1="212.133" x2="34" y2="218.133"/>
<line fill="none" stroke="#000000" stroke-miterlimit="10" x1="49.5" y1="215.133" x2="50.824" y2="220.23"/>
<line fill="none" stroke="#000000" stroke-miterlimit="10" x1="66" y1="213.133" x2="66" y2="218.133"/>
<line fill="none" stroke="#000000" stroke-miterlimit="10" x1="84.5" y1="218.133" x2="86.002" y2="224.205"/>
<line fill="none" stroke="#000000" stroke-miterlimit="10" x1="96.31" y1="209.063" x2="98.02" y2="215.633"/>
<line fill="none" stroke="#000000" stroke-miterlimit="10" x1="114.072" y1="211.467" x2="116.188" y2="217.682"/>
<line fill="none" stroke="#000000" stroke-miterlimit="10" x1="124.166" y1="198.411" x2="125.25" y2="203.191"/>
<line fill="none" stroke="#000000" stroke-miterlimit="10" x1="210.77" y1="180.01" x2="212.167" y2="185.604"/>
<line fill="none" stroke="#000000" stroke-miterlimit="10" x1="230.459" y1="165.336" x2="234" y2="170.348"/>
<line fill="none" stroke="#000000" stroke-miterlimit="10" x1="242.461" y1="147.57" x2="248.75" y2="152.883"/>
<line fill="none" stroke="#000000" stroke-miterlimit="10" x1="243.5" y1="131.633" x2="249.5" y2="131.633"/>
<line fill="none" stroke="#000000" stroke-miterlimit="10" x1="236.169" y1="118.633" x2="242.461" y2="114.383"/>
<line fill="none" stroke="#000000" stroke-miterlimit="10" x1="227" y1="105.604" x2="222.986" y2="112.711"/>
<line fill="none" stroke="#000000" stroke-miterlimit="10" x1="210.77" y1="103.883" x2="206.236" y2="110.445"/>
<line fill="none" stroke="#000000" stroke-miterlimit="10" x1="196" y1="100.883" x2="194.32" y2="106.25"/>
</svg>
