<?xml version="1.0" encoding="utf-8"?>
<!-- Generator: Adobe Illustrator 15.0.0, SVG Export Plug-In . SVG Version: 6.00 Build 0)  -->
<!DOCTYPE svg PUBLIC "-//W3C//DTD SVG 1.1//EN" "http://www.w3.org/Graphics/SVG/1.1/DTD/svg11.dtd">
<svg version="1.1" id="Layer_1" xmlns="http://www.w3.org/2000/svg" xmlns:xlink="http://www.w3.org/1999/xlink" x="0px" y="0px"
	 width="265.5px" height="274.5px" viewBox="0 0 265.5 274.5" enable-background="new 0 0 265.5 274.5" xml:space="preserve">
<path fill="none" stroke="#000000" stroke-miterlimit="10" d="M24.003,96.296c0,0,14.76,22.919,7.653,40.704
	S4.871,155.332,4.871,175.01c0,19.68,30.065,32.798,42.091,42.091s-1.095,32.251,28.97,48.65s38.81-3.826,51.383,0
	s85.275,17.492,105.5-43.184c0,0,8.198-43.73-42.638-59.583L192,120.5l-52-1l1,41.75c0,0-61,6-62.25,48.75c0,0-1.25,18.75,8.5,29.25
	c4.5,9-20.5,4-21.25-16.25c0,0-0.5-3.25,0.5-7.5s3.5-9-1.5-18.5s4.75-21.5,11-27.25s7.25-26.75-7-34c0,0,8.5,13.5,0.75,20.5
	S57.25,169.5,56.5,178.5S54.75,195,54.75,195s-6.5-8.694-22.5-10.723C19,177,23.5,160.25,33.75,152.5S49.006,121.092,24.003,96.296z
	"/>
<path fill="none" stroke="#000000" stroke-miterlimit="10" d="M115.5,131.5c0,0-17.333-23.334,21-23.334s66.999,8.001,71.666-6.332
	c0,0,12.668,16.666-16.166,18.666l-52-1C140,119.5,114.167,106.5,115.5,131.5z"/>
<path fill="none" stroke="#000000" stroke-miterlimit="10" d="M136.5,108.166c0,0-2.667-51.666-4.667-67.666s4.666-34.666,26-35.666
	s23.668,15.333,24.334,27.333s6.991,78.2,6.991,78.2"/>
<ellipse fill="none" stroke="#000000" stroke-miterlimit="10" cx="158.167" cy="32.834" rx="7.667" ry="8.667"/>
<ellipse fill="none" stroke="#000000" stroke-miterlimit="10" cx="161.264" cy="89.834" rx="6.431" ry="6.667"/>
<line fill="none" stroke="#000000" stroke-miterlimit="10" x1="141" y1="161.25" x2="142.5" y2="177.168"/>
<line fill="none" stroke="#000000" stroke-miterlimit="10" x1="190" y1="162.5" x2="190" y2="179.5"/>
<path fill="none" stroke="#000000" stroke-miterlimit="10" d="M204.833,186.834c0,0-3.999-10.668-31.666-7.334
	s-27.174,1.582-35.334-7.333"/>
<line fill="none" stroke="#000000" stroke-miterlimit="10" x1="33.172" y1="131.5" x2="41.876" y2="137"/>
<line fill="none" stroke="#000000" stroke-miterlimit="10" x1="23.409" y1="148.711" x2="31.126" y2="154.807"/>
<line fill="none" stroke="#000000" stroke-miterlimit="10" x1="8.569" y1="162.5" x2="23.409" y2="166.834"/>
<path fill="none" stroke="#000000" stroke-miterlimit="10" d="M8.572,186.834c0,0,7.241-11.549,16.251-11.107"/>
<path fill="none" stroke="#000000" stroke-miterlimit="10" d="M27.268,204.149c0,0,5.984-16.837,14.608-17.576"/>
<path fill="none" stroke="#000000" stroke-miterlimit="10" d="M41.876,213.547c0,0,3.996-15.104,12.874-18.547"/>
<path fill="none" stroke="#000000" stroke-miterlimit="10" d="M56.5,178.5c0,0,5.66-0.453,10.163,2.773"/>
<path fill="none" stroke="#000000" stroke-miterlimit="10" d="M61.853,164.667c0,0,2.981-4.333,14.147,5.083"/>
<path fill="none" stroke="#000000" stroke-miterlimit="10" d="M71.936,153.373c0,0,3.529-0.891,8.38,4.451"/>
<path fill="none" stroke="#000000" stroke-miterlimit="10" d="M55.188,191.463c0,0,3.312-2.297,9.812,5.537"/>
<path fill="none" stroke="#000000" stroke-miterlimit="10" d="M94.5,216.167c0,0-8.666,16.667,0,25.667s18.666,10.666,11.666,19.666
	c0,0,9.333,1.667,8-19.333s17.33-18.667,17.33-18.667"/>
<path fill="none" stroke="#000000" stroke-miterlimit="10" d="M121.088,225.606c0,0-0.08-11.772-2.001-15.439
	s8.413-8.667,8.413-8.667"/>
<path fill="none" stroke="#000000" stroke-miterlimit="10" d="M90.659,231.84c0,0,14.174-1.673,15.174-12.006"/>
<path fill="none" stroke="#000000" stroke-miterlimit="10" d="M128.658,266.134c0,0,6.508-4.967,4.175-14.967
	s11.666-25.334,24.333-15.667"/>
<path fill="none" stroke="#000000" stroke-miterlimit="10" d="M145.5,232.426c0,0,5-11.592,3-16.259"/>
<path fill="none" stroke="#000000" stroke-miterlimit="10" d="M142.912,268.779c0,0,13.254-15.945,31.921-4.945"/>
<path fill="none" stroke="#000000" stroke-miterlimit="10" d="M95.833,96.5c0,0-27.035-22-15.518-32.666
	C91.833,53.166,95.833,96.5,95.833,96.5z"/>
<path fill="none" stroke="#000000" stroke-miterlimit="10" d="M209.166,73.166c0,0-0.332-37.666,11.334-34.666
	S209.166,73.166,209.166,73.166z"/>
<path fill="none" stroke="#000000" stroke-miterlimit="10" d="M223.802,129.834c0,0,12.364-11.266,14.031-19.467s19.333-8.199,8,6.3
	S223.802,129.834,223.802,129.834z"/>
<path fill="none" stroke="#000000" stroke-miterlimit="10" d="M231.833,157.824c0,0,30.333-17.675,31,0
	C263.5,175.5,231.833,157.824,231.833,157.824z"/>
<path fill="none" stroke="#000000" stroke-miterlimit="10" d="M108.166,151.759c0,0-20.333-21.925-12.333-25.592
	S108.166,151.759,108.166,151.759z"/>
<line fill="none" stroke="#000000" stroke-miterlimit="10" x1="165.834" y1="179.5" x2="164.497" y2="119.971"/>
<path fill="none" stroke="#000000" stroke-miterlimit="10" d="M158.873,194.074c0,0,1.294-8.352,14.627-9.797
	c0,0,9.334,2.89,16.5,2.557c7.166-0.334,24.833,14.426,16.833,26.713s-26.333-1.082-32-9.397S158.873,194.074,158.873,194.074z"/>
<path fill="none" stroke="#000000" stroke-miterlimit="10" d="M189.158,195c0,0-6.658,5.38,3.675,9.273
	C199.833,205.5,189.158,195,189.158,195z"/>
</svg>
