<?xml version="1.0" encoding="utf-8"?>
<!-- Generator: Adobe Illustrator 15.0.0, SVG Export Plug-In . SVG Version: 6.00 Build 0)  -->
<!DOCTYPE svg PUBLIC "-//W3C//DTD SVG 1.1//EN" "http://www.w3.org/Graphics/SVG/1.1/DTD/svg11.dtd">
<svg version="1.1" id="Layer_1" xmlns="http://www.w3.org/2000/svg" xmlns:xlink="http://www.w3.org/1999/xlink" x="0px" y="0px"
	 width="310.484px" height="272.986px" viewBox="0 0 310.484 272.986" enable-background="new 0 0 310.484 272.986"
	 xml:space="preserve">
<path fill="none" stroke="#000000" stroke-miterlimit="10" d="M176.932,191.16c0,0-0.667,6.666-15,3.333s-36,4.999-43.333,13.333
	s-34,42.001-73,47.334c0,0,17.333-12.333,34-20s20.333-22.666,23-28s1.334-43.667,64.667-36.667c0,0-32-16.334-52-5.667
	s-26.667,20.333-30.667,28s-24.333,36.667-39,43.667c0,0,5.666-24,13.333-40s32.668-97.333,69.334-95s25.666,23.333,25.833,29
	s4.166,15.667,9.833,16s24.666-19.333,29-48.333c0,0-20.667-38.667-20-57.334s14.333-37.333,40.333-31s57.666,54.667,79,101.667
	c0,0-45,2-68-40.667"/>
<path fill="none" stroke="#000000" stroke-miterlimit="10" d="M253.585,101.184c0,0,7.013,39.644,26.68,50.31
	c0,0-50.667,13.074-67-19.63"/>
<path fill="none" stroke="#000000" stroke-miterlimit="10" d="M229.312,148.072c0,0-7.38,16.754-10.714,34.421s-7.666,39.667-23,47
	s-28.334,14.667-53.334,14.667s-31.338-27.62-31.338-27.62"/>
<polyline fill="none" stroke="#000000" stroke-miterlimit="10" points="109.265,131.863 112.265,144.826 126.932,140.493 "/>
<line fill="none" stroke="#000000" stroke-miterlimit="10" x1="123.932" y1="125.493" x2="112.265" y2="144.826"/>
<path fill="none" stroke="#000000" stroke-miterlimit="10" d="M120.022,233.87c0,0-2.632,12.957-1.799,21.29l8.875-15.249v20.582
	l7.263-17.35"/>
<polyline fill="none" stroke="#000000" stroke-miterlimit="10" points="167.737,241.025 170.12,257.493 176.932,244.16 
	179.932,257.493 186.481,233.87 "/>
<path fill="none" stroke="#000000" stroke-miterlimit="10" d="M112.265,105.775c0,0,15.666-24.95,26-34.616
	s12.667-39.333-3.166-53.666s-53.167,1.334-64.5,17.667s-45,72.667-56,77c0,0,46.333-4,63.333-35"/>
<path fill="none" stroke="#000000" stroke-miterlimit="10" d="M61.01,95.602c0,0-16.745,38.892-33.745,49.225
	c0,0,30.334-4,47.667-30"/>
<path fill="none" stroke="#000000" stroke-miterlimit="10" d="M56.651,132.993c0,0-0.053,11.329-4.053,21.081
	s-4.375,35.917,5.146,45.001"/>
<line fill="none" stroke="#000000" stroke-miterlimit="10" x1="53.841" y1="230.908" x2="57.744" y2="238.743"/>
<line fill="none" stroke="#000000" stroke-miterlimit="10" x1="69.099" y1="229.493" x2="78.651" y2="235.605"/>
<line fill="none" stroke="#000000" stroke-miterlimit="10" x1="71.374" y1="212.066" x2="79.849" y2="223.493"/>
<line fill="none" stroke="#000000" stroke-miterlimit="10" x1="87.599" y1="212.066" x2="98.89" y2="215.636"/>
<line fill="none" stroke="#000000" stroke-miterlimit="10" x1="88.483" y1="186.411" x2="98.89" y2="199.075"/>
<line fill="none" stroke="#000000" stroke-miterlimit="10" x1="105.849" y1="180.993" x2="112.265" y2="184.107"/>
<line fill="none" stroke="#000000" stroke-miterlimit="10" x1="112.265" y1="166.479" x2="116.349" y2="173.493"/>
</svg>
