<?xml version="1.0" encoding="utf-8"?>
<!-- Generator: Adobe Illustrator 15.0.0, SVG Export Plug-In . SVG Version: 6.00 Build 0)  -->
<!DOCTYPE svg PUBLIC "-//W3C//DTD SVG 1.1//EN" "http://www.w3.org/Graphics/SVG/1.1/DTD/svg11.dtd">
<svg version="1.1" id="Layer_1" xmlns="http://www.w3.org/2000/svg" xmlns:xlink="http://www.w3.org/1999/xlink" x="0px" y="0px"
	 width="213px" height="201.5px" viewBox="0 0 213 201.5" enable-background="new 0 0 213 201.5" xml:space="preserve">
<path fill="none" stroke="#000000" stroke-miterlimit="10" d="M44.334,139.834c0,0,12.001,12.333,19.667,7
	s2.666-15.333,2.666-15.333"/>
<path fill="none" stroke="#000000" stroke-miterlimit="10" d="M140.001,135.501c0,0,0.999,15,9.666,17s15-8.5,15-8.5"/>
<path fill="none" stroke="#000000" stroke-miterlimit="10" d="M108.001,142.501c0,8.667-5.334,38.666-28.667,37
	S58.25,148.072,58.25,148.072"/>
<path fill="none" stroke="#000000" stroke-miterlimit="10" d="M152.334,152.736c0,0,2.334,13.431-12.333,20.098s-28,1.333-32-28.706
	"/>
<polyline fill="none" stroke="#000000" stroke-miterlimit="10" points="84.047,179.39 90.5,196.75 92.173,176.616 "/>
<polyline fill="none" stroke="#000000" stroke-miterlimit="10" points="123.725,174.316 127,194.25 132.033,175.222 "/>
<polyline fill="none" stroke="#000000" stroke-miterlimit="10" points="96.86,172.861 108.001,187.75 103.43,162.72 "/>
<polyline fill="none" stroke="#000000" stroke-miterlimit="10" points="113.834,164.703 115,186.684 119.457,171.803 "/>
<path fill="none" stroke="#000000" stroke-miterlimit="10" d="M94.5,135.501c0,0,4-1.251,4,2.249s-8.5,7.033-8-1.233
	s5.75-7.017,8-6.767C103,129,114.721,147,96.86,149.5S82.691,136,83.096,133s9.266-13,19.335-15.75c0,0-5.657-8.75-19.919-4"/>
<path fill="none" stroke="#000000" stroke-miterlimit="10" d="M116.646,137.25c0,0,3.554,9.25,7.079,0s-10.475-8.5-12.475-7.5
	s-6.25,17.594,9.5,18.422S136,136.25,135.75,133s-12.082-16.5-21.916-16.5c0,0,3.416-7.75,20.166-5"/>
<path fill="none" stroke="#000000" stroke-miterlimit="10" d="M76.001,66.833c0,0,10.333,9.667,11.333,14.667
	s2.499,20.333,10.333,20.333s7.834-16.333,6.834-24"/>
<path fill="none" stroke="#000000" stroke-miterlimit="10" d="M111.667,75c0,0-7.166,25.166,6.667,26.166
	c8.333-1.166,11.167-17,12.667-23s9-7,9-7"/>
<path fill="none" stroke="#000000" stroke-miterlimit="10" d="M69.834,107.666c0,0,32.455-17.167,39.978,8.5
	c0,0,1.022-20.5,42.522-14.333"/>
<path fill="none" stroke="#000000" stroke-miterlimit="10" d="M72.174,106.558c0,0-7.173-5.224-6.173-12.558
	s5.332-12.334,11.666-11.167s12.06,10.042,12.06,10.042"/>
<path fill="none" stroke="#000000" stroke-miterlimit="10" d="M128.691,87.24c0,0,10.143-12.074,17.643-6.574
	s7.685,14.523,3.009,20.762"/>
<path fill="none" stroke="#000000" stroke-miterlimit="10" d="M78.6,104.146c0,0-4.968-8.312-0.783-8.646s5.279,7.456,5.279,7.456"
	/>
<path fill="none" stroke="#000000" stroke-miterlimit="10" d="M132.161,100.94c0,0-1.014-9.441,3.663-8.774s1.177,8.51,1.177,8.51"
	/>
<line fill="none" stroke="#000000" stroke-miterlimit="10" x1="70.667" y1="154.5" x2="85.833" y2="152.754"/>
<line fill="none" stroke="#000000" stroke-miterlimit="10" x1="74.5" y1="164" x2="85.833" y2="158.667"/>
<line fill="none" stroke="#000000" stroke-miterlimit="10" x1="77.816" y1="173.333" x2="88.109" y2="167"/>
<line fill="none" stroke="#000000" stroke-miterlimit="10" x1="131" y1="150.667" x2="143" y2="153.627"/>
<line fill="none" stroke="#000000" stroke-miterlimit="10" x1="127.879" y1="156.5" x2="143" y2="161.034"/>
<line fill="none" stroke="#000000" stroke-miterlimit="10" x1="126.333" y1="162.72" x2="135.824" y2="167.833"/>
<line fill="none" stroke="#000000" stroke-miterlimit="10" x1="58.191" y1="127.834" x2="56.302" y2="132.668"/>
<line fill="none" stroke="#000000" stroke-miterlimit="10" x1="61.5" y1="116.5" x2="61.5" y2="120.5"/>
<line fill="none" stroke="#000000" stroke-miterlimit="10" x1="51.5" y1="113.5" x2="51.5" y2="118.5"/>
<line fill="none" stroke="#000000" stroke-miterlimit="10" x1="147.5" y1="117.5" x2="147.5" y2="122.5"/>
<line fill="none" stroke="#000000" stroke-miterlimit="10" x1="157" y1="130.251" x2="159.166" y2="135.501"/>
<line fill="none" stroke="#000000" stroke-miterlimit="10" x1="162" y1="116" x2="164.667" y2="120"/>
<path fill="none" stroke="#000000" stroke-miterlimit="10" d="M61.5,65.667c0,0-10.999-17.167-2.499-22.167
	s24.095,8.167,24.095,8.167"/>
<path fill="none" stroke="#000000" stroke-miterlimit="10" d="M142.501,46.167c0,0,16.832-14,22.166-0.667s-8,20.167-8,20.167"/>
<line fill="none" stroke="#000000" stroke-miterlimit="10" x1="70.667" y1="182.166" x2="64.668" y2="194.25"/>
<line fill="none" stroke="#000000" stroke-miterlimit="10" x1="54.334" y1="179.567" x2="39.501" y2="193.5"/>
<line fill="none" stroke="#000000" stroke-miterlimit="10" x1="40.668" y1="170.166" x2="22.001" y2="186.533"/>
<line fill="none" stroke="#000000" stroke-miterlimit="10" x1="22.001" y1="159.757" x2="8.168" y2="173.333"/>
<line fill="none" stroke="#000000" stroke-miterlimit="10" x1="28.334" y1="139.836" x2="3.001" y2="150.667"/>
<line fill="none" stroke="#000000" stroke-miterlimit="10" x1="26.334" y1="127.834" x2="3.501" y2="132.876"/>
<line fill="none" stroke="#000000" stroke-miterlimit="10" x1="31.334" y1="114.333" x2="12.834" y2="112.667"/>
<line fill="none" stroke="#000000" stroke-miterlimit="10" x1="12.834" y1="93.5" x2="35.334" y2="95.489"/>
<line fill="none" stroke="#000000" stroke-miterlimit="10" x1="19.834" y1="75.833" x2="39.834" y2="80.333"/>
<line fill="none" stroke="#000000" stroke-miterlimit="10" x1="23.334" y1="59" x2="45.167" y2="65.667"/>
<line fill="none" stroke="#000000" stroke-miterlimit="10" x1="31.334" y1="39" x2="53.501" y2="50.166"/>
<line fill="none" stroke="#000000" stroke-miterlimit="10" x1="42.418" y1="26.333" x2="60.001" y2="39.742"/>
<line fill="none" stroke="#000000" stroke-miterlimit="10" x1="58.191" y1="18.666" x2="73.667" y2="37.833"/>
<line fill="none" stroke="#000000" stroke-miterlimit="10" x1="82.001" y1="7.666" x2="91.334" y2="30.333"/>
<line fill="none" stroke="#000000" stroke-miterlimit="10" x1="110.668" y1="7.666" x2="109.812" y2="29.333"/>
<line fill="none" stroke="#000000" stroke-miterlimit="10" x1="138.259" y1="7.666" x2="128.691" y2="30.333"/>
<line fill="none" stroke="#000000" stroke-miterlimit="10" x1="160.834" y1="17.5" x2="147.501" y2="32"/>
<line fill="none" stroke="#000000" stroke-miterlimit="10" x1="173.167" y1="43.667" x2="190.167" y2="37.833"/>
<line fill="none" stroke="#000000" stroke-miterlimit="10" x1="177" y1="65" x2="195" y2="65"/>
<line fill="none" stroke="#000000" stroke-miterlimit="10" x1="185.333" y1="89" x2="204.667" y2="94.611"/>
<line fill="none" stroke="#000000" stroke-miterlimit="10" x1="187.333" y1="120" x2="210.833" y2="125.5"/>
<line fill="none" stroke="#000000" stroke-miterlimit="10" x1="182" y1="142.501" x2="207.167" y2="152.754"/>
<line fill="none" stroke="#000000" stroke-miterlimit="10" x1="174" y1="154.5" x2="191.333" y2="164"/>
<line fill="none" stroke="#000000" stroke-miterlimit="10" x1="171.5" y1="165.276" x2="184.5" y2="175.387"/>
<line fill="none" stroke="#000000" stroke-miterlimit="10" x1="159.166" y1="167.833" x2="172.333" y2="177.833"/>
<line fill="none" stroke="#000000" stroke-miterlimit="10" x1="154.833" y1="178.667" x2="166.833" y2="194.25"/>
<line fill="none" stroke="#000000" stroke-miterlimit="10" x1="140.001" y1="184.283" x2="149.167" y2="198"/>
</svg>
