<?xml version="1.0" encoding="utf-8"?>
<!-- Generator: Adobe Illustrator 15.0.0, SVG Export Plug-In . SVG Version: 6.00 Build 0)  -->
<!DOCTYPE svg PUBLIC "-//W3C//DTD SVG 1.1//EN" "http://www.w3.org/Graphics/SVG/1.1/DTD/svg11.dtd">
<svg version="1.1" id="Layer_1" xmlns="http://www.w3.org/2000/svg" xmlns:xlink="http://www.w3.org/1999/xlink" x="0px" y="0px"
	 width="207px" height="196px" viewBox="0 0 207 196" enable-background="new 0 0 207 196" xml:space="preserve">
<path fill="none" stroke="#000000" stroke-miterlimit="10" d="M83.333,69c-20.333-54.333-52-18-59.667-8S5.333,74,5.333,74
	s22.666,5.335,24.333,11.001s9.668,36.334,30.334,32s23.333-21,23.333-21L88,92.334"/>
<path fill="none" stroke="#000000" stroke-miterlimit="10" d="M74.012,50.911c0,0-9.012-11.912,23.988-47.578
	c0,0,20.49,17.339,29.078,44.17"/>
<path fill="none" stroke="#000000" stroke-miterlimit="10" d="M104,74c0,0,24-38.666,51-38.666s37.667,29,47,30.333
	c0,0-18.334,8.666-21.667,16.333S168.334,108.333,153,111s-33.666-0.333-40-17.333"/>
<path fill="none" stroke="#000000" stroke-miterlimit="10" d="M53.333,63.334c0,0,18.333,19.667,23,12.667S59,63.667,53.333,63.334z
	"/>
<path fill="none" stroke="#000000" stroke-miterlimit="10" d="M135.333,66.667c0,0-12.999-4.332-20.333,13.334
	C115,80.001,133.333,79.667,135.333,66.667z"/>
<line fill="none" stroke="#000000" stroke-miterlimit="10" x1="69.418" y1="67.463" x2="65.155" y2="73.836"/>
<line fill="none" stroke="#000000" stroke-miterlimit="10" x1="122.865" y1="69.157" x2="127.078" y2="77.093"/>
<line fill="none" stroke="#000000" stroke-miterlimit="10" x1="89.333" y1="35.334" x2="91.666" y2="67.463"/>
<line fill="none" stroke="#000000" stroke-miterlimit="10" x1="102.333" y1="35.334" x2="97.666" y2="66.197"/>
<circle fill="none" stroke="#000000" stroke-miterlimit="10" cx="97.666" cy="92.001" r="9.666"/>
<line fill="none" stroke="#000000" stroke-miterlimit="10" x1="94.5" y1="90" x2="94.5" y2="94"/>
<line fill="none" stroke="#000000" stroke-miterlimit="10" x1="100" y1="90" x2="99.982" y2="94"/>
<path fill="none" stroke="#000000" stroke-miterlimit="10" d="M90.5,98.474c0,0,3.25,10.276-2.5,15.026s-10.977,13-15.113,11.5
	s-0.051-7.412-3.469-7.581S62.5,124.75,57.5,126.25s-8.25,1.25-8.25,1.25s-1.25,14.75,12,14c0,0,7.273-6.5,11.637-6.75
	S80.25,136.5,81,132"/>
<path fill="none" stroke="#000000" stroke-miterlimit="10" d="M66.209,137.688c0,0-0.576,8.062,4.107,11.812S70,161,61.25,161
	s-14.168,5.75-14.584,8.25S43,189.75,31.25,190.75c0,0,14.188,8.25,17.969-6s10.855-8.5,18.068-11.25s11.629-21,22.046-21
	c4.917,0.25,3.417,10.814,6.417,12.907s8,4.343,19.25,3.093s9.656,3.25,12.078,10.75S141.5,195,148.5,193.125
	c0,0-11.084-6.625-13.167-11.875s5.417-13.25-1.083-18S115.5,164,110,161.5s-13.334-11.373-7.667-23.812
	c0,0,13.249,15.312,22.833,8.812s5.49-10.75,1.912-17s-3.848-14.25-4.213-16.5s-1.115-5-5.365-5s-6.25,2-4.75,6.25s6,11.75,2.25,11
	s-12-5.5-8.75-17.25s0.539-12.827,0.539-12.827"/>
<path fill="none" stroke="#000000" stroke-miterlimit="10" d="M125.166,146.5c0,0,25.084,19.75,47.334,15.25
	c0,0-8.334-37.609-23.667-50.18"/>
<line fill="none" stroke="#000000" stroke-miterlimit="10" x1="130.5" y1="126.75" x2="146.5" y2="142.75"/>
<line fill="none" stroke="#000000" stroke-miterlimit="10" x1="127.078" y1="114.5" x2="159.5" y2="141.527"/>
<path fill="none" stroke="#000000" stroke-miterlimit="10" d="M70.316,149.5c0,0-42.066,15-62.316-1.5
	c0,0,3.426-20.139,36.338-35.194"/>
<line fill="none" stroke="#000000" stroke-miterlimit="10" x1="25.5" y1="134.274" x2="43.25" y2="132.75"/>
<line fill="none" stroke="#000000" stroke-miterlimit="10" x1="46.666" y1="141.527" x2="28.25" y2="146.75"/>
<path fill="none" stroke="#000000" stroke-miterlimit="10" d="M58.236,174.607c0,0,26.619,21.125,65.941-4.241"/>
</svg>
