<?xml version="1.0" encoding="utf-8"?>
<!-- Generator: Adobe Illustrator 15.0.0, SVG Export Plug-In . SVG Version: 6.00 Build 0)  -->
<!DOCTYPE svg PUBLIC "-//W3C//DTD SVG 1.1//EN" "http://www.w3.org/Graphics/SVG/1.1/DTD/svg11.dtd">
<svg version="1.1" id="Layer_1" xmlns="http://www.w3.org/2000/svg" xmlns:xlink="http://www.w3.org/1999/xlink" x="0px" y="0px"
	 width="188.666px" height="159.333px" viewBox="0 0 188.666 159.333" enable-background="new 0 0 188.666 159.333"
	 xml:space="preserve">
<path fill="none" stroke="#000000" stroke-miterlimit="10" d="M20.499,33.833c0,0-12,23.5-12,55s0.5,62.5,77,66.5
	s105.5-14.5,81-98.5c0,0,14-28.5,13.5-41.5c0,0-23,5-30.5,15.5c0,0-75.5-12-105.5-11.5c0,0-23-11-35.5-12L20.499,33.833z"/>
<path fill="none" stroke="#000000" stroke-miterlimit="10" d="M26.999,116.833c0,0,23.5-11,59-8s61,14.5,61,14.5
	S77.499,129.833,26.999,116.833z"/>
<path fill="none" stroke="#000000" stroke-miterlimit="10" d="M77.499,80.583c0,0,4.75,1.75,4.75,5.75s-1.75,5.75-4.75,5.75
	s-4.75-0.75-4.75-5.75s15.5-13,16.5,0s-11.5,14.75-16.5,14.5s-15.75-5.613-15.25-21.557s20.5-15.443,30.75-14.693
	s31.25,7,29.75,21.75s-10.25,16.5-13.75,16.5s-14-4.75-12.75-16.75s16.25-2.5,15.75,1.5s-9.752,6.351-10.25-0.5s6.25-2,6.25-2"/>
<line fill="none" stroke="#000000" stroke-miterlimit="10" x1="32.749" y1="51.333" x2="143.999" y2="55.333"/>
<path fill="none" stroke="#000000" stroke-miterlimit="10" d="M47.499,40.083c0,0,64,7,85,4.25"/>
<path fill="none" stroke="#000000" stroke-miterlimit="10" d="M69.499,33.583c0,0,38.902,3,48.576,1.75"/>
<line fill="none" stroke="#000000" stroke-miterlimit="10" x1="46.499" y1="64.333" x2="46.499" y2="70.333"/>
<line fill="none" stroke="#000000" stroke-miterlimit="10" x1="130.499" y1="64.333" x2="130.499" y2="70.333"/>
<line fill="none" stroke="#000000" stroke-miterlimit="10" x1="41.999" y1="67.833" x2="49.999" y2="67.833"/>
<line fill="none" stroke="#000000" stroke-miterlimit="10" x1="126.999" y1="67.833" x2="133.999" y2="67.833"/>
<line fill="none" stroke="#000000" stroke-miterlimit="10" x1="29.749" y1="80.333" x2="32.749" y2="83.562"/>
<line fill="none" stroke="#000000" stroke-miterlimit="10" x1="26.999" y1="90.333" x2="29.749" y2="94.583"/>
<line fill="none" stroke="#000000" stroke-miterlimit="10" x1="39.749" y1="94.583" x2="41.999" y2="99.083"/>
<line fill="none" stroke="#000000" stroke-miterlimit="10" x1="141.749" y1="99.083" x2="138.749" y2="104.083"/>
<line fill="none" stroke="#000000" stroke-miterlimit="10" x1="156.499" y1="90.333" x2="156.499" y2="97.333"/>
<line fill="none" stroke="#000000" stroke-miterlimit="10" x1="158.999" y1="108.314" x2="154.749" y2="111.833"/>
<polyline fill="none" stroke="#000000" stroke-miterlimit="10" points="40.874,112.265 43.999,117.834 47.171,110.858 "/>
<polyline fill="none" stroke="#000000" stroke-miterlimit="10" points="67.983,108.433 71.666,116.636 75.666,108.329 "/>
<polyline fill="none" stroke="#000000" stroke-miterlimit="10" points="97.102,110.073 99.166,118.834 105.001,111.319 "/>
<polyline fill="none" stroke="#000000" stroke-miterlimit="10" points="122.149,115.062 123.166,121.5 128.593,116.847 "/>
</svg>
