<?xml version="1.0" encoding="utf-8"?>
<!-- Generator: Adobe Illustrator 15.0.0, SVG Export Plug-In . SVG Version: 6.00 Build 0)  -->
<!DOCTYPE svg PUBLIC "-//W3C//DTD SVG 1.1//EN" "http://www.w3.org/Graphics/SVG/1.1/DTD/svg11.dtd">
<svg version="1.1" id="Layer_1" xmlns="http://www.w3.org/2000/svg" xmlns:xlink="http://www.w3.org/1999/xlink" x="0px" y="0px"
	 width="362.069px" height="312.644px" viewBox="0 0 362.069 312.644" enable-background="new 0 0 362.069 312.644"
	 xml:space="preserve">
<polygon fill="none" stroke="#000000" stroke-miterlimit="10" points="91.058,67.276 104.058,119.84 11.058,102.276 82.058,163.194 
	18.058,227.276 109.058,216.276 107.058,272.276 164.058,237.526 209.058,296.276 239.058,231.276 306.058,265.276 283.058,193.276 
	355.058,191.276 299.058,146.276 347.058,73.276 264.058,97.276 256.058,34.412 210.058,87.584 170.058,16.276 145.335,88.943 "/>
<g>
	<path fill="none" stroke="#000000" d="M120.924,204.629l-11.39-73.209l36.474-5.674l1.147,7.373l7.373-1.147l3.421,21.989
		l-7.374,1.147l1.128,7.242l7.372-1.147l4.549,29.231l-7.373,1.147l1.146,7.373L120.924,204.629z M128.719,158.509l14.615-2.273
		l-3.421-21.989l-14.615,2.273L128.719,158.509z M134.394,194.983l14.615-2.273l-4.549-29.231l-14.614,2.273L134.394,194.983z"/>
	<path fill="none" stroke="#000000" d="M179.381,195.536l-11.39-73.209l14.615-2.274l11.391,73.209L179.381,195.536z"/>
	<path fill="none" stroke="#000000" d="M211.835,115.505l2.295,14.747l7.241-1.127l2.272,14.615l7.375-1.146l-2.273-14.615
		l7.241-1.127l-2.296-14.747l14.616-2.274l11.39,73.209l-14.615,2.274l-6.822-43.847l-7.24,1.127l3.4,21.857l-14.615,2.273
		l-3.4-21.857l-7.374,1.147l6.821,43.847l-7.242,1.126l-11.39-73.209L211.835,115.505z"/>
</g>
</svg>
