<?xml version="1.0" encoding="utf-8"?>
<!-- Generator: Adobe Illustrator 15.0.0, SVG Export Plug-In . SVG Version: 6.00 Build 0)  -->
<!DOCTYPE svg PUBLIC "-//W3C//DTD SVG 1.1//EN" "http://www.w3.org/Graphics/SVG/1.1/DTD/svg11.dtd">
<svg version="1.1" id="Layer_1" xmlns="http://www.w3.org/2000/svg" xmlns:xlink="http://www.w3.org/1999/xlink" x="0px" y="0px"
	 width="362.069px" height="312.644px" viewBox="0 0 362.069 312.644" enable-background="new 0 0 362.069 312.644"
	 xml:space="preserve">
<polygon fill="none" stroke="#000000" stroke-miterlimit="10" points="80.999,37.799 96.778,108.778 12.261,107.646 82.058,162.194 
	12.261,230.944 106.058,222.964 105.558,299.276 167.058,248.769 219.058,306.526 240.808,236.276 290.558,265.276 290.558,206.276 
	355.058,205.276 305.058,145.769 354.558,63.276 267.558,87.943 267.558,7.276 204.808,71.384 159.933,14.276 145.335,87.943 "/>
<g>
	<path fill="none" stroke="#000000" d="M98.979,194.424l-6.222-62.027l30.902-3.101l0.627,6.248l6.248-0.626l1.868,18.629
		l-6.247,0.627l0.615,6.136l6.248-0.626l2.484,24.766l-6.248,0.627l0.627,6.248L98.979,194.424z M107.636,156.032l12.383-1.242
		l-1.869-18.629l-12.383,1.242L107.636,156.032z M110.735,186.934l12.383-1.242l-2.484-24.766l-12.383,1.242L110.735,186.934z"/>
	<path fill="none" stroke="#000000" d="M154.647,188.84l-0.627-6.248l-6.137,0.616l-4.969-49.532l6.137-0.616l-0.627-6.248
		l24.768-2.484l0.627,6.248l6.246-0.626l4.969,49.531l-6.246,0.627l0.626,6.248L154.647,188.84z M167.683,131.192l-12.383,1.242
		l4.969,49.531l12.383-1.242L167.683,131.192z"/>
	<path fill="none" stroke="#000000" d="M204.179,183.872l-0.627-6.248l-6.135,0.616l-4.969-49.532l6.135-0.616l-0.627-6.248
		l24.77-2.484l0.625,6.248l6.248-0.626l4.969,49.532l-6.248,0.626l0.627,6.248L204.179,183.872z M217.214,126.223l-12.383,1.242
		l4.969,49.532l12.383-1.242L217.214,126.223z"/>
	<path fill="none" stroke="#000000" d="M253.737,116.249l1.253,12.495l6.136-0.616l1.242,12.383l6.248-0.626l-1.242-12.383
		l6.135-0.616l-1.252-12.495l12.384-1.242l6.222,62.028l-12.384,1.242l-3.727-37.15l-6.136,0.616l1.857,18.52l-12.383,1.242
		l-1.858-18.52l-6.247,0.626l3.727,37.15l-6.137,0.616l-6.221-62.028L253.737,116.249z"/>
</g>
</svg>
